<svg xmlns="http://www.w3.org/2000/svg" xmlns:xlink="http://www.w3.org/1999/xlink" width="0" height="0" style="position:absolute">
	
		<symbol id="advantages-1" viewBox="0 0 512 512">
			<path d="M226.932 399.948c-19.96 18.445-47.567 22.576-72.053 10.786-8.852-4.263-16.322-10.149-22.17-17.199l-33.341 73.744c-1.517 3.355.177 5.884.975 6.815.798.93 3.039 2.989 6.585 2.003l24.272-6.756a31.036 31.036 0 0 1 8.319-1.14 30.93 30.93 0 0 1 27.849 17.492l10.962 22.685c1.601 3.315 4.604 3.646 5.854 3.621 1.226-.016 4.242-.414 5.758-3.769l53.033-117.304a39.793 39.793 0 0 0-16.043 9.022zM412.631 467.279l-33.341-73.744c-5.848 7.051-13.318 12.937-22.17 17.199-24.487 11.79-52.093 7.659-72.053-10.786a39.787 39.787 0 0 0-16.045-9.022l53.033 117.304c1.517 3.356 4.533 3.753 5.758 3.769 1.25.025 4.253-.306 5.854-3.621l10.962-22.685a30.928 30.928 0 0 1 27.849-17.492c2.757 0 5.554.371 8.319 1.14l24.272 6.756c3.546.987 5.788-1.072 6.585-2.003.8-.932 2.494-3.461.977-6.815z"></path><path d="M438.821 207.791c-27.69-18.96-36.282-56.605-19.56-85.702 10.051-17.491 4.82-34.775-3.427-45.118-8.248-10.34-23.936-19.285-43.223-13.38-32.084 9.827-66.877-6.925-79.201-38.141C286.002 6.686 269.227 0 256 0c-13.227 0-30.002 6.686-37.41 25.451-12.324 31.217-47.114 47.967-79.201 38.141-19.289-5.904-34.974 3.039-43.223 13.38-8.247 10.343-13.478 27.625-3.427 45.118 16.722 29.096 8.13 66.742-19.56 85.702-16.646 11.399-19.431 29.24-16.489 42.136 2.942 12.896 13.194 27.761 33.137 30.808 33.174 5.068 57.248 35.256 54.809 68.727-1.468 20.121 10.745 33.423 22.662 39.163 11.918 5.739 29.932 6.995 44.748-6.698 12.322-11.387 28.141-17.083 43.953-17.083 15.818 0 31.628 5.693 43.952 17.083 14.818 13.694 32.833 12.438 44.75 6.698 11.917-5.739 24.129-19.041 22.662-39.162-2.439-33.471 21.635-63.659 54.809-68.728 19.943-3.047 30.193-17.913 33.137-30.808 2.943-12.898.156-30.739-16.488-42.137zM256 335.923c-72.575 0-131.619-59.044-131.619-131.619S183.424 72.684 256 72.684s131.619 59.044 131.619 131.619c-.001 72.575-59.044 131.62-131.619 131.62z"></path><path d="M255.999 97.225c-59.044 0-107.079 48.036-107.079 107.079 0 59.043 48.034 107.079 107.079 107.079s107.079-48.036 107.079-107.079S315.043 97.225 255.999 97.225zm54.875 96.697l-66.642 48.675a12.27 12.27 0 0 1-17.279-2.856l-19.934-28.382c-3.895-5.547-2.556-13.2 2.989-17.095 5.546-3.895 13.198-2.557 17.094 2.989l12.75 18.154 56.548-41.302c5.473-3.995 13.15-2.803 17.146 2.671 3.997 5.472 2.8 13.148-2.672 17.146z"></path>
		</symbol>
	
		<symbol id="advantages-2" viewBox="0 0 163.641 163.641">
			<path d="M113.88 103.102c10.552-11.119 17.274-26.826 17.274-41.82 0-27.249-22.079-49.341-49.337-49.341-27.249 0-49.334 22.085-49.334 49.341 0 6.74 1.416 13.597 3.873 20.143 6.062 13.658 17.963 24.266 33.034 28.119 2.987-3.689 7.49-5.9 12.428-5.9 8.856 0 16.066 7.204 16.066 16.063 0 8.86-7.21 16.058-16.066 16.058-6.306 0-11.883-3.678-14.499-9.17-12.955-2.851-24.317-9.354-33.146-18.28-19.439 8.306-32.047 21.531-32.047 36.462 0 25.154 159.389 25.154 159.389 0 0-18.634-19.595-34.625-47.635-41.675z"></path><path d="M71.642 121.637c.911 4.805 5.112 8.439 10.169 8.439 5.73 0 10.373-4.646 10.373-10.37s-4.643-10.37-10.366-10.37c-4.403 0-8.139 2.753-9.646 6.625-26.059-4.584-45.931-27.334-45.931-54.686 0-30.647 24.936-55.582 55.576-55.582 30.655 0 55.585 24.935 55.585 55.582h5.687C143.089 27.492 115.603 0 81.817 0c-33.783 0-61.27 27.486-61.27 61.275-.005 30.318 22.15 55.491 51.095 60.362z"></path>
		</symbol>
	
		<symbol id="advantages-3" viewBox="126.5 0 213 265.5">
			<path d="M235.72 459.776v29.159c0 12.738 10.327 23.065 23.065 23.065s23.065-10.327 23.065-23.065v-24.081h-28.996c-6.316.001-12.19-1.879-17.134-5.078zM230.738 107.674c17.207 0 31.864-10.91 37.436-26.188h-74.871c5.569 15.278 20.228 26.188 37.435 26.188z"></path><path d="M365.963 334.574h-17.348c0-6.956.317-11.582-1.914-18.453-3.066-9.439-9.621-17.314-18.138-22.106l-.645-128.388c-.125-24.955-20.529-45.809-45.486-45.809h-3.425l-35.446 69.7v-48.454l8.091-14.133c1.814-3.166-.473-7.11-4.123-7.11h-33.598c-3.594 0-5.887 3.837-4.182 7.002l7.67 14.241v48.457l-34.916-69.7h-3.463c-24.957 0-45.361 20.854-45.486 45.809l-.711 141.21c-.053 10.616 8.508 19.264 19.126 19.318h.098c10.57 0 19.165-8.541 19.219-19.126l.711-141.21a3.814 3.814 0 0 1 4.218-3.773c1.979.204 3.409 2.019 3.409 4.01l.008 322.878c0 13.109 10.936 23.662 24.181 23.038 12.406-.584 21.95-11.271 21.95-23.69V449.48c-2.871-4.761-4.555-10.317-4.555-16.27v-85.443c0-5.955 1.684-11.509 4.555-16.27v-21.665c0-2.697 2.019-5.113 4.712-5.254a4.98 4.98 0 0 1 5.247 4.973v11.65c4.943-3.199 10.818-5.078 17.133-5.078h19.262c-2.234 6.877-1.914 11.532-1.914 18.453h-17.348c-7.287 0-13.193 5.907-13.193 13.193v85.441c0 7.287 5.907 13.194 13.194 13.194h113.11c7.287 0 13.194-5.907 13.194-13.194v-85.443c-.004-7.286-5.909-13.193-13.197-13.193zM281.5 300.702c-.025-.148-.039-.299-.067-.445V165.842a4.022 4.022 0 0 1 8.044-.022l.643 128.27a39.564 39.564 0 0 0-8.62 6.612zm40.975 33.104h-26.134c0-5.766-.327-8.119 1.459-11.574a19.105 19.105 0 0 0 11.605 3.924h.097c4.331-.021 8.308-1.492 11.51-3.928 1.792 3.462 1.463 5.824 1.463 11.578zM190.901 63.801h78.541c7.218 0 13.071-5.851 13.071-13.071 0-4.551-2.331-8.556-5.859-10.896a45.985 45.985 0 0 0-7.295-19.858C262.6 9.747 251.889 2.367 239.399 0v22.311a9.227 9.227 0 0 1-18.452 0V.226c-12.006 2.588-22.275 9.831-28.831 19.751a45.975 45.975 0 0 0-7.205 19.145c-4.202 2.173-7.08 6.55-7.08 11.609-.001 7.219 5.851 13.07 13.07 13.07z"></path>
		</symbol>
	
		<symbol id="advantages-4" viewBox="0 0 300 300">
			<path d="M149.996 0C67.157 0 .001 67.161.001 149.997.001 232.837 67.157 300 149.996 300s150.003-67.163 150.003-150.003S232.835 0 149.996 0zM90.318 204.463a10.356 10.356 0 0 1-10.361-10.364 10.356 10.356 0 0 1 10.361-10.359c5.724 0 10.361 4.635 10.361 10.359 0 5.729-4.637 10.364-10.361 10.364zm0-44.102c-5.727 0-10.361-4.635-10.361-10.367a10.356 10.356 0 0 1 10.361-10.359c5.724 0 10.361 4.635 10.361 10.359 0 5.733-4.637 10.367-10.361 10.367zm0-44.101a10.356 10.356 0 0 1-10.361-10.364 10.356 10.356 0 0 1 10.361-10.359c5.724 0 10.361 4.635 10.361 10.359 0 5.729-4.637 10.364-10.361 10.364zm129.726 87.554h-97.143c-5.729 0-10.374-4.645-10.374-10.374s4.645-10.374 10.374-10.374h97.143c5.729 0 10.374 4.645 10.374 10.374s-4.645 10.374-10.374 10.374zm0-43.766h-97.143c-5.729 0-10.374-4.645-10.374-10.374s4.645-10.374 10.374-10.374h97.143c5.729 0 10.374 4.645 10.374 10.374 0 5.728-4.645 10.374-10.374 10.374zm0-43.767h-97.143c-5.729 0-10.374-4.645-10.374-10.374s4.645-10.374 10.374-10.374h97.143c5.729 0 10.374 4.645 10.374 10.374s-4.645 10.374-10.374 10.374z"></path>
		</symbol>
	
		<symbol id="advantages-5" viewBox="0 0 512 512">
			<path d="M277.739 386.902l-18.075-10.439c1.22-6.639 1.942-13.422 1.942-20.396s-.723-13.742-1.942-20.383l18.058-10.422a16.729 16.729 0 0 0 7.796-10.154 16.706 16.706 0 0 0-1.67-12.686l-21.169-36.672c-4.617-8.002-14.847-10.742-22.849-6.125l-18.013 10.406a113.89 113.89 0 0 0-35.372-20.381v-20.867c0-9.234-7.475-16.721-16.713-16.721H127.38c-9.221 0-16.727 7.486-16.727 16.721v20.867a113.767 113.767 0 0 0-35.342 20.381L57.27 259.625c-8.002-4.617-18.218-1.877-22.835 6.125l-21.17 36.66c-4.616 8-1.875 18.217 6.113 22.834l18.057 10.439c-1.187 6.641-1.924 13.408-1.924 20.383s.737 13.773 1.924 20.416L19.378 386.92c-7.988 4.617-10.729 14.834-6.113 22.834l21.152 36.66a16.808 16.808 0 0 0 10.167 7.795 16.702 16.702 0 0 0 12.686-1.682L75.345 442.1a112.996 112.996 0 0 0 35.31 20.367v20.865c0 9.234 7.506 16.727 16.727 16.727h42.352c9.238 0 16.713-7.492 16.713-16.727v-20.865c13.052-4.648 25.014-11.578 35.342-20.367l18.057 10.428c7.988 4.617 18.218 1.875 22.835-6.113l21.169-36.66c4.614-8.001 1.891-18.232-6.111-22.853zm-129.172 40.286c-39.213 0-71.107-31.914-71.107-71.121s31.895-71.121 71.107-71.121c39.222 0 71.121 31.914 71.121 71.121s-31.899 71.121-71.121 71.121z"></path><path d="M148.567 301.365c-30.148 0-54.685 24.535-54.685 54.701 0 30.162 24.536 54.697 54.685 54.697 30.162 0 54.698-24.535 54.698-54.697.001-30.166-24.536-54.701-54.698-54.701zM482.555 314.822c-16.504-17.771-40.075-24.969-62.334-21.379L238.415 97.688c5.215-21.918-.205-45.959-16.69-63.695-14.579-15.682-34.641-22.98-54.462-21.955a6.672 6.672 0 0 0-5.867 4.188 6.75 6.75 0 0 0 1.282 7.119l19.164 20.623a9.579 9.579 0 0 1 2.55 6.846 9.546 9.546 0 0 1-3.05 6.639l-35.533 32.988c-3.85 3.578-9.882 3.354-13.472-.494L113.19 69.32a6.743 6.743 0 0 0-7.01-1.826 6.72 6.72 0 0 0-4.6 5.576c-2.474 19.68 3.269 40.205 17.86 55.891 16.485 17.734 40.043 24.934 62.302 21.344L363.58 346.073c-5.229 21.943.192 45.979 16.695 63.764 14.561 15.637 34.604 22.9 54.425 21.887a6.668 6.668 0 0 0 5.886-4.164 6.731 6.731 0 0 0-1.313-7.141l-19.133-20.607c-3.577-3.83-3.386-9.908.495-13.502l35.507-32.971a9.556 9.556 0 0 1 13.502.5l19.147 20.621c1.795 1.924 4.522 2.648 7.005 1.844a6.871 6.871 0 0 0 4.622-5.576c2.484-19.679-3.303-40.224-17.863-55.906z"></path>
		</symbol>
	
		<symbol id="advantages-6" viewBox="0 0 512 512">
			<path d="M330.482 271c-6.969 34.191-38.266 60-74.482 60s-66.513-25.809-73.482-60h-30.002c7.357 50.75 50.729 90 103.484 90s97.127-39.25 104.484-90h-30.002z"></path><path d="M390.484 271C382.911 338.315 325.307 391 256 391s-125.911-52.685-133.484-120H0v15c0 6.46 4.146 12.202 10.269 14.238l61.718 20.142c2.593 7.354 5.332 14.048 8.262 20.229l-28.477 57.217a14.998 14.998 0 0 0 2.827 17.285l42.29 42.29c4.585 4.585 11.528 5.669 17.285 2.827l57.217-28.477c6.182 2.93 12.876 5.669 20.229 8.262l20.142 61.718A15.015 15.015 0 0 0 226 512h61c6.46 0 12.202-4.146 14.238-10.269l20.142-61.718c7.354-2.593 14.048-5.332 20.229-8.262l57.217 28.477c5.757 2.856 12.715 1.758 17.285-2.827l42.29-42.29a14.998 14.998 0 0 0 2.827-17.285l-28.477-57.217c2.93-6.182 5.669-12.876 8.262-20.229l60.718-20.142A15.015 15.015 0 0 0 512 286v-15H390.484z"></path><path d="M213.763 271c6.213 17.422 22.707 30 42.237 30s37.024-12.578 43.237-30h-85.474zM256 0c-33.091 0-60 26.909-60 60s26.909 60 60 60 61-26.909 61-60-27.909-60-61-60zM407 0c-33.091 0-60 26.909-60 60s26.909 60 60 60 60-26.909 60-60-26.909-60-60-60zM106 0C72.909 0 46 26.909 46 60s26.909 60 60 60 60-26.909 60-60-26.909-60-60-60zM458.165 133.883C443.616 143.992 426.021 150 407 150c-18.942 0-36.482-5.944-50.997-15.976-6.579 3.777-12.902 8.024-18.627 13.145 29.171 21.806 49.424 55.862 53.708 93.831H512v-15c0-39.223-21.881-74.092-53.835-92.117zM256 150c-52.808 0-96.636 40.185-103.931 91H360.93c-7.294-50.815-52.122-91-104.93-91zM156.997 134.024C142.482 144.056 124.942 150 106 150c-19.021 0-36.616-6.008-51.165-16.117C22.881 151.908 0 186.777 0 226v15h121.916c4.284-37.969 24.537-72.025 53.708-93.831-5.726-5.121-12.048-9.368-18.627-13.145z"></path>
		</symbol>
	
		<symbol id="advantages-7" viewBox="0 0 296.096 296.096">
			<path d="M101.15 175.142c6.966 0 14.634.68 21.634 1.966v-20.969h51v37.424c6 2.203 10.381 4.579 14.494 7.567 7.797 5.664 12.082 13.099 12.339 21.254 9.925-2.345 19.028-6.321 26.905-11.737 2.846-1.956 6.262-3.668 8.262-5.137v-58.243L148.047 49.23l-89.263 98.628v35.247c6-1.521 11.468-3.156 17.806-4.884 7.496-2.043 15.815-3.079 24.56-3.079z"></path><path d="M148.446 25.313l99.184 110.826h22.621L148.247 0 97.784 55.572V33.139h-37v63.315l-35.583 39.685h22.943zM259.083 214.931c-5.494 0-12.89 2.44-22.289 8.901-17.182 11.811-38.215 17.012-57.433 17.012-15.623 0-30.045-3.435-40.23-9.546-5.046-3.028-5.031-4.039-2.104-4.039 5.878 0 23.504 4.079 35.449 4.079 5.878 0 10.379-.987 11.432-3.934 4.867-13.628-14.001-18.016-33.73-26-14.444-5.848-32.073-10.262-48.861-10.263-6.999 0-13.914.767-20.332 2.517-29.141 7.945-50.199 13.93-56.199 15.873v76.48c12-4.413 25.9-8.642 33.81-8.642 14.516 0 73.253 18.726 106.51 18.726 4.658 0 8.829-.367 12.298-1.204 28.227-6.814 77.232-46.725 90.533-60.351 6.386-6.542 3.86-19.609-8.854-19.609z"></path>
		</symbol>
	
		<symbol id="advantages-8" viewBox="0 0 45.682 45.682">
			<path d="M32.102 19.679c1.211-.259 2.328-1.26 2.51-3.48.15-1.817-.316-2.753-1.004-3.23 1.91-7.785-3.358-9.309-3.358-9.309s-3.937-6.679-11.618-1.992c-.977.596-2.496 1.738-3.401 2.917-1.453 1.546-2.442 4.059-2.597 8.129-.938.358-1.675 1.264-1.492 3.484.192 2.321 1.403 3.309 2.677 3.511 1.72 4.189 5.116 7.641 9.135 7.641 4.028 0 7.431-3.468 9.148-7.671zm-9.148 5.718c-4.647 0-8.389-6.31-8.389-11.535 0-.716.023-1.38.067-1.996 6.797.297 10.817-2.428 13.005-4.792 2.075 2.068 3.153 4.68 3.704 6.619l.001.168c.001 5.226-3.74 11.536-8.388 11.536zM20.292 33.297l.538-2.227c.062-.257.195-.477.375-.646a3.139 3.139 0 0 1-.162-.123l-4.806-3.979-2.925.684c-4.953 1.165-8.443 5.348-8.443 10.146v6.3c0 1.24 1.103 2.229 2.423 2.229h12.381l1.888-10.762a1.313 1.313 0 0 1-1.269-1.622zM32.42 27.006l-2.885-.684-4.801 3.979a3.093 3.093 0 0 1-.16.123c.181.169.314.389.377.646l.537 2.227a1.314 1.314 0 0 1-1.269 1.623l1.888 10.762h12.381c1.32 0 2.324-.988 2.324-2.229v-6.3c.002-4.799-3.439-8.982-8.392-10.147z"></path>
		</symbol>
	
		<symbol id="arrow-down" viewBox="0 0 129 129">
			<path d="M121.3 34.6c-1.6-1.6-4.2-1.6-5.8 0l-51 51.1-51.1-51.1c-1.6-1.6-4.2-1.6-5.8 0-1.6 1.6-1.6 4.2 0 5.8l53.9 53.9c.8.8 1.8 1.2 2.9 1.2 1 0 2.1-.4 2.9-1.2l53.9-53.9c1.7-1.6 1.7-4.2.1-5.8z"></path>
		</symbol>
	
		<symbol id="clock" viewBox="0 0 299.995 299.995">
			<path d="M149.995 0C67.156 0 0 67.158 0 149.995s67.156 150 149.995 150 150-67.163 150-150S232.834 0 149.995 0zm64.847 178.524H151.25c-.215 0-.415-.052-.628-.06-.213.01-.412.06-.628.06-5.729 0-10.374-4.645-10.374-10.374V62.249c0-5.729 4.645-10.374 10.374-10.374s10.374 4.645 10.374 10.374v95.527h54.47c5.729 0 10.374 4.645 10.374 10.374 0 5.729-4.641 10.374-10.37 10.374z"></path>
		</symbol>
	
		<symbol id="close" viewBox="0 0 52 52">
			<path d="M26 0C11.664 0 0 11.663 0 26s11.664 26 26 26 26-11.663 26-26S40.336 0 26 0zm0 50C12.767 50 2 39.233 2 26S12.767 2 26 2s24 10.767 24 24-10.767 24-24 24z" fill="#212121"></path><path d="M35.707 16.293a.999.999 0 0 0-1.414 0L26 24.586l-8.293-8.293a.999.999 0 1 0-1.414 1.414L24.586 26l-8.293 8.293a.999.999 0 1 0 1.414 1.414L26 27.414l8.293 8.293a.997.997 0 0 0 1.414 0 .999.999 0 0 0 0-1.414L27.414 26l8.293-8.293a.999.999 0 0 0 0-1.414z" fill="#212121"></path>
		</symbol>
	
		<symbol id="facebook" viewBox="0 0 49.652 49.652">
			<path d="M24.826 0C11.137 0 0 11.137 0 24.826c0 13.688 11.137 24.826 24.826 24.826 13.688 0 24.826-11.138 24.826-24.826C49.652 11.137 38.516 0 24.826 0zM31 25.7h-4.039v14.396h-5.985V25.7h-2.845v-5.088h2.845v-3.291c0-2.357 1.12-6.04 6.04-6.04l4.435.017v4.939h-3.219c-.524 0-1.269.262-1.269 1.386v2.99h4.56L31 25.7z" fill="#FFF"></path>
		</symbol>
	
		<symbol id="facebook-logo-button" viewBox="0 0 486.392 486.392">
			<path d="M243.196 0C108.891 0 0 108.891 0 243.196s108.891 243.196 243.196 243.196 243.196-108.891 243.196-243.196C486.392 108.861 377.501 0 243.196 0zm62.866 243.165l-39.854.03-.03 145.917h-54.689V243.196H175.01v-50.281l36.479-.03-.061-29.609c0-41.039 11.126-65.997 59.431-65.997h40.249v50.311h-25.171c-18.817 0-19.729 7.022-19.729 20.124l-.061 25.171h45.234l-5.319 50.28z" fill="#d9d5d5"></path>
		</symbol>
	
		<symbol id="google" viewBox="0 0 49.652 49.652">
			<g fill="#FFF"><path d="M21.5 28.94c-.161-.107-.326-.223-.499-.34a5.66 5.66 0 0 0-1.584-.241h-.066c-2.514 0-4.718 1.521-4.718 3.257 0 1.89 1.889 3.367 4.299 3.367 3.179 0 4.79-1.098 4.79-3.258 0-.204-.024-.416-.075-.629-.215-.838-.984-1.361-2.147-2.156zM19.719 22.352h.002c.601 0 1.108-.237 1.501-.687.616-.702.889-1.854.727-3.077-.285-2.186-1.848-4.006-3.479-4.053l-.065-.002c-.577 0-1.092.238-1.483.686-.607.693-.864 1.791-.705 3.012.286 2.184 1.882 4.071 3.479 4.121h.023z"></path><path d="M24.826 0C11.137 0 0 11.137 0 24.826c0 13.688 11.137 24.826 24.826 24.826 13.688 0 24.826-11.138 24.826-24.826C49.652 11.137 38.516 0 24.826 0zm-2.862 36.915c-.938.271-1.953.408-3.018.408-1.186 0-2.326-.136-3.389-.405-2.057-.519-3.577-1.503-4.287-2.771a3.526 3.526 0 0 1-.461-1.737c0-.623.149-1.255.443-1.881 1.127-2.402 4.098-4.018 7.389-4.018h.094a2.932 2.932 0 0 1-.396-1.472c0-.255.034-.515.102-.78-3.452-.078-6.035-2.606-6.035-5.939 0-2.353 1.881-4.646 4.571-5.572a7.458 7.458 0 0 1 2.433-.42h7.382c.251 0 .474.163.552.402a.578.578 0 0 1-.211.647l-1.651 1.195a.59.59 0 0 1-.341.108h-.591c.763.915 1.21 2.22 1.21 3.685 0 1.617-.818 3.146-2.307 4.311-1.15.896-1.195 1.143-1.195 1.654.014.281.815 1.198 1.699 1.823 2.059 1.456 2.825 2.885 2.825 5.269-.001 2.491-1.892 4.643-4.818 5.493zm16.671-12.662c0 .32-.261.58-.58.58H33.86v4.197a.58.58 0 0 1-.578.58h-1.195a.58.58 0 0 1-.582-.58v-4.197h-4.192a.58.58 0 0 1-.58-.58V23.06c0-.32.26-.582.58-.582h4.192v-4.193c0-.321.26-.58.582-.58h1.195a.58.58 0 0 1 .578.58v4.193h4.194c.319 0 .58.26.58.58v1.195z"></path></g>
		</symbol>
	
		<symbol id="google-plus-logo-button" viewBox="0 0 49.652 49.652">
			<g fill="#d9d5d5"><path d="M21.5 28.94c-.161-.107-.326-.223-.499-.34a5.66 5.66 0 0 0-1.584-.241h-.066c-2.514 0-4.718 1.521-4.718 3.257 0 1.89 1.889 3.367 4.299 3.367 3.179 0 4.79-1.098 4.79-3.258 0-.204-.024-.416-.075-.629-.215-.838-.984-1.361-2.147-2.156zM19.719 22.352h.002c.601 0 1.108-.237 1.501-.687.616-.702.889-1.854.727-3.077-.285-2.186-1.848-4.006-3.479-4.053l-.065-.002c-.577 0-1.092.238-1.483.686-.607.693-.864 1.791-.705 3.012.286 2.184 1.882 4.071 3.479 4.121h.023z"></path><path d="M24.826 0C11.137 0 0 11.137 0 24.826c0 13.688 11.137 24.826 24.826 24.826 13.688 0 24.826-11.138 24.826-24.826C49.652 11.137 38.516 0 24.826 0zm-2.862 36.915c-.938.271-1.953.408-3.018.408-1.186 0-2.326-.136-3.389-.405-2.057-.519-3.577-1.503-4.287-2.771a3.526 3.526 0 0 1-.461-1.737c0-.623.149-1.255.443-1.881 1.127-2.402 4.098-4.018 7.389-4.018h.094a2.932 2.932 0 0 1-.396-1.472c0-.255.034-.515.102-.78-3.452-.078-6.035-2.606-6.035-5.939 0-2.353 1.881-4.646 4.571-5.572a7.458 7.458 0 0 1 2.433-.42h7.382c.251 0 .474.163.552.402a.578.578 0 0 1-.211.647l-1.651 1.195a.59.59 0 0 1-.341.108h-.591c.763.915 1.21 2.22 1.21 3.685 0 1.617-.818 3.146-2.307 4.311-1.15.896-1.195 1.143-1.195 1.654.014.281.815 1.198 1.699 1.823 2.059 1.456 2.825 2.885 2.825 5.269-.001 2.491-1.892 4.643-4.818 5.493zm16.671-12.662c0 .32-.261.58-.58.58H33.86v4.197a.58.58 0 0 1-.578.58h-1.195a.58.58 0 0 1-.582-.58v-4.197h-4.192a.58.58 0 0 1-.58-.58V23.06c0-.32.26-.582.58-.582h4.192v-4.193c0-.321.26-.58.582-.58h1.195a.58.58 0 0 1 .578.58v4.193h4.194c.319 0 .58.26.58.58v1.195z"></path></g>
		</symbol>
	
		<symbol id="how-we-work-1" viewBox="0 0 60 60">
			<path d="M38.914 0H6.5v60h47V14.586L38.914 0zM17.5 14h10a1 1 0 1 1 0 2h-10a1 1 0 1 1 0-2zm25 34h-25a1 1 0 1 1 0-2h25a1 1 0 1 1 0 2zm0-8h-25a1 1 0 1 1 0-2h25a1 1 0 1 1 0 2zm0-8h-25a1 1 0 1 1 0-2h25a1 1 0 1 1 0 2zm0-8h-25a1 1 0 1 1 0-2h25a1 1 0 1 1 0 2zm-5-8V2l14 14h-14z" fill="#ea5257"></path>
		</symbol>
	
		<symbol id="how-we-work-2" viewBox="0 0 503.607 503.607">
			<g fill="#ea5257"><path d="M478.67 417.993c-50.352-26.498-88.87-41.212-123.081-47.02l3.727-5.12a8.415 8.415 0 0 0 1.36-6.967l-7.798-31.165c20.883-29.444 33.221-66.224 33.221-101.099v-33.574h25.18a8.39 8.39 0 0 0 8.393-8.393 8.385 8.385 0 0 0-8.393-8.393h-8.393v-8.393c0-23.384-5.506-45.409-15.377-64.999l-75.365 14.487a8.441 8.441 0 0 1-1.586.151 8.418 8.418 0 0 1-5.926-2.451 8.43 8.43 0 0 1-2.317-7.521l13.765-72.268c-7.109-3.198-14.537-5.968-22.31-8.175v-1.779C293.77 11.356 282.414 0 268.456 0h-33.297c-13.967 0-25.323 11.356-25.323 25.315v1.779c-7.764 2.208-15.192 4.977-22.301 8.175l13.765 72.268a8.432 8.432 0 0 1-2.317 7.521 8.421 8.421 0 0 1-7.52 2.3l-75.356-14.487c-9.871 19.59-15.385 41.615-15.385 64.999v8.393h-8.393a8.39 8.39 0 0 0-8.393 8.393 8.396 8.396 0 0 0 8.393 8.393h25.18v33.574c0 34.875 12.347 71.655 33.221 101.099l-7.789 31.165a8.384 8.384 0 0 0 1.36 6.967l3.727 5.12c-34.212 5.808-72.729 20.522-123.081 47.02C9.56 426.085 0 441.923 0 459.323v35.89a8.396 8.396 0 0 0 8.393 8.393H212.983c.008 0 .008-.008.017-.008l77.253-.067c.134.008.243.076.378.076h204.582a8.39 8.39 0 0 0 8.393-8.393v-35.89c.001-17.401-9.551-33.239-24.936-41.331zm-344.375-191.37v-33.574h235.016v33.574c0 37.796-13.371 71.059-33.146 96.004-.294.285-.68.462-.932.789a152.793 152.793 0 0 1-8.947 10.45l-.05.05c-2.04 2.157-4.163 4.079-6.278 6.052-20.514 18.499-44.88 29.344-68.155 29.344-23.267 0-47.633-10.844-68.155-29.344-2.107-1.972-4.23-3.895-6.27-6.052l-.05-.05a152.926 152.926 0 0 1-8.956-10.45c-.252-.327-.63-.504-.923-.789-19.775-24.945-33.154-58.208-33.154-96.004zm25.885 132.524l3.769-15.058c.017.025.042.042.059.059 20.287 22.066 46.097 37.611 75.188 41.145.017 0 .034.008.05.008l-22.78 51.242-56.286-77.396zm59.904 127.664l5.028-25.172h53.391l2.132 10.635 2.896 14.479-63.447.058zm67.064-50.268l-22.78-51.242c.017 0 .034-.008.05-.008 29.092-3.534 54.902-19.078 75.188-41.145.017-.017.042-.034.059-.059l3.769 15.058-56.286 77.396z"></path><path d="M331.617 43.415l-10.5 55.111 57.436-11.046c-11.927-17.718-27.874-32.734-46.936-44.065zM171.996 43.415c-19.062 11.331-35.009 26.347-46.936 44.066l57.436 11.046-10.5-55.112z"></path></g>
		</symbol>
	
		<symbol id="how-we-work-3" viewBox="0 0 60 60">
			<path d="M38.914 0H6.5v60h47V14.586L38.914 0zM24.125 41.781l-5 4a.999.999 0 0 1-1.333-.074l-2-2a.999.999 0 1 1 1.414-1.414l1.367 1.367 4.301-3.441a1 1 0 0 1 1.251 1.562zm0-11l-5 4a.999.999 0 0 1-1.333-.074l-2-2a.999.999 0 1 1 1.414-1.414l1.367 1.367 4.301-3.441a1 1 0 0 1 1.251 1.562zm0-11l-5 4a.999.999 0 0 1-1.333-.074l-2-2a.999.999 0 1 1 1.414-1.414l1.367 1.367 4.301-3.441a1 1 0 0 1 1.251 1.562zM42.5 45h-16a1 1 0 1 1 0-2h16a1 1 0 1 1 0 2zm0-11h-16a1 1 0 1 1 0-2h16a1 1 0 1 1 0 2zm0-11h-16a1 1 0 1 1 0-2h16a1 1 0 1 1 0 2zm-5-7V2l14 14h-14z" fill="#ea5257"></path>
		</symbol>
	
		<symbol id="instagram" viewBox="0 0 49.652 49.652">
			<g fill="#FFF"><path d="M24.825 29.796a4.978 4.978 0 0 0 4.972-4.97 4.954 4.954 0 0 0-.94-2.897 4.964 4.964 0 0 0-4.029-2.073c-1.659 0-3.126.82-4.031 2.072a4.947 4.947 0 0 0-.94 2.897 4.973 4.973 0 0 0 4.968 4.971zM35.678 18.746V13.96l-.623.002-4.164.013.016 4.787z"></path><path d="M24.826 0C11.137 0 0 11.137 0 24.826c0 13.688 11.137 24.826 24.826 24.826 13.688 0 24.826-11.138 24.826-24.826C49.652 11.137 38.516 0 24.826 0zm14.119 21.929v11.56a5.463 5.463 0 0 1-5.457 5.458H16.164a5.462 5.462 0 0 1-5.457-5.458V16.165a5.462 5.462 0 0 1 5.457-5.457h17.323a5.463 5.463 0 0 1 5.458 5.457v5.764z"></path><path d="M32.549 24.826c0 4.257-3.464 7.723-7.723 7.723s-7.722-3.466-7.722-7.723a7.67 7.67 0 0 1 .568-2.897h-4.215v11.56a2.706 2.706 0 0 0 2.706 2.704h17.323a2.707 2.707 0 0 0 2.706-2.704v-11.56h-4.217c.367.894.574 1.873.574 2.897z"></path></g>
		</symbol>
	
		<symbol id="instagram-logo" viewBox="0 0 49.652 49.652">
			<g fill="#d9d5d5"><path d="M24.825 29.796a4.978 4.978 0 0 0 4.972-4.97 4.954 4.954 0 0 0-.94-2.897 4.964 4.964 0 0 0-4.029-2.073c-1.659 0-3.126.82-4.031 2.072a4.947 4.947 0 0 0-.94 2.897 4.973 4.973 0 0 0 4.968 4.971zM35.678 18.746V13.96l-.623.002-4.164.013.016 4.787z"></path><path d="M24.826 0C11.137 0 0 11.137 0 24.826c0 13.688 11.137 24.826 24.826 24.826 13.688 0 24.826-11.138 24.826-24.826C49.652 11.137 38.516 0 24.826 0zm14.119 21.929v11.56a5.463 5.463 0 0 1-5.457 5.458H16.164a5.462 5.462 0 0 1-5.457-5.458V16.165a5.462 5.462 0 0 1 5.457-5.457h17.323a5.463 5.463 0 0 1 5.458 5.457v5.764z"></path><path d="M32.549 24.826c0 4.257-3.464 7.723-7.723 7.723s-7.722-3.466-7.722-7.723a7.67 7.67 0 0 1 .568-2.897h-4.215v11.56a2.706 2.706 0 0 0 2.706 2.704h17.323a2.707 2.707 0 0 0 2.706-2.704v-11.56h-4.217c.367.894.574 1.873.574 2.897z"></path></g>
		</symbol>
	
		<symbol id="kluch" viewBox="0 0 15.281 22.22">
			<defs><style>.cls-1{fill-rule:evenodd;filter:url(#filter)}</style><filter id="filter" x="178" y="3012" width="15.281" height="22.22" filterUnits="userSpaceOnUse"><feFlood result="flood" flood-color="#ea5257"></feFlood><feComposite result="composite" operator="in" in2="SourceGraphic"></feComposite><feBlend result="blend" in2="SourceGraphic"></feBlend></filter></defs><path id="kluch_blue_" data-name="kluch(blue)" class="cls-1" d="M184.245 3034.22a6.981 6.981 0 0 1 2.838-1.9c1.576-.44 8.04-3.81 5.675-6.19 0 0 .355-1.79-.946-2.23 0 0 .237-2.06-1.261-1.9a1.788 1.788 0 0 0-.473-1.59c-.67-.51-1.1-.51-1.892.32 0 0-1.85 1.79-2.207 2.22-.394.48-.473.28-.945.16s-2.247-1.07-2.68 2.06.118 3.34-1.892 5.24c0 0 3.232 3.26 3.783 3.81zm3.468-14.13l-1.891-2.38s.833-1.63.315-2.38l-5.2 1.43-1.419-4.13a4.189 4.189 0 0 0-1.1 5.08c1.214 2.9 4.414 2.23 4.571 2.23l2.05 2.54zm-4.256-5.08l2.365-.63a3.03 3.03 0 0 0-3.153-2.38z" transform="translate(-178 -3012)"></path>
		</symbol>
	
		<symbol id="mail" viewBox="0 0 31.012 31.012">
			<g fill="#FFF"><path d="M25.109 21.51a.495.495 0 0 1-.342-.136l-5.754-5.398a.5.5 0 1 1 .685-.728l5.754 5.398a.5.5 0 0 1-.343.864zM5.902 21.51a.5.5 0 0 1-.343-.864l5.756-5.398a.5.5 0 0 1 .685.728l-5.756 5.398a.495.495 0 0 1-.342.136z"></path><path d="M28.512 26.529H2.5a2.503 2.503 0 0 1-2.5-2.5V6.982c0-1.379 1.122-2.5 2.5-2.5h26.012c1.378 0 2.5 1.121 2.5 2.5v17.047c0 1.379-1.122 2.5-2.5 2.5zM2.5 5.482c-.827 0-1.5.673-1.5 1.5v17.047c0 .827.673 1.5 1.5 1.5h26.012c.827 0 1.5-.673 1.5-1.5V6.982c0-.827-.673-1.5-1.5-1.5H2.5z"></path><path d="M15.506 18.018c-.665 0-1.33-.221-1.836-.662L.83 6.155a.501.501 0 0 1-.049-.706.503.503 0 0 1 .706-.048l12.84 11.2c.639.557 1.719.557 2.357 0L29.508 5.419a.5.5 0 0 1 .658.754L17.342 17.355c-.507.442-1.171.663-1.836.663z"></path></g>
		</symbol>
	
		<symbol id="marker" viewBox="0 0 430.114 430.114">
			<path d="M356.208 107.051c-1.531-5.738-4.64-11.852-6.94-17.205C321.746 23.704 261.611 0 213.055 0 148.054 0 76.463 43.586 66.905 133.427v18.355c0 .766.264 7.647.639 11.089 5.358 42.816 39.143 88.32 64.375 131.136 27.146 45.873 55.314 90.999 83.221 136.106 17.208-29.436 34.354-59.259 51.17-87.933 4.583-8.415 9.903-16.825 14.491-24.857 3.058-5.348 8.9-10.696 11.569-15.672 27.145-49.699 70.838-99.782 70.838-149.104v-20.262c.001-5.347-6.627-24.081-7-25.234zm-141.963 92.142c-19.107 0-40.021-9.554-50.344-35.939-1.538-4.2-1.414-12.617-1.414-13.388v-11.852c0-33.636 28.56-48.932 53.406-48.932 30.588 0 54.245 24.472 54.245 55.06 0 30.587-25.305 55.051-55.893 55.051z"></path>
		</symbol>
	
		<symbol id="pause" viewBox="0 0 129 129">
			<g fill="#00aeff"><path d="M64.5 122.6c32.1 0 58.1-26.1 58.1-58.1S96.6 6.4 64.5 6.4 6.4 32.4 6.4 64.5s26 58.1 58.1 58.1zm0-108.1c27.5 0 50 22.4 50 50s-22.4 50-50 50-50-22.4-50-50 22.5-50 50-50z"></path><path d="M53.8 94.7c2.3 0 4.1-1.8 4.1-4.1V37.5c0-2.3-1.8-4.1-4.1-4.1s-4.1 1.8-4.1 4.1v53.1c0 2.3 1.8 4.1 4.1 4.1zM75.2 94.7c2.3 0 4.1-1.8 4.1-4.1V37.5c0-2.3-1.8-4.1-4.1-4.1s-4.1 1.8-4.1 4.1v53.1c0 2.3 1.8 4.1 4.1 4.1z"></path></g>
		</symbol>
	
		<symbol id="phone" viewBox="0 0 35 35">
			<path d="M25.302 0H9.698a2.37 2.37 0 0 0-2.364 2.364v30.271A2.371 2.371 0 0 0 9.698 35h15.604a2.37 2.37 0 0 0 2.364-2.364V2.364A2.37 2.37 0 0 0 25.302 0zM15.004 1.704h4.992a.286.286 0 0 1 0 .573h-4.992a.286.286 0 1 1 0-.573zM17.5 33.818a1.182 1.182 0 1 1 0-2.364 1.182 1.182 0 0 1 0 2.364zm8.521-3.193H8.979V3.749h17.042v26.876z" fill="#FFF"></path>
		</symbol>
	
		<symbol id="phone-red" viewBox="0 0 35 35">
			<path d="M25.302 0H9.698a2.37 2.37 0 0 0-2.364 2.364v30.271A2.371 2.371 0 0 0 9.698 35h15.604a2.37 2.37 0 0 0 2.364-2.364V2.364A2.37 2.37 0 0 0 25.302 0zM15.004 1.704h4.992a.286.286 0 0 1 0 .573h-4.992a.286.286 0 1 1 0-.573zM17.5 33.818a1.182 1.182 0 1 1 0-2.364 1.182 1.182 0 0 1 0 2.364zm8.521-3.193H8.979V3.749h17.042v26.876z" fill="#ea5257"></path>
		</symbol>
	
		<symbol id="play" viewBox="0 0 84 84">
			<defs><style>.cls-1{fill:#00aeff;fill-rule:evenodd}</style></defs><path id="icon_play" class="cls-1" d="M302 403a42 42 0 1 0 42-42 42.123 42.123 0 0 0-42 42zm6.183 0A35.817 35.817 0 1 1 344 438.815 35.976 35.976 0 0 1 308.183 403zm26.95-20.066a2.847 2.847 0 0 0-3.033 0 3.121 3.121 0 0 0-1.4 2.684V418.4a3.423 3.423 0 0 0 1.4 2.683 3.8 3.8 0 0 0 1.633.467 2.505 2.505 0 0 0 1.4-.467l28.7-16.334a3.1 3.1 0 0 0 1.633-2.683 3.428 3.428 0 0 0-1.633-2.8zm1.75 7.934l19.483 11.083-19.483 11.083v-22.168z" transform="translate(-302 -361)"></path>
		</symbol>
	
		<symbol id="problem" viewBox="0 0 60 60">
			<path d="M38.914 0H6.5v60h47V14.586L38.914 0zM24.125 41.781l-5 4a.999.999 0 0 1-1.333-.074l-2-2a.999.999 0 1 1 1.414-1.414l1.367 1.367 4.301-3.441a1 1 0 0 1 1.251 1.562zm0-11l-5 4a.999.999 0 0 1-1.333-.074l-2-2a.999.999 0 1 1 1.414-1.414l1.367 1.367 4.301-3.441a1 1 0 0 1 1.251 1.562zm0-11l-5 4a.999.999 0 0 1-1.333-.074l-2-2a.999.999 0 1 1 1.414-1.414l1.367 1.367 4.301-3.441a1 1 0 0 1 1.251 1.562zM42.5 45h-16a1 1 0 1 1 0-2h16a1 1 0 1 1 0 2zm0-11h-16a1 1 0 1 1 0-2h16a1 1 0 1 1 0 2zm0-11h-16a1 1 0 1 1 0-2h16a1 1 0 1 1 0 2zm-5-7V2l14 14h-14z"></path>
		</symbol>
	
		<symbol id="select-menu" viewBox="0 0 19.906 14.907">
			<defs><style>.cls-1{fill-rule:evenodd;filter:url(#filter)}</style><filter id="filter" x="511.469" y="461.781" width="19.906" height="14.907" filterUnits="userSpaceOnUse"><feFlood result="flood" flood-color="#fff"></feFlood><feComposite result="composite" operator="in" in2="SourceGraphic"></feComposite><feBlend result="blend" mode="luminosity" in2="SourceGraphic"></feBlend></filter></defs><path id="Forma_1_copy" data-name="Forma 1 copy" class="cls-1" d="M511.477 461.775h19.9v1.771h-19.9v-1.771zm0 6.508h19.9v1.771h-19.9v-1.771zm0 6.644h19.9v1.773h-19.9v-1.773z" transform="translate(-511.469 -461.781)"></path>
		</symbol>
	
		<symbol id="servise" viewBox="0 0 231.233 231.233">
			<path d="M230.505 102.78c-.365-3.25-4.156-5.695-7.434-5.695-10.594 0-19.996-6.218-23.939-15.842-4.025-9.855-1.428-21.346 6.465-28.587a6.425 6.425 0 0 0 .705-8.721 114.457 114.457 0 0 0-18.316-18.498c-2.633-2.112-6.502-1.818-8.787.711-6.891 7.632-19.27 10.468-28.836 6.477-9.951-4.187-16.232-14.274-15.615-25.101a6.416 6.416 0 0 0-5.676-6.755c-8.637-1-17.35-1.029-26.012-.068a6.437 6.437 0 0 0-5.723 6.617c.375 10.721-5.977 20.63-15.832 24.667-9.451 3.861-21.744 1.046-28.621-6.519a6.444 6.444 0 0 0-8.725-.731 114.933 114.933 0 0 0-18.703 18.492 6.432 6.432 0 0 0 .689 8.784C34.194 59.3 36.789 70.89 32.61 80.86c-3.99 9.505-13.859 15.628-25.156 15.628-3.666-.118-6.275 2.345-6.68 5.679a115.898 115.898 0 0 0-.049 26.289c.365 3.264 4.268 5.688 7.582 5.688 10.07-.256 19.732 5.974 23.791 15.841 4.039 9.855 1.439 21.341-6.467 28.592-2.473 2.273-2.789 6.07-.701 8.709a114.863 114.863 0 0 0 18.287 18.505 6.43 6.43 0 0 0 8.801-.697c6.918-7.65 19.295-10.481 28.822-6.482 9.98 4.176 16.258 14.262 15.645 25.092a6.417 6.417 0 0 0 5.672 6.755c4.42.517 8.863.773 13.32.773 4.23 0 8.461-.231 12.692-.702a6.434 6.434 0 0 0 5.721-6.621c-.387-10.716 5.979-20.626 15.822-24.655 9.514-3.886 21.752-1.042 28.633 6.512a6.457 6.457 0 0 0 8.725.73 115.085 115.085 0 0 0 18.703-18.493 6.422 6.422 0 0 0-.689-8.788c-8.047-7.284-10.656-18.879-6.477-28.839 3.928-9.377 13.43-15.673 23.65-15.673l1.43.038c3.318.269 6.367-2.286 6.768-5.671a115.39 115.39 0 0 0 .05-26.29zm-114.889 79.49c-36.813 0-66.654-29.841-66.654-66.653s29.842-66.653 66.654-66.653 66.654 29.841 66.654 66.653c0 12.495-3.445 24.182-9.428 34.176l-29.186-29.187a40.761 40.761 0 0 0 3.228-15.957c0-10.915-4.251-21.176-11.97-28.893-7.717-7.717-17.978-11.967-28.891-11.967-3.642 0-7.267.484-10.774 1.439a4.628 4.628 0 0 0-3.201 3.224c-.418 1.574.053 3.187 1.283 4.418 0 0 14.409 14.52 19.23 19.34.505.505.504 1.71.433 2.144l-.045.317c-.486 5.3-1.423 11.662-2.196 14.107-.104.103-.202.19-.308.296-.111.111-.213.218-.32.328-2.477.795-8.937 1.743-14.321 2.225l.001-.029-.242.061a2.095 2.095 0 0 1-.229.011c-.582 0-1.438-.163-2.216-.94-5.018-5.018-18.862-18.763-18.862-18.763-1.242-1.238-2.516-1.498-3.365-1.498-1.979 0-3.751 1.43-4.309 3.481-3.811 14.103.229 29.273 10.546 39.591 7.719 7.718 17.981 11.968 28.896 11.968a40.77 40.77 0 0 0 15.956-3.228l29.503 29.503a66.317 66.317 0 0 1-35.867 10.486z" fill="#FFF"></path>
		</symbol>
	
		<symbol id="slick-next" viewBox="0 0 42 42">
			<defs><style>.cls-1{fill:#0083e6;fill-rule:evenodd;filter:url(#filter)}</style><filter id="filter" x="1305" y="3741" width="42" height="42" filterUnits="userSpaceOnUse"><feFlood result="flood" flood-color="#ea5257"></feFlood><feComposite result="composite" operator="in" in2="SourceGraphic"></feComposite><feBlend result="blend" in2="SourceGraphic"></feBlend></filter></defs><path id="Forma_1" data-name="Forma 1" class="cls-1" d="M1322 3752.03a1.31 1.31 0 0 1 1.85 0l9.2 9.2a1.352 1.352 0 0 1 .01 1.88l-9.2 9.19a1.308 1.308 0 0 1-1.85-1.85l8.27-8.28-8.28-8.28a1.322 1.322 0 0 1 0-1.86zm4-11.03a21 21 0 1 1-21 21 21.023 21.023 0 0 1 21-21zm0 39.37a18.375 18.375 0 1 0-18.38-18.37 18.39 18.39 0 0 0 18.38 18.37z" transform="translate(-1305 -3741)"></path>
		</symbol>
	
		<symbol id="slick-prev" viewBox="0 0 42 42">
			<defs><style>.cls-1{fill:#0083e6;fill-rule:evenodd;filter:url(#filter)}</style><filter id="filter" x="93" y="3742" width="42" height="42" filterUnits="userSpaceOnUse"><feFlood result="flood" flood-color="#ea5257"></feFlood><feComposite result="composite" operator="in" in2="SourceGraphic"></feComposite><feBlend result="blend" in2="SourceGraphic"></feBlend></filter></defs><path id="Forma_1_копия" data-name="Forma 1 копия" class="cls-1" d="M118 3753.03a1.316 1.316 0 0 0-1.855 0l-9.2 9.2a1.486 1.486 0 0 0-.313.5 1.322 1.322 0 0 0 .3 1.38l9.2 9.19a1.31 1.31 0 0 0 1.856-1.85l-8.274-8.28 8.281-8.28a1.316 1.316 0 0 0 .005-1.86zm-4-11.03a21 21 0 1 0 21 21 21.023 21.023 0 0 0-21-21zm0 39.37a18.375 18.375 0 1 1 18.375-18.37A18.394 18.394 0 0 1 114 3781.37z" transform="translate(-93 -3742)"></path>
		</symbol>
	
		<symbol id="time" viewBox="0 0 60 60">
			<path d="M30 0C13.458 0 0 13.458 0 30s13.458 30 30 30 30-13.458 30-30S46.542 0 30 0zm0 58C14.561 58 2 45.439 2 30S14.561 2 30 2s28 12.561 28 28-12.561 28-28 28z" fill="#FFF"></path><path d="M30 6a1 1 0 0 0-1 1v23H14a1 1 0 1 0 0 2h16a1 1 0 0 0 1-1V7a1 1 0 0 0-1-1z" fill="#FFF"></path>
		</symbol>
	
		<symbol id="user" viewBox="0 0 466.146 466.146">
			<path d="M289.285 191.86c28.844-18.539 47.995-50.83 47.995-87.654C337.28 46.659 290.621 0 233.088 0c-57.559 0-104.207 46.659-104.207 104.207 0 36.824 19.151 69.121 47.996 87.654-67.959 6.082-121.422 63.331-121.422 132.854V432.87l.274 1.69 7.457 2.328c70.196 21.929 131.195 29.259 181.401 29.259 98.048 0 154.886-27.97 158.408-29.743l6.963-3.534h.732V324.714c.008-69.517-53.437-126.757-121.405-132.854z"></path>
		</symbol>
	
		<symbol id="wallet" viewBox="0 0 334.877 334.877">
			<path d="M333.196 155.999h-16.067V82.09c0-17.719-14.415-32.134-32.134-32.134h-21.761L240.965 9.917a19.28 19.28 0 0 0-26.222-7.488l-85.464 47.526H33.815c-17.719 0-32.134 14.415-32.134 32.134v220.653c0 17.719 14.415 32.134 32.134 32.134h251.18c17.719 0 32.134-14.415 32.134-32.134V237.94h16.067v-81.941zm-48.201-93.19c9.897 0 17.982 7.519 19.068 17.14h-24.152l-9.525-17.14h14.609zm-63.999-49.146c3.014-1.69 7.07-.508 8.734 2.494l35.476 63.786H101.798l119.198-66.28zm83.279 289.079c0 10.63-8.651 19.281-19.281 19.281H33.815c-10.63 0-19.281-8.651-19.281-19.281V82.09c0-10.63 8.651-19.281 19.281-19.281h72.353L75.345 79.95H37.832c-3.554 0-6.427 2.879-6.427 6.427s2.873 6.427 6.427 6.427h266.443v63.201h-46.999c-21.826 0-39.589 17.764-39.589 39.589v2.764c0 21.826 17.764 39.589 39.589 39.589h46.999v64.795zm16.067-77.655h-63.066c-14.743 0-26.736-11.992-26.736-26.736v-2.764c0-14.743 11.992-26.736 26.736-26.736h63.066v56.236zm-43.381-27.59c0 7.841-6.35 14.19-14.19 14.19-7.841 0-14.19-6.35-14.19-14.19s6.35-14.19 14.19-14.19c7.841-.001 14.19 6.355 14.19 14.19z" fill="#FFF"></path>
		</symbol>
	
		<symbol id="youtube" viewBox="0 0 97.75 97.75">
			<g fill="#FFF"><path d="M39.969 59.587L61.91 48.211c-7.359-3.84-14.627-7.63-21.941-11.447v22.823z"></path><path d="M48.875 0C21.883 0 0 21.882 0 48.875S21.883 97.75 48.875 97.75 97.75 75.868 97.75 48.875 75.867 0 48.875 0zm33.301 65.189c-.846 3.67-3.848 6.377-7.461 6.78-8.557.957-17.217.962-25.842.957-8.625.005-17.287 0-25.846-.957-3.613-.403-6.613-3.11-7.457-6.78-1.203-5.228-1.203-10.933-1.203-16.314s.014-11.088 1.217-16.314c.844-3.67 3.844-6.378 7.457-6.782 8.559-.956 17.221-.961 25.846-.956 8.623-.005 17.285 0 25.841.956 3.615.404 6.617 3.111 7.461 6.782 1.203 5.227 1.193 10.933 1.193 16.314s-.003 11.087-1.206 16.314z"></path></g>
		</symbol>
	
		<symbol id="youtube-symbol" viewBox="0 0 97.75 97.75">
			<g fill="#d9d5d5"><path d="M39.969 59.587L61.91 48.211c-7.359-3.84-14.627-7.63-21.941-11.447v22.823z"></path><path d="M48.875 0C21.883 0 0 21.882 0 48.875S21.883 97.75 48.875 97.75 97.75 75.868 97.75 48.875 75.867 0 48.875 0zm33.301 65.189c-.846 3.67-3.848 6.377-7.461 6.78-8.557.957-17.217.962-25.842.957-8.625.005-17.287 0-25.846-.957-3.613-.403-6.613-3.11-7.457-6.78-1.203-5.228-1.203-10.933-1.203-16.314s.014-11.088 1.217-16.314c.844-3.67 3.844-6.378 7.457-6.782 8.559-.956 17.221-.961 25.846-.956 8.623-.005 17.285 0 25.841.956 3.615.404 6.617 3.111 7.461 6.782 1.203 5.227 1.193 10.933 1.193 16.314s-.003 11.087-1.206 16.314z"></path></g>
		</symbol>
	
</svg>
