<?xml version="1.0" encoding="iso-8859-1"?>
<!-- Generator: Adobe Illustrator 19.0.0, SVG Export Plug-In . SVG Version: 6.00 Build 0)  -->
<svg xmlns="http://www.w3.org/2000/svg" xmlns:xlink="http://www.w3.org/1999/xlink" version="1.1" id="Layer_1" x="0px" y="0px" viewBox="0 0 496 496" style="enable-background:new 0 0 496 496;" xml:space="preserve" width="512px" height="512px">
<g>
	<g>
		<g>
			<path d="M264,160c-57.344,0-104,46.656-104,104s46.656,104,104,104s104-46.656,104-104S321.344,160,264,160z M264,352     c-48.52,0-88-39.48-88-88c0-48.52,39.48-88,88-88s88,39.48,88,88S312.52,352,264,352z" fill="#fdc312"/>
			<path d="M483.712,424.4l-68.4-68.4l14.344-14.344l-11.312-11.312L404,344.688l-12.984-12.984     C401.832,311.504,408,288.464,408,264c0-46.248-22.008-87.368-56-113.728V0H0v352h150.272c26.368,33.992,67.48,56,113.728,56     c24.464,0,47.504-6.168,67.704-16.984L344.688,404l-14.344,14.344l11.312,11.312L356,415.312l68.4,68.4     c7.92,7.92,18.456,12.288,29.656,12.288C477.184,496,496,477.184,496,454.056C496,442.856,491.64,432.328,483.712,424.4z M304,16     h32v123.48c-9.984-5.792-20.688-10.432-32-13.712V16z M64,16h224v32H64V16z M64,64h224v32H64V64z M64,112h224v10.168     c-7.824-1.32-15.808-2.168-24-2.168c-29.584,0-57.104,8.992-80,24.352V144H64V112z M64,160h100.672     c-9.84,9.4-18.312,20.16-25.192,32H64V160z M64,208h67.336c-4.288,10.112-7.288,20.872-9.168,32H64V208z M64,256h56.408     c-0.152,2.664-0.408,5.296-0.408,8c0,8.192,0.848,16.176,2.168,24H64V256z M48,336H16V16h32V336z M64,336v-32h61.768     c3.28,11.312,7.92,22.016,13.712,32H64z M264,392c-70.576,0-128-57.424-128-128s57.424-128,128-128s128,57.424,128,128     S334.576,392,264,392z M356,392.688l-10.272-10.272c14.328-9.92,26.768-22.36,36.688-36.688L392.688,356L356,392.688z      M454.056,480c-6.928,0-13.44-2.696-18.344-7.6l-68.4-68.4L404,367.312l68.4,68.4c4.896,4.904,7.6,11.416,7.6,18.344     C480,468.36,468.36,480,454.056,480z" fill="#fdc312"/>
			<rect x="256" y="224" width="16" height="32" fill="#fdc312"/>
			<rect x="256" y="272" width="16" height="32" fill="#fdc312"/>
			<rect x="272" y="256" width="32" height="16" fill="#fdc312"/>
			<rect x="224" y="256" width="32" height="16" fill="#fdc312"/>
		</g>
	</g>
</g>
<g>
</g>
<g>
</g>
<g>
</g>
<g>
</g>
<g>
</g>
<g>
</g>
<g>
</g>
<g>
</g>
<g>
</g>
<g>
</g>
<g>
</g>
<g>
</g>
<g>
</g>
<g>
</g>
<g>
</g>
</svg>
