<?xml version="1.0" encoding="utf-8"?>
<!-- Generator: Adobe Illustrator 17.0.0, SVG Export Plug-In . SVG Version: 6.00 Build 0)  -->
<!DOCTYPE svg PUBLIC "-//W3C//DTD SVG 1.1//EN" "http://www.w3.org/Graphics/SVG/1.1/DTD/svg11.dtd">
<svg version="1.1" id="Слой_1" xmlns="http://www.w3.org/2000/svg" xmlns:xlink="http://www.w3.org/1999/xlink" x="0px" y="0px"
	 width="213px" height="265.5px" viewBox="126.5 0 213 265.5" enable-background="new 126.5 0 213 265.5" xml:space="preserve">
<g>
	<g>
		<path d="M235.72,459.776v29.159c0,12.738,10.327,23.065,23.065,23.065s23.065-10.327,23.065-23.065v-24.081
			h-28.996C246.538,464.855,240.664,462.975,235.72,459.776z"/>
	</g>
	<g>
		<path d="M230.738,107.674c17.207,0,31.864-10.91,37.436-26.188h-74.871
			C198.872,96.764,213.531,107.674,230.738,107.674L230.738,107.674z"/>
	</g>
	<g>
		<g>
			<path d="M365.963,334.574h-17.348c0-6.956,0.317-11.582-1.914-18.453c-3.066-9.439-9.621-17.314-18.138-22.106
				l-0.645-128.388c-0.125-24.955-20.529-45.809-45.486-45.809h-3.425l-35.446,69.7v-48.454l8.091-14.133
				c1.814-3.166-0.473-7.11-4.123-7.11h-33.598c-3.594,0-5.887,3.837-4.182,7.002l7.67,14.241v48.457l-34.916-69.7h-3.463
				c-24.957,0-45.361,20.854-45.486,45.809l-0.711,141.21c-0.053,10.616,8.508,19.264,19.126,19.318c0.033,0,0.064,0,0.098,0
				c10.57,0,19.165-8.541,19.219-19.126l0.711-141.21c0.012-2.234,1.94-4.008,4.218-3.773c1.979,0.204,3.409,2.019,3.409,4.01
				l0.008,322.878c0,13.109,10.936,23.662,24.181,23.038c12.406-0.584,21.95-11.271,21.95-23.69v-38.805
				c-2.871-4.761-4.555-10.317-4.555-16.27v-85.443c0-5.955,1.684-11.509,4.555-16.27v-21.665c0-2.697,2.019-5.113,4.712-5.254
				c2.872-0.151,5.247,2.134,5.247,4.973v11.65c4.943-3.199,10.818-5.078,17.133-5.078h19.262
				c-2.234,6.877-1.914,11.532-1.914,18.453h-17.348c-7.287,0-13.193,5.907-13.193,13.193v85.441
				c0,7.287,5.907,13.194,13.194,13.194h113.11c7.287,0,13.194-5.907,13.194-13.194v-85.443
				C379.156,340.481,373.251,334.574,365.963,334.574L365.963,334.574z M281.5,300.702c-0.025-0.148-0.039-0.299-0.067-0.445
				V165.842c0-2.217,1.794-4.016,4.011-4.023s4.021,1.784,4.033,4.001l0.643,128.27C286.948,295.893,284.046,298.12,281.5,300.702z
				 M322.475,333.806h-26.134c0-5.766-0.327-8.119,1.459-11.574c3.228,2.454,7.241,3.924,11.605,3.924c0.031,0,0.066,0,0.097,0
				c4.331-0.021,8.308-1.492,11.51-3.928C322.804,325.69,322.475,328.052,322.475,333.806L322.475,333.806z"/>
		</g>
	</g>
	<g>
		<path d="M190.901,63.801h78.541c7.218,0,13.071-5.851,13.071-13.071c0-4.551-2.331-8.556-5.859-10.896
			c-0.88-7.274-3.442-14.026-7.295-19.858C262.6,9.747,251.889,2.367,239.399,0v22.311c0,5.094-4.131,9.226-9.226,9.226
			c-5.094,0-9.226-4.131-9.226-9.226V0.226c-12.006,2.588-22.275,9.831-28.831,19.751c-3.727,5.639-6.247,12.142-7.205,19.145
			c-4.202,2.173-7.08,6.55-7.08,11.609C177.83,57.95,183.682,63.801,190.901,63.801L190.901,63.801z"/>
	</g>
</g>
</svg>
