<svg xmlns="http://www.w3.org/2000/svg" xmlns:xlink="http://www.w3.org/1999/xlink" version="1.1" id="Capa_1" x="0px" y="0px" viewBox="0 0 512 512" style="enable-background:new 0 0 512 512;" xml:space="preserve" width="512px" height="512px">
    <g>
        <g>
            <path d="M330.482,271c-6.969,34.191-38.266,60-74.482,60s-66.513-25.809-73.482-60h-30.002c7.357,50.75,50.729,90,103.484,90    s97.127-39.25,104.484-90H330.482z" fill="#FFFFFF" />
        </g>
    </g>
    <g>
        <g>
            <path d="M390.484,271C382.911,338.315,325.307,391,256,391s-125.911-52.685-133.484-120H0v15c0,6.46,4.146,12.202,10.269,14.238    l61.718,20.142c2.593,7.354,5.332,14.048,8.262,20.229l-28.477,57.217c-2.871,5.771-1.729,12.729,2.827,17.285l42.29,42.29    c4.585,4.585,11.528,5.669,17.285,2.827l57.217-28.477c6.182,2.93,12.876,5.669,20.229,8.262l20.142,61.718    C213.798,507.854,219.54,512,226,512h61c6.46,0,12.202-4.146,14.238-10.269l20.142-61.718c7.354-2.593,14.048-5.332,20.229-8.262    l57.217,28.477c5.757,2.856,12.715,1.758,17.285-2.827l42.29-42.29c4.556-4.556,5.698-11.514,2.827-17.285l-28.477-57.217    c2.93-6.182,5.669-12.876,8.262-20.229l60.718-20.142C507.854,298.202,512,292.46,512,286v-15H390.484z" fill="#FFFFFF" />
        </g>
    </g>
    <g>
        <g>
            <path d="M213.763,271c6.213,17.422,22.707,30,42.237,30c19.53,0,37.024-12.578,43.237-30H213.763z" fill="#FFFFFF" />
        </g>
    </g>
    <g>
        <g>
            <path d="M256,0c-33.091,0-60,26.909-60,60s26.909,60,60,60s61-26.909,61-60S289.091,0,256,0z" fill="#FFFFFF" />
        </g>
    </g>
    <g>
        <g>
            <path d="M407,0c-33.091,0-60,26.909-60,60s26.909,60,60,60s60-26.909,60-60S440.091,0,407,0z" fill="#FFFFFF" />
        </g>
    </g>
    <g>
        <g>
            <path d="M106,0C72.909,0,46,26.909,46,60s26.909,60,60,60s60-26.909,60-60S139.091,0,106,0z" fill="#FFFFFF" />
        </g>
    </g>
    <g>
        <g>
            <path d="M458.165,133.883C443.616,143.992,426.021,150,407,150c-18.942,0-36.482-5.944-50.997-15.976    c-6.579,3.777-12.902,8.024-18.627,13.145c29.171,21.806,49.424,55.862,53.708,93.831H512v-15    C512,186.777,490.119,151.908,458.165,133.883z" fill="#FFFFFF" />
        </g>
    </g>
    <g>
        <g>
            <path d="M256,150c-52.808,0-96.636,40.185-103.931,91H360.93C353.636,190.185,308.808,150,256,150z" fill="#FFFFFF" />
        </g>
    </g>
    <g>
        <g>
            <path d="M156.997,134.024C142.482,144.056,124.942,150,106,150c-19.021,0-36.616-6.008-51.165-16.117    C22.881,151.908,0,186.777,0,226v15h121.916c4.284-37.969,24.537-72.025,53.708-93.831    C169.898,142.048,163.576,137.801,156.997,134.024z" fill="#FFFFFF" />
        </g>
    </g>
</svg>