<svg xmlns="http://www.w3.org/2000/svg" width="84" height="84" viewBox="0 0 84 84">
    <metadata>
        <?xpacket begin="﻿" id="W5M0MpCehiHzreSzNTczkc9d"?>
            <x:xmpmeta xmlns:x="adobe:ns:meta/" x:xmptk="Adobe XMP Core 5.6-c142 79.160924, 2017/07/13-01:06:39        ">
                <rdf:RDF xmlns:rdf="http://www.w3.org/1999/02/22-rdf-syntax-ns#">
                    <rdf:Description rdf:about="" />
                </rdf:RDF>
            </x:xmpmeta>
            <?xpacket end="w"?>
    </metadata>
    <defs>
        <style>
        .cls-1 {
            fill: #00aeff;
            fill-rule: evenodd;
        }
        </style>
    </defs>
    <path id="icon_play" class="cls-1" d="M302,403a42,42,0,1,0,42-42A42.123,42.123,0,0,0,302,403Zm6.183,0A35.817,35.817,0,1,1,344,438.815,35.976,35.976,0,0,1,308.183,403Zm26.95-20.066a2.847,2.847,0,0,0-3.033,0,3.121,3.121,0,0,0-1.4,2.684V418.4a3.423,3.423,0,0,0,1.4,2.683,3.8,3.8,0,0,0,1.633.467,2.505,2.505,0,0,0,1.4-.467l28.7-16.334a3.1,3.1,0,0,0,1.633-2.683,3.428,3.428,0,0,0-1.633-2.8Zm1.75,7.934,19.483,11.083-19.483,11.083V390.866Z" transform="translate(-302 -361)" />
</svg>