<svg xmlns="http://www.w3.org/2000/svg" xmlns:xlink="http://www.w3.org/1999/xlink" width="42" height="42" viewBox="0 0 42 42">
  <metadata><?xpacket begin="﻿" id="W5M0MpCehiHzreSzNTczkc9d"?>
<x:xmpmeta xmlns:x="adobe:ns:meta/" x:xmptk="Adobe XMP Core 5.6-c142 79.160924, 2017/07/13-01:06:39        ">
   <rdf:RDF xmlns:rdf="http://www.w3.org/1999/02/22-rdf-syntax-ns#">
      <rdf:Description rdf:about=""/>
   </rdf:RDF>
</x:xmpmeta>
                                                                                                    
                                                                                                    
                                                                                                    
                                                                                                    
                                                                                                    
                                                                                                    
                                                                                                    
                                                                                                    
                                                                                                    
                                                                                                    
                                                                                                    
                                                                                                    
                                                                                                    
                                                                                                    
                                                                                                    
                                                                                                    
                                                                                                    
                                                                                                    
                                                                                                    
                                                                                                    
                           
<?xpacket end="w"?></metadata>
<defs>
    <style>
      .cls-1 {
        fill: #0083e6;
        fill-rule: evenodd;
        filter: url(#filter);
      }
    </style>
    <filter id="filter" x="93" y="3742" width="42" height="42" filterUnits="userSpaceOnUse">
      <feFlood result="flood" flood-color="#ea5257"/>
      <feComposite result="composite" operator="in" in2="SourceGraphic"/>
      <feBlend result="blend" in2="SourceGraphic"/>
    </filter>
  </defs>
  <path id="Forma_1_копия" data-name="Forma 1 копия" class="cls-1" d="M118,3753.03a1.316,1.316,0,0,0-1.855,0l-9.2,9.2a1.486,1.486,0,0,0-.313.5,1.322,1.322,0,0,0,.3,1.38l9.2,9.19a1.31,1.31,0,0,0,1.856-1.85l-8.274-8.28,8.281-8.28A1.316,1.316,0,0,0,118,3753.03ZM114,3742a21,21,0,1,0,21,21A21.023,21.023,0,0,0,114,3742Zm0,39.37A18.375,18.375,0,1,1,132.375,3763,18.394,18.394,0,0,1,114,3781.37Z" transform="translate(-93 -3742)"/>
</svg>
