<svg version="1.1" id="Слой_1" xmlns="http://www.w3.org/2000/svg" xmlns:xlink="http://www.w3.org/1999/xlink" x="0px" y="0px" viewBox="0 0 2328.5 15" style="enable-background:new 0 0 2328.5 15;" xml:space="preserve">
    <style type="text/css">
    .st0 {
        fill: none;
        stroke: #000000;
        stroke-miterlimit: 10;
    }
    </style>
    <g>
        <polyline class="st0" points="0.1,0.5 47.7,14.5 95.2,0.5 142.7,14.5 190.2,0.5 237.7,14.5 285.2,0.5 332.7,14.5 380.2,0.5 
		427.7,14.5 475.3,0.5 522.8,14.5 570.3,0.5 617.8,14.5 665.3,0.5 712.8,14.5 760.3,0.5 807.9,14.5 855.4,0.5 902.9,14.5 950.4,0.5 
		997.9,14.5 1045.4,0.5 1092.9,14.5 1140.5,0.5 1188,14.5 1235.5,0.5 1283,14.5 1330.5,0.5 1378,14.5 1425.6,0.5 1473.1,14.5 
		1520.6,0.5 1568.1,14.5 1615.6,0.5 1663.1,14.5 1710.6,0.5 1758.1,14.5 1805.7,0.5 1853.2,14.5 1900.7,0.5 1948.2,14.5 1995.7,0.5 
		2043.3,14.5 2090.8,0.5 2138.3,14.5 2185.8,0.5 2233.3,14.5 2280.8,0.5 2328.4,14.5 	" />
    </g>
</svg>