<?xml version="1.0" encoding="utf-8"?>
<!-- Generator: Adobe Illustrator 21.0.0, SVG Export Plug-In . SVG Version: 6.00 Build 0)  -->
<svg version="1.1" id="Слой_1" xmlns="http://www.w3.org/2000/svg" xmlns:xlink="http://www.w3.org/1999/xlink" x="0px" y="0px"
	 viewBox="0 0 35 35" style="enable-background:new 0 0 35 35;" xml:space="preserve">
<style type="text/css">
	.st0{fill:#C3D846;}
	.st1{fill:#E93F49;}
	.st2{fill:#FFFFFF;}
	.st3{fill:#009EFE;}
	.st4{fill:#009DFE;}
	.st5{fill:#FFCA05;}
	.st6{fill:#E90000;}
	.st7{fill:#191B73;}
	.st8{fill:#231F20;}
	.st9{fill:#FF5F00;}
	.st10{fill:#EB001B;}
	.st11{fill:#F79E1B;}
	.st12{fill:#A1B925;}
	.st13{fill:#A2B925;}
</style>
<g>
	<path class="st12" d="M3.5,12.3l-1.4-3h22.4l-1,3H3.5z M4.6,15L6,18h15.9l1-3H4.6z M28.4,6.4l-4.6,14.2H7.2l1.4,3h17.6l4.6-14.2H33
		l1-3H28.4z M20.7,25.2c-1.2,0-2.1,0.9-2.1,2c0,1.1,0.9,2,2.1,2c1.1,0,2.1-0.9,2.1-2C22.8,26.1,21.8,25.2,20.7,25.2z M13.8,25.2
		c-1.1,0-2.1,0.9-2.1,2c0,1.1,0.9,2,2.1,2c1.2,0,2.1-0.9,2.1-2C15.9,26.1,15,25.2,13.8,25.2z"/>
</g>
</svg>
