<?xml version="1.0" encoding="utf-8"?>
<!-- Generator: Adobe Illustrator 21.0.0, SVG Export Plug-In . SVG Version: 6.00 Build 0)  -->
<svg version="1.1" id="Слой_1" xmlns="http://www.w3.org/2000/svg" xmlns:xlink="http://www.w3.org/1999/xlink" x="0px" y="0px"
	 viewBox="0 0 50 50" style="enable-background:new 0 0 50 50;" xml:space="preserve">
<style type="text/css">
	.st0{fill:#C3D846;}
	.st1{fill:#E93F49;}
	.st2{fill:#FFFFFF;}
	.st3{fill:#009EFE;}
	.st4{fill:#009DFE;}
	.st5{fill:#FFCA05;}
	.st6{fill:#E90000;}
	.st7{fill:#191B73;}
	.st8{fill:#231F20;}
	.st9{fill:#FF5F00;}
	.st10{fill:#EB001B;}
	.st11{fill:#F79E1B;}
	.st12{fill:#A1B925;}
	.st13{fill:#A2B925;}
</style>
<g>
	<path d="M43.4,3.9c0.7,0,1.3,0.3,1.9,0.8c0.5,0.5,0.8,1.1,0.8,1.9v37c0,0.7-0.3,1.3-0.8,1.9c-0.5,0.5-1.1,0.8-1.9,0.8H32.9V29.8
		h5.3l0.9-6.1h-6.2v-4.8c0-0.9,0.2-1.6,0.7-2c0.4-0.5,1.1-0.7,2-0.7h4v-5.5c-1.2-0.2-2.6-0.3-4.3-0.3c-2.8,0-5,0.7-6.5,2.2
		c-1.5,1.4-2.2,3.4-2.2,5.9v5.3h-5.3v6.1h5.3v16.4H6.5c-0.7,0-1.3-0.3-1.9-0.8c-0.5-0.5-0.8-1.1-0.8-1.9v-37c0-0.7,0.3-1.3,0.8-1.9
		s1.1-0.8,1.9-0.8H43.4z" fill="#355db8"/>
</g>
</svg>
