<?xml version="1.0" encoding="utf-8"?>
<!-- Generator: Adobe Illustrator 21.0.0, SVG Export Plug-In . SVG Version: 6.00 Build 0)  -->
<svg version="1.1" id="Слой_1" xmlns="http://www.w3.org/2000/svg" xmlns:xlink="http://www.w3.org/1999/xlink" x="0px" y="0px"
	 viewBox="0 0 81.4 50" style="enable-background:new 0 0 81.4 50;" xml:space="preserve">
<style type="text/css">
	.st0{fill:#C3D846;}
	.st1{fill:#E93F49;}
	.st2{fill:#FFFFFF;}
	.st3{fill:#009EFE;}
	.st4{fill:#009DFE;}
	.st5{fill:#FFCA05;}
	.st6{fill:#E90000;}
	.st7{fill:#191B73;}
	.st8{fill:#231F20;}
	.st9{fill:#FF5F00;}
	.st10{fill:#EB001B;}
	.st11{fill:#F79E1B;}
	.st12{fill:#A1B925;}
	.st13{fill:#A2B925;}
</style>
<g>
	<path class="st7" d="M79.7,38.5c-2,0-3.9,0-5.8,0c-0.2-1.1-0.5-2.1-0.7-3.2c-0.1-0.3-0.2-0.4-0.5-0.4c-2.4,0-4.9,0-7.3,0
		c-0.3,0-0.5,0.1-0.6,0.4c-0.3,1-0.7,2-1.1,2.9c-0.1,0.1-0.2,0.3-0.4,0.3c-2.1,0-4.2,0-6.4,0c0.1-0.2,0.2-0.4,0.2-0.6
		c3.1-7.3,6.1-14.6,9.2-22c0.6-1.3,1.5-2,2.9-2c1.6,0,3.3,0,4.9,0c0.3,0,0.4,0.1,0.5,0.4c1.6,7.9,3.3,15.8,4.9,23.6
		C79.7,38.1,79.7,38.3,79.7,38.5z M66.8,29.7c1.8,0,3.5,0,5.2,0c-0.6-3-1.3-6-1.9-9c0,0-0.1,0-0.1,0C69,23.7,67.9,26.7,66.8,29.7z"
		/>
	<path class="st7" d="M17.8,30.6c0.1-0.3,0.3-0.6,0.4-0.9c2-5.1,4-10.2,6.1-15.3c0.1-0.3,0.3-0.4,0.6-0.4c1.9,0,3.8,0,5.7,0
		c0.1,0,0.3,0,0.5,0c-0.1,0.2-0.2,0.4-0.2,0.6c-3.3,7.8-6.6,15.7-9.8,23.5c-0.1,0.3-0.2,0.4-0.6,0.4c-2,0-4,0-5.9,0
		c-0.3,0-0.4-0.1-0.5-0.4c-1.7-6.5-3.3-12.9-5-19.4c-0.2-1-0.8-1.6-1.7-2.1c-1.8-0.9-3.7-1.4-5.7-1.9c-0.1,0-0.2-0.1-0.3-0.1
		c0-0.2,0.1-0.4,0.1-0.7c0.2,0,0.3,0,0.4,0c3.4,0,6.8,0,10.2,0c1.7,0,2.8,1,3.1,2.6c0.9,4.6,1.7,9.2,2.6,13.8
		C17.7,30.4,17.7,30.4,17.8,30.6z"/>
	<path class="st7" d="M57.4,19.7c-0.9-0.3-1.9-0.6-2.8-0.8c-1.4-0.3-2.8-0.4-4.1-0.1c-0.5,0.1-0.9,0.3-1.3,0.6c-1,0.7-1,1.9-0.1,2.6
		c0.8,0.6,1.6,1,2.5,1.5c1,0.6,2.1,1.2,3,1.9c2.4,1.8,3.2,4.2,2.4,7.1c-0.8,2.7-2.7,4.4-5.2,5.4c-2.4,0.9-4.8,1-7.3,0.8
		c-1.6-0.1-3.1-0.4-4.6-0.9c-0.2-0.1-0.5-0.2-0.7-0.3c0.4-1.8,0.8-3.6,1.1-5.4c0.3,0.1,0.5,0.2,0.7,0.3c2.1,1,4.3,1.4,6.6,1.2
		c0.8-0.1,1.5-0.3,2.1-0.7c1.1-0.8,1.3-2.1,0.2-3c-0.6-0.6-1.4-1-2.2-1.4c-1.1-0.7-2.4-1.3-3.5-2.1c-3.6-2.7-2.9-6.7-1.1-9.1
		c1.4-1.8,3.3-2.8,5.5-3.3c3.2-0.8,6.3-0.5,9.4,0.5c0.1,0,0.2,0.1,0.3,0.1C58.1,16.3,57.7,18,57.4,19.7z"/>
	<path class="st7" d="M28.5,38.5c0.2-0.9,0.4-1.7,0.6-2.6c1.5-7.2,3.1-14.4,4.6-21.5c0-0.2,0.1-0.4,0.4-0.4c1.9,0,3.8,0,5.8,0
		c0.1,0,0.1,0,0.3,0c-0.2,0.8-0.3,1.6-0.5,2.4c-1.5,7-3,14-4.5,21c-0.2,1.1-0.2,1.1-1.3,1.1c-1.6,0-3.2,0-4.8,0
		C28.9,38.5,28.7,38.5,28.5,38.5z"/>
</g>
</svg>
