<?xml version="1.0" encoding="utf-8"?>
<!-- Generator: Adobe Illustrator 21.0.0, SVG Export Plug-In . SVG Version: 6.00 Build 0)  -->
<svg version="1.1" id="Слой_1" xmlns="http://www.w3.org/2000/svg" xmlns:xlink="http://www.w3.org/1999/xlink" x="0px" y="0px"
	 viewBox="0 0 50 50" style="enable-background:new 0 0 50 50;" xml:space="preserve">
<style type="text/css">
	.st0{fill:#C3D846;}
	.st1{fill:#E93F49;}
	.st2{fill:#FFFFFF;}
	.st3{fill:#009EFE;}
	.st4{fill:#009DFE;}
	.st5{fill:#FFCA05;}
	.st6{fill:#E90000;}
	.st7{fill:#191B73;}
	.st8{fill:#231F20;}
	.st9{fill:#FF5F00;}
	.st10{fill:#EB001B;}
	.st11{fill:#F79E1B;}
	.st12{fill:#A1B925;}
	.st13{fill:#A2B925;}
</style>
<g id="Layer_2">
	<g id="Layer_1-2">
		<path class="st8" d="M10,43.1v-2.5c0.1-0.8-0.6-1.5-1.4-1.6c-0.1,0-0.1,0-0.2,0c-0.6,0-1.1,0.2-1.4,0.7C6.7,39.3,6.2,39,5.6,39
			c-0.5,0-0.9,0.2-1.2,0.6v-0.5H3.6v4h0.9v-2.2c-0.1-0.5,0.3-1,0.8-1.1c0.1,0,0.1,0,0.2,0c0.6,0,0.9,0.4,0.9,1.1v2.2h0.9v-2.2
			c-0.1-0.5,0.3-1,0.8-1.1c0.1,0,0.1,0,0.2,0c0.6,0,0.9,0.4,0.9,1.1v2.2L10,43.1z M23,39.1h-1.4v-1.2h-0.9v1.2h-0.8v0.8h0.8v1.8
			c0,0.9,0.4,1.5,1.4,1.5c0.4,0,0.8-0.1,1.1-0.3l-0.3-0.7c-0.2,0.1-0.5,0.2-0.8,0.2c-0.4,0-0.6-0.3-0.6-0.7v-1.8H23L23,39.1z
			 M30.5,39c-0.4,0-0.8,0.2-1.1,0.6v-0.5h-0.9v4h0.9v-2.3c0-0.7,0.3-1,0.8-1c0.2,0,0.4,0,0.5,0.1l0.3-0.8C30.9,39.1,30.7,39,30.5,39
			L30.5,39z M19.2,39.5c-0.5-0.3-1.1-0.4-1.6-0.4c-1,0-1.7,0.5-1.7,1.3c0,0.7,0.5,1.1,1.4,1.2l0.4,0.1c0.5,0.1,0.7,0.2,0.7,0.4
			c0,0.3-0.3,0.5-0.9,0.5c-0.5,0-1-0.1-1.3-0.4l-0.4,0.7c0.5,0.4,1.1,0.5,1.7,0.5c1.2,0,1.8-0.5,1.8-1.3c0-0.8-0.5-1.1-1.4-1.2
			l-0.4-0.1c-0.4-0.1-0.7-0.1-0.7-0.4s0.3-0.5,0.8-0.5c0.4,0,0.9,0.1,1.3,0.3L19.2,39.5z M42.6,39c-0.4,0-0.8,0.2-1.1,0.6v-0.5h-0.9
			v4h0.9v-2.3c0-0.7,0.3-1,0.8-1c0.2,0,0.4,0,0.5,0.1l0.3-0.8C43,39.1,42.8,39,42.6,39L42.6,39z M31.3,41.1c0,1.1,0.8,2.1,2,2.1
			c0.1,0,0.1,0,0.2,0c0.5,0,1-0.1,1.4-0.5L34.5,42c-0.3,0.2-0.7,0.4-1.1,0.4c-0.7-0.1-1.2-0.7-1.2-1.4c0.1-0.6,0.6-1.1,1.2-1.2
			c0.4,0,0.7,0.1,1.1,0.4l0.4-0.7C34.5,39.2,34,39,33.5,39c-1.1-0.1-2.1,0.8-2.1,1.9C31.3,41,31.3,41.1,31.3,41.1L31.3,41.1z
			 M39.5,41.1v-2h-0.9v0.5c-0.3-0.4-0.8-0.6-1.3-0.6c-1.2,0-2.1,0.9-2.1,2.1s0.9,2.1,2.1,2.1c0.5,0,1-0.2,1.3-0.6v0.5h0.9V41.1z
			 M36.3,41.1c0-0.7,0.6-1.2,1.3-1.1c0.7,0,1.2,0.6,1.1,1.3c0,0.6-0.6,1.1-1.2,1.1C36.8,42.4,36.3,41.9,36.3,41.1
			C36.3,41.2,36.3,41.2,36.3,41.1z M25.7,39c-1.2,0-2.1,1-2.1,2.1c0,1.2,1,2.1,2.1,2.1l0,0c0.6,0,1.2-0.2,1.7-0.5L27,42
			c-0.3,0.3-0.7,0.4-1.2,0.4c-0.6,0.1-1.1-0.4-1.2-1h3c0-0.1,0-0.2,0-0.3C27.7,39.9,26.9,39,25.7,39L25.7,39z M25.7,39.8
			c0.5,0,1,0.4,1,1l0,0h-2.1C24.7,40.2,25.2,39.8,25.7,39.8L25.7,39.8z M47.6,41.1v-3.6h-0.8v2.1C46.5,39.2,46,39,45.5,39
			c-1.2,0-2.1,0.9-2.1,2.1s0.9,2.1,2.1,2.1c0.5,0,1-0.2,1.3-0.6v0.5h0.8V41.1z M49.1,42.6c0.1,0,0.1,0,0.2,0c0,0,0.1,0,0.1,0.1
			c0,0,0.1,0.1,0.1,0.1c0,0.1,0,0.2,0,0.3c0,0-0.1,0.1-0.1,0.1c0,0-0.1,0.1-0.1,0.1c-0.1,0-0.1,0-0.2,0c-0.2,0-0.3-0.1-0.4-0.2
			c0-0.1,0-0.2,0-0.3c0,0,0.1-0.1,0.1-0.1c0,0,0.1-0.1,0.1-0.1C49,42.6,49,42.6,49.1,42.6L49.1,42.6z M49.1,43.3c0,0,0.1,0,0.1,0
			c0,0,0.1,0,0.1-0.1c0.1-0.1,0.1-0.3,0-0.4c0,0-0.1-0.1-0.1-0.1c0,0-0.1,0-0.1,0c0,0-0.1,0-0.1,0c0,0-0.1,0-0.1,0.1
			c-0.1,0.1-0.1,0.3,0,0.4c0,0,0.1,0.1,0.1,0.1C49,43.3,49.1,43.3,49.1,43.3L49.1,43.3z M49.1,42.8c0,0,0.1,0,0.1,0c0,0,0,0.1,0,0.1
			c0,0,0,0.1,0,0.1c0,0-0.1,0-0.1,0l0.1,0.1h-0.1L49.1,43h0v0.1h-0.1v-0.4L49.1,42.8z M49,42.8v0.1h0.1c0,0,0,0,0.1,0c0,0,0,0,0,0
			c0,0,0,0,0,0C49.1,42.9,49.1,42.9,49,42.8L49,42.8z M44.4,41.1c0-0.7,0.6-1.2,1.3-1.1s1.2,0.6,1.1,1.3c0,0.6-0.6,1.1-1.2,1.1
			C44.9,42.4,44.4,41.9,44.4,41.1C44.4,41.2,44.4,41.2,44.4,41.1z M14.9,41.1v-2H14v0.5c-0.3-0.4-0.8-0.6-1.3-0.6
			c-1.2,0-2.1,0.9-2.1,2.1s0.9,2.1,2.1,2.1c0.5,0,1-0.2,1.3-0.6v0.5h0.9L14.9,41.1z M11.6,41.1c0-0.7,0.6-1.2,1.3-1.1
			c0.7,0,1.2,0.6,1.1,1.3c0,0.6-0.6,1.1-1.2,1.1c-0.7,0-1.2-0.5-1.2-1.2C11.6,41.2,11.6,41.2,11.6,41.1L11.6,41.1z"/>
		<g id="_Group_">
			<rect x="18.9" y="8.5" class="st9" width="13.2" height="23.8"/>
			<path id="_Path_" class="st10" d="M19.8,20.4c0-4.6,2.1-9,5.8-11.9C19,3.4,9.5,4.5,4.3,11.1s-4,16.1,2.5,21.2
				c5.5,4.3,13.2,4.3,18.7,0C21.9,29.4,19.7,25.1,19.8,20.4z"/>
			<path class="st11" d="M50,20.4c0,8.4-6.8,15.1-15.1,15.1c-3.4,0-6.7-1.1-9.3-3.2c6.6-5.2,7.7-14.7,2.5-21.2
				c-0.7-0.9-1.6-1.8-2.5-2.5c6.6-5.2,16.1-4,21.2,2.5C48.9,13.7,50,17,50,20.4L50,20.4z"/>
			<path class="st11" d="M48.6,29.8v-0.5h0.2v-0.1h-0.5v0.1h0.2L48.6,29.8L48.6,29.8z M49.5,29.8v-0.6h-0.2l-0.2,0.4L49,29.2h-0.1
				v0.6H49v-0.4l0.2,0.4h0.1l0.2-0.4L49.5,29.8L49.5,29.8z"/>
		</g>
	</g>
</g>
</svg>
