<?xml version="1.0" encoding="utf-8"?>
<!-- Generator: Adobe Illustrator 22.1.0, SVG Export Plug-In . SVG Version: 6.00 Build 0)  -->
<svg version="1.1" id="Слой_1" xmlns="http://www.w3.org/2000/svg" xmlns:xlink="http://www.w3.org/1999/xlink" x="0px" y="0px"
	 viewBox="0 0 218.6 69" style="enable-background:new 0 0 218.6 69;" xml:space="preserve">
<style type="text/css">
	.st0{fill:#C3D846;}
	.st1{fill:#E93F49;}
</style>
<g>
	<path class="st0" d="M12.9,4.1H5.6c-1.9,0-3.5,1.6-3.5,3.5v52.7c0,1.9,1.6,3.5,3.5,3.5h7.3c1.9,0,3.5-1.6,3.5-3.5V7.6
		C16.4,5.7,14.9,4.1,12.9,4.1z"/>
	<path class="st0" d="M49.6,4.1H29.4c-1.9,0-3.5,1.6-3.5,3.5v52.7c0,1.9,1.6,3.5,3.5,3.5h20.3c18.9,0,31.6-12,31.6-29.8
		C81.3,16.2,68.6,4.1,49.6,4.1z M66.7,34c0,10-7,17-17.1,17h-9.5V17h9.5C60.2,17,66.7,23.5,66.7,34z"/>
	<path class="st0" d="M124.4,4.1H88.5c-1.9,0-3.5,1.6-3.5,3.5v52.7c0,1.9,1.6,3.5,3.5,3.5h35.8c1.9,0,3.5-1.6,3.5-3.5v-5.8
		c0-1.9-1.6-3.5-3.5-3.5H99.3V40h24.5c1.9,0,3.5-1.6,3.5-3.5v-5.8c0-1.9-1.6-3.5-3.5-3.5H99.3V17h25.1c1.9,0,3.5-1.6,3.5-3.5V7.6
		C127.9,5.7,126.3,4.1,124.4,4.1z"/>
	<path class="st0" d="M193.9,59.1L173.6,6.4c-0.5-1.3-1.8-2.2-3.3-2.2h-12c-1.5,0-2.7,0.9-3.3,2.2l-20.4,52.7
		c-0.4,1.1-0.3,2.3,0.4,3.2c0.7,1,1.7,1.5,2.9,1.5h8.6c1.5,0,2.8-0.9,3.3-2.3l2.8-7.5h23.4l2.7,7.5c0.5,1.4,1.8,2.3,3.3,2.3h8.6
		c1.2,0,2.2-0.6,2.9-1.5S194.4,60.2,193.9,59.1z M172,41.3h-15.2l7.6-20.9L172,41.3z"/>
</g>
<path class="st0" d="M212.2,4.1h-7.5c-1.9,0-3.5,1.6-3.5,3.5v33.2c0,1.9,1.6,3.5,3.5,3.5h7.5c1.9,0,3.5-1.6,3.5-3.5V7.6
	C215.7,5.7,214.2,4.1,212.2,4.1z"/>
<path class="st1" d="M208.5,47.5c-4.8,0-8.7,3.9-8.7,8.7s3.9,8.7,8.7,8.7c4.8,0,8.7-3.9,8.7-8.7S213.3,47.5,208.5,47.5z"/>
</svg>
