<?xml version="1.0" encoding="utf-8"?>
<!-- Generator: Adobe Illustrator 21.0.0, SVG Export Plug-In . SVG Version: 6.00 Build 0)  -->
<svg version="1.1" id="Слой_1" xmlns="http://www.w3.org/2000/svg" xmlns:xlink="http://www.w3.org/1999/xlink" x="0px" y="0px"
	 viewBox="0 0 50 50" style="enable-background:new 0 0 50 50;" xml:space="preserve">
<style type="text/css">
	.st0{fill:#C3D846;}
	.st1{fill:#E93F49;}
	.st2{fill:#FFFFFF;}
	.st3{fill:#009EFE;}
	.st4{fill:#009DFE;}
	.st5{fill:#FFCA05;}
	.st6{fill:#E90000;}
	.st7{fill:#191B73;}
	.st8{fill:#231F20;}
	.st9{fill:#FF5F00;}
	.st10{fill:#EB001B;}
	.st11{fill:#F79E1B;}
	.st12{fill:#A1B925;}
	.st13{fill:#A2B925;}
</style>
<g id="_x39_79ujE.tif">
	<g>
		<path d="M19.8,2.8c3.5,0,6.9,0,10.4,0c0,0,0.1,0,0.1,0c0.7,0,1.4,0,2.1,0c0.9,0,1.8,0.1,2.7,0.1c1,0.1,2.1,0.3,3.1,0.5
			c2.3,0.6,4.2,1.9,5.7,3.7c1.3,1.5,2,3.3,2.4,5.2c0.2,1,0.3,1.9,0.4,2.9c0.1,1.6,0.1,3.2,0.1,4.8c0,0.6,0,1.1,0,1.7
			c0,2.4,0,4.7,0,7.1c0,1,0,2-0.1,3.1c0,1.1-0.1,2.3-0.2,3.4c-0.1,1.1-0.4,2.1-0.7,3.1c-0.8,2.2-2.1,4-4,5.5c-1.4,1.1-3,1.7-4.7,2.1
			c-1,0.2-1.9,0.3-2.9,0.4c-1.5,0.1-3,0.1-4.5,0.1c-0.8,0-1.5,0-2.3,0c-2.5,0-5.1,0-7.6,0c-1.1,0-2.3-0.1-3.4-0.1
			c-1.1,0-2.2-0.1-3.3-0.3c-1.3-0.2-2.6-0.7-3.8-1.3c-2.3-1.3-4-3.2-5-5.6c-0.6-1.6-0.9-3.2-1-4.9c-0.1-1.3-0.1-2.6-0.1-3.9
			c0-0.2,0-0.3,0-0.5c0-3.5,0-6.9,0-10.4c0,0,0-0.1,0-0.1c0-0.7,0-1.4,0-2.2c0-1.1,0.1-2.2,0.2-3.3c0.1-1.2,0.4-2.3,0.8-3.4
			c1.1-2.9,3-5,5.8-6.3c1.7-0.8,3.5-1.2,5.4-1.3c1.3-0.1,2.6-0.1,3.9-0.1C19.5,2.9,19.6,2.8,19.8,2.8z M7.1,24.7
			C7.1,24.7,7.1,24.7,7.1,24.7c0,2.3,0,4.5,0,6.8c0,1.1,0.1,2.1,0.2,3.2c0.1,0.8,0.2,1.7,0.5,2.5c0.8,2.2,2.2,3.8,4.4,4.6
			c1.1,0.4,2.3,0.6,3.6,0.7c1.4,0.1,2.9,0.1,4.3,0.1c0.8,0,1.6,0,2.4,0c2.7,0,5.3,0,8,0c1.3,0,2.6-0.1,3.9-0.1
			c0.9,0,1.8-0.2,2.7-0.4c1.7-0.5,3-1.4,4.1-2.8c0.6-0.8,1-1.8,1.3-2.8c0.3-1,0.4-2.1,0.4-3.2c0-1.3,0.1-2.6,0.1-3.8
			c0-0.7,0-1.4,0-2c0-3.4,0-6.8-0.1-10.2c0-0.9-0.1-1.8-0.2-2.7c-0.1-0.9-0.3-1.9-0.6-2.7c-0.7-1.9-2-3.2-3.8-4
			C37,7.3,35.8,7,34.5,6.9c-1-0.1-2-0.1-3.1-0.1c-1,0-2,0-3,0c-1.4,0-2.9,0-4.3,0c-2.2,0-4.4,0-6.5,0.1c-0.9,0-1.9,0.1-2.8,0.2
			c-0.9,0.1-1.8,0.3-2.6,0.6C10.2,8.4,8.8,9.8,8,11.8c-0.5,1.2-0.7,2.4-0.7,3.6c-0.1,1.6-0.1,3.2-0.1,4.8
			C7.1,21.7,7.1,23.2,7.1,24.7z"/>
		<path d="M13.8,24.7c0-6.2,5.1-11.3,11.4-11.2c6.1,0.1,11.1,5.1,11,11.3c-0.1,6.2-5.1,11.2-11.3,11.1
			C18.7,35.8,13.8,30.8,13.8,24.7z M17.7,24.7c0,4,3.3,7.3,7.2,7.3c4,0,7.3-3.2,7.3-7.2c0-4-3.2-7.3-7.2-7.3
			C21,17.3,17.7,20.6,17.7,24.7z"/>
		<path d="M39.3,13c0,1.5-1.2,2.6-2.6,2.6c-1.4,0-2.6-1.2-2.6-2.6c0-1.4,1.2-2.6,2.6-2.6C38.1,10.4,39.3,11.6,39.3,13z"/>
	</g>
</g>
</svg>
