<?xml version="1.0" encoding="utf-8"?>
<!-- Generator: Adobe Illustrator 21.0.0, SVG Export Plug-In . SVG Version: 6.00 Build 0)  -->
<svg version="1.1" id="Слой_1" xmlns="http://www.w3.org/2000/svg" xmlns:xlink="http://www.w3.org/1999/xlink" x="0px" y="0px"
	 viewBox="0 0 50 50" style="enable-background:new 0 0 50 50;" xml:space="preserve">
<style type="text/css">
	.st0{fill:#C3D846;}
	.st1{fill:#E93F49;}
	.st2{fill:#FFFFFF;}
	.st3{fill:#009EFE;}
	.st4{fill:#009DFE;}
	.st5{fill:#FFCA05;}
	.st6{fill:#E90000;}
	.st7{fill:#191B73;}
	.st8{fill:#231F20;}
	.st9{fill:#FF5F00;}
	.st10{fill:#EB001B;}
	.st11{fill:#F79E1B;}
	.st12{fill:#A1B925;}
	.st13{fill:#A2B925;}
</style>
<g id="_x32_yykLA.tif_1_">
	<g>
		<path class="st3" d="M49.1,19.8C49,20,49,20.1,49,20.2c-0.3,1.1-1,1.9-2,2.3c-2,0.7-4,1.3-6,2c-1.6,0.5-3.2,1-4.8,1.6
			c-1.2,0.4-2.3,0.2-3.3-0.7c-1.7-1.6-1-4.5,1.2-5.2c2.8-0.9,5.6-1.8,8.4-2.7c0.8-0.3,1.6-0.5,2.4-0.8c1.8-0.6,3.7,0.5,4.1,2.3
			c0,0.1,0,0.2,0.1,0.3C49.1,19.4,49.1,19.6,49.1,19.8z"/>
		<path class="st3" d="M18,23c0,1.6-1.2,3-2.9,3.1c-0.5,0-1,0-1.5-0.2c-3.5-1.2-7.1-2.3-10.6-3.5c-1.4-0.4-2.2-1.7-2.2-3.1
			c0-1.6,1.3-2.9,2.8-3c0.5-0.1,1.1,0.1,1.6,0.2c3.5,1.1,7,2.3,10.5,3.4C17.2,20.5,18,21.7,18,23z"/>
		<path class="st3" d="M41.1,44.1c0,1.6-1.2,3-2.9,3.1c-1.2,0.1-2.1-0.3-2.8-1.3c-1.8-2.5-3.7-5-5.5-7.5c-0.4-0.6-0.8-1.1-1.2-1.7
			c-1.2-1.7-0.6-3.9,1.3-4.8c1.3-0.6,2.9-0.2,3.8,1c1.5,2,2.9,4,4.4,6c0.8,1.1,1.5,2.1,2.3,3.2C40.9,42.8,41.1,43.4,41.1,44.1z"/>
		<path class="st3" d="M8.9,44.1c0-0.7,0.2-1.3,0.6-1.9c1.8-2.5,3.6-5,5.4-7.5c0.4-0.5,0.8-1.1,1.2-1.6c0.7-1,1.6-1.4,2.8-1.3
			c1.4,0.1,2.7,1.2,2.9,2.6c0.1,0.9-0.1,1.7-0.6,2.4c-2.2,3-4.4,6.1-6.6,9.1c-0.6,0.9-1.5,1.3-2.6,1.3c-1.5,0-2.9-1.2-3.1-2.7
			C8.9,44.4,8.9,44.3,8.9,44.1z"/>
		<path class="st4" d="M21.9,10c0-1.9,0-3.8,0-5.7c0-1.5,1-2.7,2.5-3.1c1.8-0.4,3.6,0.8,3.8,2.7c0,0.1,0,0.3,0,0.4
			c0,3.8,0,7.6,0,11.3c0,1.5-1,2.8-2.5,3.1c-1.7,0.4-3.4-0.8-3.7-2.5c0-0.2-0.1-0.4-0.1-0.7C21.9,13.7,21.9,11.9,21.9,10z"/>
	</g>
</g>
</svg>
