<svg xmlns="http://www.w3.org/2000/svg" viewBox="0 0 435.43688 71.65154"><defs><style>.cls-1{fill:#a6c639;}.cls-2{fill:#ef3d49;}</style></defs><title>01 LOGO MAIN</title><g id="Слой_2" data-name="Слой 2"><g id="_01_LOGO_MAIN" data-name="01 LOGO MAIN"><path class="cls-1" d="M80.03229,4.973V70.93979h-13.247V65.4279q-5.156,6.22364-14.93841,6.22364a24.80872,24.80872,0,0,1-12.2212-3.02285,21.64606,21.64606,0,0,1-8.58289-8.62476,26.30007,26.30007,0,0,1-3.11077-12.979,26.31387,26.31387,0,0,1,3.11077-12.9811,21.66722,21.66722,0,0,1,8.58289-8.62266,24.83124,24.83124,0,0,1,12.2212-3.02285q9.15648,0,14.31458,5.77775V4.973ZM62.96281,56.67126q3.46665-3.60167,3.46665-9.64633T62.96281,37.3786A11.5877,11.5877,0,0,0,54.25013,33.778a11.70117,11.70117,0,0,0-8.80479,3.60063q-3.46665,3.60167-3.46665,9.64633,0,6.0478,3.46665,9.64633a11.70885,11.70885,0,0,0,8.80479,3.60063A11.59535,11.59535,0,0,0,62.96281,56.67126Z"/><path class="cls-1" d="M302.76648,68.49471a23.4422,23.4422,0,0,1-9.37838-8.75664,24.12769,24.12769,0,0,1-3.37873-12.71314,24.12245,24.12245,0,0,1,3.37873-12.71314,23.4422,23.4422,0,0,1,9.37838-8.75664,30.59782,30.59782,0,0,1,27.07169,0,23.52811,23.52811,0,0,1,9.33441,8.75664,24.12245,24.12245,0,0,1,3.37873,12.71314,24.12769,24.12769,0,0,1-3.37873,12.71314,23.52811,23.52811,0,0,1-9.33441,8.75664,30.59782,30.59782,0,0,1-27.07169,0ZM325.082,56.67126q3.42269-3.60167,3.42269-9.64633T325.082,37.3786a11.54724,11.54724,0,0,0-8.75664-3.60063,11.69654,11.69654,0,0,0-8.80269,3.60063q-3.46665,3.60167-3.46665,9.64633,0,6.0478,3.46665,9.64633a11.70421,11.70421,0,0,0,8.80269,3.60063A11.55476,11.55476,0,0,0,325.082,56.67126Z"/><path class="cls-1" d="M371.38968,24.17561a24.91519,24.91519,0,0,1,9.73425-1.77729V35.19939q-2.3111-.17584-3.11077-.17794-5.95673,0-9.33441,3.33477Q365.29688,41.691,365.3,48.35842V70.93979H351.43133V23.11007h13.247v6.31156A15.42489,15.42489,0,0,1,371.38968,24.17561Z"/><path class="cls-1" d="M235.06634,44.224a82.01329,82.01329,0,0,0-9.60237-2.0892,42.49447,42.49447,0,0,1-7.64505-1.68936,3.17762,3.17762,0,0,1-2.40112-3.11077,3.48282,3.48282,0,0,1,2.22318-3.20079c4.851-2.33674,13.03846-1.93049,18.41579-.0089l7.74161-7.39175a42.803,42.803,0,0,0-9.39774-3.22329,46.586,46.586,0,0,0-10.09222-1.11159A32.68258,32.68258,0,0,0,212.441,24.35355a16.88543,16.88543,0,0,0-7.64714,5.46793,13.10024,13.10024,0,0,0-2.623,8.047q0,5.42292,2.801,8.3568a15.02525,15.02525,0,0,0,6.62348,4.08839,71.16762,71.16762,0,0,0,9.69029,2.04524,35.51794,35.51794,0,0,1,7.37919,1.51143q2.40216.88864,2.40112,2.93284,0,4.35843-8.80269,4.35634a32.44768,32.44768,0,0,1-8.88852-1.28743,35.05857,35.05857,0,0,1-3.37977-1.15712l-8.463,8.08048a31.42564,31.42564,0,0,0,8.552,3.38867,46.47513,46.47513,0,0,0,11.64761,1.46746,34.70674,34.70674,0,0,0,12.13537-1.91126,17.05267,17.05267,0,0,0,7.779-5.38,12.62836,12.62836,0,0,0,2.667-7.91091q0-5.24708-2.757-8.181A14.43379,14.43379,0,0,0,235.06634,44.224Z"/><path class="cls-1" d="M287.29125,67.37737,279.58288,60.017a9.7102,9.7102,0,0,1-3.44415.61075,5.76256,5.76256,0,0,1-4.4003-1.6454,6.52594,6.52594,0,0,1-1.55539-4.66825V34.8456h13.22864v-10.67H270.183V12.53009H256.29761V24.17561l-8.26835,7.89448-1.4133,1.34939V34.8456h9.6984V54.492q0,8.44682,4.66616,12.80316,4.6693,4.35529,13.203,4.35634a25.47426,25.47426,0,0,0,6.2676-.75571,18.898,18.898,0,0,0,6.86212-3.485Z"/><path class="cls-2" d="M2.70186,14.91267A8.11634,8.11634,0,0,1,0,8.7077a8.11634,8.11634,0,0,1,2.70186-6.205A9.90013,9.90013,0,0,1,9.70808,0a10.15432,10.15432,0,0,1,7.005,2.40139,7.70371,7.70371,0,0,1,2.703,6.00466,8.5034,8.5034,0,0,1-2.703,6.45713,9.79458,9.79458,0,0,1-7.005,2.54986A9.89868,9.89868,0,0,1,2.70186,14.91267Z"/><polygon class="cls-1" points="14.994 22.367 2.774 34.035 2.774 70.94 16.642 70.94 16.642 22.367 14.994 22.367"/><path class="cls-1" d="M127.96825,58.06833a14.3873,14.3873,0,0,1-2.64133,1.35756,18.32143,18.32143,0,0,1-6.62348,1.11159,15.31508,15.31508,0,0,1-9.06855-2.577,11.25912,11.25912,0,0,1-4.6222-7.02541h36.1842q.26377-3.46665.26586-3.73251a25.85168,25.85168,0,0,0-3.24475-13.113,22.087,22.087,0,0,0-8.93458-8.66872,28.34808,28.34808,0,0,0-25.7382.134,23.33146,23.33146,0,0,0-9.15648,8.8006A24.443,24.443,0,0,0,91.054,47.02466,24.12769,24.12769,0,0,0,94.43271,59.7378a23.11331,23.11331,0,0,0,9.60027,8.75664,31.226,31.226,0,0,0,14.31458,3.15683q12.9756,0,19.7341-7.73245l-.03035-.02878ZM108.7452,35.555a11.95082,11.95082,0,0,1,7.913-2.667,11.68662,11.68662,0,0,1,7.823,2.713,11.467,11.467,0,0,1,3.91254,7.24521h-23.559A11.35756,11.35756,0,0,1,108.7452,35.555Z"/><path class="cls-1" d="M187.51518,27.688q-5.95987-5.2879-17.06948-5.29a42.04263,42.04263,0,0,0-11.24777,1.51143,30.09449,30.09449,0,0,0-9.36817,4.26l11.19858,6.46543.0369-.01361a24.15383,24.15383,0,0,1,7.51317-1.19951q5.51084,0,8.26679,2.44508a8.83894,8.83894,0,0,1,2.757,6.97935H168.57839q-10.491,0-15.51409,3.82253a12.46258,12.46258,0,0,0-5.02413,10.49,13.41333,13.41333,0,0,0,2.13526,7.46921,14.2574,14.2574,0,0,0,6.17759,5.156,22.64717,22.64717,0,0,0,9.55841,1.8673q10.66686,0,14.58044-6.66744v5.95569h12.979V43.64593Q193.47086,32.97594,187.51518,27.688Zm-7.913,28.13722a9.005,9.005,0,0,1-3.91254,4.84619,12.07675,12.07675,0,0,1-6.31156,1.6454,9.39968,9.39968,0,0,1-5.73379-1.55748,4.983,4.983,0,0,1-2.0892-4.22236q0-5.6019,8.53474-5.6019h9.51235Z"/><path class="cls-1" d="M420.19937,59.002c-.29935.14183-.59138.30668-.89832.42391a18.32143,18.32143,0,0,1-6.62348,1.11159,15.31508,15.31508,0,0,1-9.06855-2.577,11.25912,11.25912,0,0,1-4.6222-7.02541H435.171q.26377-3.46665.26586-3.73251a25.85168,25.85168,0,0,0-3.24475-13.113,22.087,22.087,0,0,0-8.93458-8.66872,28.34808,28.34808,0,0,0-25.7382.134,23.33146,23.33146,0,0,0-9.15648,8.8006,24.443,24.443,0,0,0-3.33477,12.66918,24.12769,24.12769,0,0,0,3.37873,12.71314,23.11331,23.11331,0,0,0,9.60027,8.75664,31.226,31.226,0,0,0,14.31458,3.15683c7.91274,0,14.05369-2.20434,18.49639-6.51881Zm-17.48-23.447a11.95082,11.95082,0,0,1,7.913-2.667,11.68662,11.68662,0,0,1,7.823,2.713,11.467,11.467,0,0,1,3.91254,7.24521h-23.559A11.35756,11.35756,0,0,1,402.71933,35.555Z"/></g></g></svg>