<?xml version="1.0" encoding="utf-8"?>
<!-- Generator: Adobe Illustrator 21.0.0, SVG Export Plug-In . SVG Version: 6.00 Build 0)  -->
<svg version="1.1" id="Слой_1" xmlns="http://www.w3.org/2000/svg" xmlns:xlink="http://www.w3.org/1999/xlink" x="0px" y="0px"
	 viewBox="0 0 35 35" style="enable-background:new 0 0 35 35;" xml:space="preserve">
<style type="text/css">
	.st0{fill:#C3D846;}
	.st1{fill:#E93F49;}
	.st2{fill:#FFFFFF;}
	.st3{fill:#009EFE;}
	.st4{fill:#009DFE;}
	.st5{fill:#FFCA05;}
	.st6{fill:#E90000;}
	.st7{fill:#191B73;}
	.st8{fill:#231F20;}
	.st9{fill:#FF5F00;}
	.st10{fill:#EB001B;}
	.st11{fill:#F79E1B;}
	.st12{fill:#A1B925;}
	.st13{fill:#A2B925;}
</style>
<g>
	<path class="st12" d="M17.1,8.7c-0.5,0-0.8,0.4-0.8,0.8c0,0.5,0.4,0.8,0.8,0.8c4.1,0,7.5,3.4,7.5,7.5c0,0.5,0.4,0.8,0.8,0.8
		c0.5,0,0.8-0.4,0.8-0.8C26.3,12.8,22.1,8.7,17.1,8.7z"/>
	<path class="st12" d="M17.1,3.7c-0.5,0-0.8,0.4-0.8,0.8s0.4,0.8,0.8,0.8c6.9,0,12.5,5.6,12.5,12.5c0,0.5,0.4,0.8,0.8,0.8
		c0.5,0,0.8-0.4,0.8-0.8C31.2,10.1,24.9,3.7,17.1,3.7z"/>
</g>
<path class="st12" d="M13.8,21.6c0.7,0.7,1.4,1.3,2.1,1.7c0.2,0.2,0.5,0.3,0.6,0.4c0.1,0.1,0.2,0.1,0.3,0.1c0.4,0.3,1.1,0.2,1.5-0.2
	l1.8-1.8c0.6-0.6,1.7-0.7,2.4-0.1l4.5,3.7c0.7,0.6,0.8,1.6,0.1,2.3l-2.8,2.8c-2.3,2.3-10.1-0.9-14.3-5.2c-4.2-4.2-7.4-12-5.2-14.3
	l2.8-2.8c0.7-0.7,1.7-0.6,2.3,0.1l3.7,4.5c0.6,0.7,0.5,1.8-0.1,2.4l-1.8,1.8c-0.4,0.4-0.4,1-0.2,1.5c0,0,0.1,0.1,0.1,0.2
	c0.1,0.2,0.2,0.4,0.4,0.6C12.5,20.2,13.1,20.9,13.8,21.6"/>
</svg>
