<svg xmlns="http://www.w3.org/2000/svg" xmlns:xlink="http://www.w3.org/1999/xlink" width="52" height="47" viewBox="0 0 52 47">
  <metadata><?xpacket begin="﻿" id="W5M0MpCehiHzreSzNTczkc9d"?>
<x:xmpmeta xmlns:x="adobe:ns:meta/" x:xmptk="Adobe XMP Core 5.6-c142 79.160924, 2017/07/13-01:06:39        ">
   <rdf:RDF xmlns:rdf="http://www.w3.org/1999/02/22-rdf-syntax-ns#">
      <rdf:Description rdf:about=""/>
   </rdf:RDF>
</x:xmpmeta>
                                                                                                    
                                                                                                    
                                                                                                    
                                                                                                    
                                                                                                    
                                                                                                    
                                                                                                    
                                                                                                    
                                                                                                    
                                                                                                    
                                                                                                    
                                                                                                    
                                                                                                    
                                                                                                    
                                                                                                    
                                                                                                    
                                                                                                    
                                                                                                    
                                                                                                    
                                                                                                    
                           
<?xpacket end="w"?></metadata>
<defs>
    <style>
      .cls-1 {
        fill: #a1b925;
        fill-rule: evenodd;
        filter: url(#filter);
      }
    </style>
    <filter id="filter" x="836" y="615" width="52" height="47" filterUnits="userSpaceOnUse">
      <feGaussianBlur result="blur" in="SourceAlpha"/>
      <feFlood result="flood" flood-opacity="0.15"/>
      <feComposite result="composite" operator="out" in2="blur"/>
      <feOffset result="offset" dy="2"/>
      <feComposite result="composite-2" operator="in" in2="SourceAlpha"/>
      <feBlend result="blend" mode="multiply" in2="SourceGraphic"/>
    </filter>
  </defs>
  <path id="_" data-name="%" class="cls-1" d="M887.189,644.734a9.7,9.7,0,0,0-2.306-3.6,9.863,9.863,0,0,0-3.578-2.2,14.825,14.825,0,0,0-9.589.1,10.607,10.607,0,0,0-6.313,6.313,14.388,14.388,0,0,0-.874,5.181,12.9,12.9,0,0,0,.842,4.8,10.411,10.411,0,0,0,2.338,3.6,10.122,10.122,0,0,0,3.594,2.28,12.8,12.8,0,0,0,4.579.8,13.834,13.834,0,0,0,4.914-.845,10.614,10.614,0,0,0,3.833-2.439,11.156,11.156,0,0,0,2.481-3.874,14.17,14.17,0,0,0,.89-5.181A13.927,13.927,0,0,0,887.189,644.734Zm-7.808,7.652a4.309,4.309,0,0,1-.763,1.515,2.693,2.693,0,0,1-1.082.813,3.488,3.488,0,0,1-2.5.016,2.407,2.407,0,0,1-1.034-.781,4.286,4.286,0,0,1-.716-1.451,7.831,7.831,0,0,1-.27-2.232,8.325,8.325,0,0,1,.287-2.359,4.653,4.653,0,0,1,.763-1.563,2.73,2.73,0,0,1,1.1-.861,3.373,3.373,0,0,1,1.288-.255,3,3,0,0,1,1.081.223,2.667,2.667,0,0,1,1.05.782,4.34,4.34,0,0,1,.779,1.482,7.751,7.751,0,0,1,.3,2.36A8.021,8.021,0,0,1,879.381,652.386Zm2.354-36.748H871.716l-29.323,45.725h10.018Zm-23.138,6a10.03,10.03,0,0,0-2.306-3.619,9.813,9.813,0,0,0-3.578-2.248,13.416,13.416,0,0,0-4.659-.766,13.8,13.8,0,0,0-4.93.845,10.4,10.4,0,0,0-3.8,2.455,11.2,11.2,0,0,0-2.449,3.907,14.494,14.494,0,0,0-.875,5.2,12.893,12.893,0,0,0,.843,4.8,10.387,10.387,0,0,0,2.338,3.6,10.14,10.14,0,0,0,3.593,2.28,12.81,12.81,0,0,0,4.58.8,13.706,13.706,0,0,0,4.9-.845,10.656,10.656,0,0,0,3.817-2.439,10.973,10.973,0,0,0,2.464-3.875,14.38,14.38,0,0,0,.875-5.181A13.769,13.769,0,0,0,858.6,621.633Zm-7.824,7.588a4.291,4.291,0,0,1-.731,1.531,2.768,2.768,0,0,1-1.05.829,3.127,3.127,0,0,1-1.256.255,3.417,3.417,0,0,1-1.225-.223,2.407,2.407,0,0,1-1.033-.782,4.29,4.29,0,0,1-.716-1.45,7.831,7.831,0,0,1-.27-2.232,8.341,8.341,0,0,1,.286-2.36,4.666,4.666,0,0,1,.763-1.562,2.709,2.709,0,0,1,1.1-.861,3.351,3.351,0,0,1,1.288-.255,3.053,3.053,0,0,1,1.065.207,2.377,2.377,0,0,1,1,.749,4.525,4.525,0,0,1,.747,1.467,7.753,7.753,0,0,1,.3,2.36A8.665,8.665,0,0,1,850.773,629.221Z" transform="translate(-836 -615)"/>
</svg>
