<?xml version="1.0" encoding="utf-8"?>
<!-- Generator: Adobe Illustrator 21.0.0, SVG Export Plug-In . SVG Version: 6.00 Build 0)  -->
<svg version="1.1" id="Слой_1" xmlns="http://www.w3.org/2000/svg" xmlns:xlink="http://www.w3.org/1999/xlink" x="0px" y="0px"
	 viewBox="0 0 35 35" style="enable-background:new 0 0 35 35;" xml:space="preserve">
<style type="text/css">
	.st0{fill:#C3D846;}
	.st1{fill:#E93F49;}
	.st2{fill:#FFFFFF;}
	.st3{fill:#009EFE;}
	.st4{fill:#009DFE;}
	.st5{fill:#FFCA05;}
	.st6{fill:#E90000;}
	.st7{fill:#191B73;}
	.st8{fill:#231F20;}
	.st9{fill:#FF5F00;}
	.st10{fill:#EB001B;}
	.st11{fill:#F79E1B;}
	.st12{fill:#A1B925;}
	.st13{fill:#A2B925;}
</style>
<g>
	<path class="st12" d="M20.6,7.1c-3.5-3.5-9.2-3.5-12.8,0c-3.5,3.5-3.5,9.2,0,12.8c3.5,3.5,9.2,3.5,12.8,0
		C24.1,16.4,24.1,10.7,20.6,7.1z M18.3,17.7c-2.3,2.3-6,2.3-8.3,0c-2.3-2.3-2.3-6,0-8.3c2.3-2.3,6-2.3,8.3,0
		C20.6,11.6,20.6,15.4,18.3,17.7z"/>
	<path class="st12" d="M22.5,19.6l-1.9,0.3l-0.3,1.9l7.7,7.7l2.2-2.2L22.5,19.6z"/>
	<path class="st12" d="M20.6,7.1c-3.5-3.5-9.2-3.5-12.8,0c-3.5,3.5-3.5,9.2,0,12.8c3.5,3.5,9.2,3.5,12.8,0
		C24.1,16.4,24.1,10.7,20.6,7.1z M18.3,17.7c-2.3,2.3-6,2.3-8.3,0c-2.3-2.3-2.3-6,0-8.3c2.3-2.3,6-2.3,8.3,0
		C20.6,11.6,20.6,15.4,18.3,17.7z"/>
	<path class="st12" d="M22.5,19.6l-1.9,0.3l-0.3,1.9l7.7,7.7l2.2-2.2L22.5,19.6z"/>
</g>
</svg>
