<svg xmlns="http://www.w3.org/2000/svg" xmlns:xlink="http://www.w3.org/1999/xlink" width="0" height="0" style="position:absolute">
	
		<symbol id="cabinet_history_during" viewBox="0 0 35.12 17.156">
			<defs><style>.cls-1{fill:#cfcdd2;fill-rule:evenodd;filter:url(#filter)}</style><filter id="filter" x="1766.63" y="544" width="35.12" height="17.156" filterUnits="userSpaceOnUse"><feGaussianBlur result="blur" in="SourceAlpha"></feGaussianBlur><feFlood result="flood" flood-opacity=".15"></feFlood><feComposite result="composite" operator="out" in2="blur"></feComposite><feOffset result="offset" dy="2"></feOffset><feComposite result="composite-2" operator="in" in2="SourceAlpha"></feComposite><feBlend result="blend" mode="multiply" in2="SourceGraphic"></feBlend></filter></defs><path class="cls-1" d="M33.76 8.541l-3.86-.934-2.77-2.761c-.46-.468-1.03-1.027-1.24-1.245a1.539 1.539 0 0 0-.92-.395h-3.64a1.214 1.214 0 0 0-1.21 1.2v8.8a1.414 1.414 0 0 0 1.41 1.4h4.39a3.57 3.57 0 0 1 7.14 0h.66a1.414 1.414 0 0 0 1.41-1.4v-2.932a1.881 1.881 0 0 0-1.37-1.733zM22.54 5.128h2.19a.5.5 0 0 1 .28.129c.07.071.44.447.83.837l2.07 2.067c.39.39.26.709-.29.709h-5.08a.414.414 0 0 1-.41-.41V5.533a.4.4 0 0 1 .16-.322.426.426 0 0 1 .25-.083zM17.62 0H1.41A1.414 1.414 0 0 0 0 1.4v11.8a1.415 1.415 0 0 0 1.41 1.4h.58a3.57 3.57 0 0 1 7.14 0h8.49a1.406 1.406 0 0 0 1.4-1.4V1.4a1.405 1.405 0 0 0-1.4-1.4zm11.87 12.047a2.563 2.563 0 1 0 2.56 2.563 2.566 2.566 0 0 0-2.56-2.564zm0 3.844a1.281 1.281 0 1 1 1.28-1.281 1.288 1.288 0 0 1-1.28 1.28zM5.56 12.048a2.562 2.562 0 1 0 2.56 2.561 2.565 2.565 0 0 0-2.56-2.562zm0 3.843a1.281 1.281 0 1 1 1.28-1.281 1.288 1.288 0 0 1-1.28 1.28z"></path>
		</symbol>
	
		<symbol id="download-symbol" viewBox="0 0 438.533 438.533">
			<path d="M409.133 109.203c-19.608-33.592-46.205-60.189-79.798-79.796C295.736 9.801 259.058 0 219.273 0c-39.781 0-76.47 9.801-110.063 29.407-33.595 19.604-60.192 46.201-79.8 79.796C9.801 142.8 0 179.489 0 219.267c0 39.78 9.804 76.463 29.407 110.062 19.607 33.592 46.204 60.189 79.799 79.798 33.597 19.605 70.283 29.407 110.063 29.407s76.47-9.802 110.065-29.407c33.593-19.602 60.189-46.206 79.795-79.798 19.603-33.596 29.403-70.284 29.403-110.062.001-39.782-9.8-76.472-29.399-110.064zm-55.391 188.005c-13.894 23.791-32.736 42.633-56.527 56.534-23.791 13.894-49.771 20.834-77.945 20.834-28.167 0-54.149-6.94-77.943-20.834-23.791-13.901-42.633-32.743-56.527-56.534-13.897-23.791-20.843-49.772-20.843-77.941 0-28.171 6.949-54.152 20.843-77.943 13.891-23.791 32.738-42.637 56.527-56.53 23.791-13.895 49.772-20.84 77.943-20.84 28.173 0 54.154 6.945 77.945 20.84 23.791 13.894 42.634 32.739 56.527 56.53 13.895 23.791 20.838 49.772 20.838 77.943 0 28.169-6.943 54.15-20.838 77.941z"></path><path d="M310.633 219.267H255.82V118.763c0-2.666-.862-4.853-2.573-6.567-1.704-1.709-3.895-2.568-6.557-2.568h-54.823c-2.664 0-4.854.859-6.567 2.568-1.714 1.715-2.57 3.901-2.57 6.567v100.5h-54.819c-4.186 0-7.042 1.905-8.566 5.709-1.524 3.621-.854 6.947 1.999 9.996l91.363 91.361c2.096 1.711 4.283 2.567 6.567 2.567 2.281 0 4.471-.856 6.569-2.567l91.077-91.073c1.902-2.283 2.851-4.576 2.851-6.852 0-2.662-.855-4.853-2.573-6.57-1.709-1.712-3.899-2.567-6.565-2.567z"></path>
		</symbol>
	
</svg>
