<svg xmlns="http://www.w3.org/2000/svg" xmlns:xlink="http://www.w3.org/1999/xlink" width="42.85" height="43.844" viewBox="0 0 42.85 43.844">
  <metadata><?xpacket begin="﻿" id="W5M0MpCehiHzreSzNTczkc9d"?>
<x:xmpmeta xmlns:x="adobe:ns:meta/" x:xmptk="Adobe XMP Core 5.6-c142 79.160924, 2017/07/13-01:06:39        ">
   <rdf:RDF xmlns:rdf="http://www.w3.org/1999/02/22-rdf-syntax-ns#">
      <rdf:Description rdf:about=""/>
   </rdf:RDF>
</x:xmpmeta>
                                                                                                    
                                                                                                    
                                                                                                    
                                                                                                    
                                                                                                    
                                                                                                    
                                                                                                    
                                                                                                    
                                                                                                    
                                                                                                    
                                                                                                    
                                                                                                    
                                                                                                    
                                                                                                    
                                                                                                    
                                                                                                    
                                                                                                    
                                                                                                    
                                                                                                    
                                                                                                    
                           
<?xpacket end="w"?></metadata>
<defs>
    <style>
      .cls-1 {
        fill: #a1b925;
        fill-rule: evenodd;
        filter: url(#filter);
      }
    </style>
    <filter id="filter" x="1659.09" y="274.094" width="42.85" height="43.844" filterUnits="userSpaceOnUse">
      <feGaussianBlur result="blur" in="SourceAlpha"/>
      <feFlood result="flood" flood-opacity="0.15"/>
      <feComposite result="composite" operator="out" in2="blur"/>
      <feOffset result="offset" dy="2"/>
      <feComposite result="composite-2" operator="in" in2="SourceAlpha"/>
      <feBlend result="blend" mode="multiply" in2="SourceGraphic"/>
    </filter>
  </defs>
  <path class="cls-1" d="M1701.67,309.3l-12.99-13.293,6.07-6.21a1.146,1.146,0,0,0,.99-0.332l2.55-2.61a1.186,1.186,0,0,0,.32-1.018l1.44-1.468a3.247,3.247,0,0,0,0-4.5l-3.76-3.849a3.077,3.077,0,0,0-4.41,0l-1.41,1.443a1.129,1.129,0,0,0-1.04.323l-2.56,2.612a1.2,1.2,0,0,0-.31,1.063l-6.05,6.189-13.01-13.317a0.825,0.825,0,0,0-1.18,0l-7,7.165a0.874,0.874,0,0,0,0,1.2l1.65,1.682,2.92-2.993a0.369,0.369,0,0,1,.52,0,0.384,0.384,0,0,1,0,.528l-2.93,2.992,1.66,1.695,2.92-2.992a0.363,0.363,0,0,1,.52,0,0.383,0.383,0,0,1,0,.527l-2.93,2.993,1.66,1.692,2.92-2.993a0.365,0.365,0,0,1,.52,0,0.383,0.383,0,0,1,0,.527l-2.93,2.993,1.66,1.693,2.92-2.993a0.365,0.365,0,0,1,.52,0,0.384,0.384,0,0,1,0,.528l-2.93,2.99,1.66,1.693,4.8-4.908a0.35,0.35,0,0,1,.51,0,0.383,0.383,0,0,1,0,.527l-4.8,4.909,1.66,1.693,2.92-2.992a0.365,0.365,0,0,1,.52,0,0.382,0.382,0,0,1,0,.526l-12.3,12.591h0a2.013,2.013,0,0,0-.56,1.4l0.02,6.186a1.609,1.609,0,0,0,.44.895,1.482,1.482,0,0,0,.87.444l6.05,0.027a1.876,1.876,0,0,0,1.36-.577l14.25-14.594a0.353,0.353,0,0,1,.42.066,0.383,0.383,0,0,1,0,.527l-4.8,4.911,1.66,1.693,2.92-2.991a0.353,0.353,0,0,1,.51,0,0.365,0.365,0,0,1,0,.527l-2.92,2.992,1.66,1.695,2.92-2.994a0.365,0.365,0,0,1,.52,0,0.384,0.384,0,0,1,0,.528l-2.93,2.992,1.66,1.693,2.92-2.993a0.365,0.365,0,0,1,.52,0,0.386,0.386,0,0,1,0,.529l-2.93,2.992,1.66,1.692,2.92-2.993a0.365,0.365,0,0,1,.52,0,0.387,0.387,0,0,1,0,.53l-2.93,2.991,1.65,1.692,4.81-4.91a0.353,0.353,0,0,1,.51,0,0.383,0.383,0,0,1,0,.527l-4.8,4.911,1.64,1.676a0.823,0.823,0,0,0,1.18,0l6.99-7.161A0.858,0.858,0,0,0,1701.67,309.3Zm-8.73-32.011a1.405,1.405,0,0,1,2.02,0l1.91,1.949-2.19,2.238-2.91-2.986Zm-2.37,1.967a0.455,0.455,0,0,1,.65,0l2.82,2.883a0.479,0.479,0,0,1-.01.659,0.443,0.443,0,0,1-.64,0v0l-2.8-2.864h0.01a0.182,0.182,0,0,0-.03-0.021A0.47,0.47,0,0,1,1690.57,279.257Zm-2.29,2.344a0.457,0.457,0,0,1,.65,0,0.174,0.174,0,0,1,.01.023l0.01,0,2.79,2.861a0.47,0.47,0,0,1,0,.659,0.442,0.442,0,0,1-.64,0v0l-2.83-2.891v-0.006A0.476,0.476,0,0,1,1688.28,281.6Zm-23.15,30.223-1.21-1.24,0.01-3.148a2.97,2.97,0,0,0,1.89.688,3.1,3.1,0,0,0,.84,2.131Zm2.41-2.56a1.663,1.663,0,0,1,.09-2.386L1686.06,288a0.487,0.487,0,0,0,0-.657,0.457,0.457,0,0,0-.65,0l-18.43,18.874a1.581,1.581,0,0,1-2.36.066l22.9-23.447,2.92,2.986Z" transform="translate(-1659.09 -274.094)"/>
</svg>
