<svg xmlns="http://www.w3.org/2000/svg" xmlns:xlink="http://www.w3.org/1999/xlink" width="52" height="25" viewBox="0 0 52 25">
  <metadata><?xpacket begin="﻿" id="W5M0MpCehiHzreSzNTczkc9d"?>
<x:xmpmeta xmlns:x="adobe:ns:meta/" x:xmptk="Adobe XMP Core 5.6-c142 79.160924, 2017/07/13-01:06:39        ">
   <rdf:RDF xmlns:rdf="http://www.w3.org/1999/02/22-rdf-syntax-ns#">
      <rdf:Description rdf:about=""/>
   </rdf:RDF>
</x:xmpmeta>
                                                                                                    
                                                                                                    
                                                                                                    
                                                                                                    
                                                                                                    
                                                                                                    
                                                                                                    
                                                                                                    
                                                                                                    
                                                                                                    
                                                                                                    
                                                                                                    
                                                                                                    
                                                                                                    
                                                                                                    
                                                                                                    
                                                                                                    
                                                                                                    
                                                                                                    
                                                                                                    
                           
<?xpacket end="w"?></metadata>
<defs>
    <style>
      .cls-1 {
        fill: #a1b925;
        fill-rule: evenodd;
        filter: url(#filter);
      }
    </style>
    <filter id="filter" x="1460" y="1126" width="52" height="25" filterUnits="userSpaceOnUse">
      <feGaussianBlur result="blur" in="SourceAlpha"/>
      <feFlood result="flood" flood-opacity="0.15"/>
      <feComposite result="composite" operator="out" in2="blur"/>
      <feOffset result="offset" dy="2"/>
      <feComposite result="composite-2" operator="in" in2="SourceAlpha"/>
      <feBlend result="blend" mode="multiply" in2="SourceGraphic"/>
    </filter>
  </defs>
  <path class="cls-1" d="M1509.98,1138.44l-5.72-1.36-4.09-4.02c-0.7-.68-1.53-1.5-1.85-1.82a2.268,2.268,0,0,0-1.36-.57h-5.39a1.771,1.771,0,0,0-1.78,1.75v12.81a2.064,2.064,0,0,0,2.08,2.04h6.5a5.286,5.286,0,0,1,10.57,0h0.98a2.07,2.07,0,0,0,2.08-2.04v-4.27A2.73,2.73,0,0,0,1509.98,1138.44Zm-16.61-4.97h3.23a0.742,0.742,0,0,1,.42.18c0.1,0.11.66,0.66,1.24,1.22l3.06,3.01c0.58,0.57.38,1.04-.43,1.04h-7.52a0.6,0.6,0,0,1-.61-0.6v-4.26a0.578,0.578,0,0,1,.24-0.47A0.586,0.586,0,0,1,1493.37,1133.47Zm-7.3-7.47h-23.99a2.07,2.07,0,0,0-2.08,2.04v17.19a2.07,2.07,0,0,0,2.08,2.04h0.86a5.281,5.281,0,0,1,10.56,0h12.57a2.064,2.064,0,0,0,2.08-2.04v-17.19A2.064,2.064,0,0,0,1486.07,1126Zm17.58,17.54a3.731,3.731,0,1,0,3.8,3.73A3.762,3.762,0,0,0,1503.65,1143.54Zm0,5.6a1.865,1.865,0,1,1,1.9-1.87A1.887,1.887,0,0,1,1503.65,1149.14Zm-35.43-5.6a3.731,3.731,0,1,0,3.8,3.73A3.765,3.765,0,0,0,1468.22,1143.54Zm0,5.6a1.865,1.865,0,1,1,1.9-1.87A1.887,1.887,0,0,1,1468.22,1149.14Z" transform="translate(-1460 -1126)"/>
</svg>
