<?xml version="1.0" encoding="utf-8"?>
<!-- Generator: Adobe Illustrator 21.0.0, SVG Export Plug-In . SVG Version: 6.00 Build 0)  -->
<svg version="1.1" id="Слой_1" xmlns="http://www.w3.org/2000/svg" xmlns:xlink="http://www.w3.org/1999/xlink" x="0px" y="0px"
	 viewBox="0 0 50 50" style="enable-background:new 0 0 50 50;" xml:space="preserve">
<style type="text/css">
	.st0{fill:#C3D846;}
	.st1{fill:#E93F49;}
	.st2{fill:#FFFFFF;}
	.st3{fill:#009EFE;}
	.st4{fill:#009DFE;}
	.st5{fill:#FFCA05;}
	.st6{fill:#E90000;}
	.st7{fill:#191B73;}
	.st8{fill:#231F20;}
	.st9{fill:#FF5F00;}
	.st10{fill:#EB001B;}
	.st11{fill:#F79E1B;}
	.st12{fill:#A1B925;}
	.st13{fill:#A2B925;}
</style>
<g>
	<path class="st5" d="M1.2,25.1C1.2,12,11.8,1.3,24.9,1.3C38,1.3,48.7,11.9,48.7,25c0,13.1-10.6,23.8-23.7,23.8
		c-2.6,0-5.1-0.4-7.4-1.2c1.7-9.8,7.9-17.8,16-21.2c1,1.1,2.4,1.8,4,1.8c2.9,0,5.3-2.4,5.3-5.3c0-2.9-2.4-5.3-5.3-5.3
		c-2.9,0-5.3,2.4-5.3,5.3C21.9,26.1,13.4,33.4,9.2,42.8c-1.4-1.2-2.6-2.6-3.6-4.1c0.2-9.1,4.7-17.1,11.5-21.8c1,1.1,2.4,1.8,3.9,1.8
		c2.9,0,5.3-2.4,5.3-5.3c0-2.9-2.4-5.3-5.3-5.3c-2.9,0-5.3,2.4-5.3,5.3c0,0.2,0,0.3,0,0.5C9.4,16.1,4.2,20.5,1.2,26
		C1.2,25.7,1.2,25.4,1.2,25.1"/>
</g>
</svg>
