<?xml version="1.0" encoding="utf-8"?>
<!-- Generator: Adobe Illustrator 21.0.0, SVG Export Plug-In . SVG Version: 6.00 Build 0)  -->
<svg version="1.1" id="Слой_1" xmlns="http://www.w3.org/2000/svg" xmlns:xlink="http://www.w3.org/1999/xlink" x="0px" y="0px"
	 viewBox="0 0 50 50" style="enable-background:new 0 0 50 50;" xml:space="preserve">
<style type="text/css">
	.st0{fill:#C3D846;}
	.st1{fill:#E93F49;}
	.st2{fill:#FFFFFF;}
	.st3{fill:#009EFE;}
	.st4{fill:#009DFE;}
	.st5{fill:#FFCA05;}
	.st6{fill:#E90000;}
	.st7{fill:#191B73;}
	.st8{fill:#231F20;}
	.st9{fill:#FF5F00;}
	.st10{fill:#EB001B;}
	.st11{fill:#F79E1B;}
	.st12{fill:#A1B925;}
	.st13{fill:#A2B925;}
</style>
<circle class="st2" cx="25.2" cy="25" r="23.4"/>
<g id="O5iZI8.tif">
	<g>
		<path class="st6" d="M34.8,3.6c-0.1-0.1-0.2-0.1-0.2-0.1c-2.5-1.1-5.1-1.7-7.9-1.9c-2.4-0.1-4.8,0-7.1,0.6
			C8.1,5-0.1,16.4,2.2,29.2c0.9,4.9,3.1,9,6.6,12.5c4.3,4.2,9.5,6.4,15.4,6.7c2.1,0.1,4.1-0.1,6.1-0.5c4.5-1,8.4-3.2,11.6-6.4
			c3.8-3.9,6-8.5,6.6-13.9c0.3-2.5,0.2-5-0.4-7.5c-1-4.6-3.2-8.5-6.6-11.8c-1.8-1.7-3.8-3.2-6-4.3c-0.2-0.1-0.3-0.1-0.6-0.1
			c-2.5,0.6-4.4,2-5.8,4.2c-1,1.5-1.6,3.3-1.6,5.1c0,0.4,0,0.4,0.3,0.5c0.1,0,0.1,0,0.2,0c1.4,0.4,2.7,0.8,3.9,1.5
			c1.6,0.8,2.9,1.9,3.9,3.4c1.2,1.6,1.8,3.4,2,5.4c0.3,2.6-0.1,5.1-1.4,7.5c-2.9,5.5-8.9,7.7-14.1,6.4c-3.8-0.9-6.6-3.2-8.5-6.6
			c-1.8-3.2-2.2-6.7-1.6-10.3c0.8-4.5,3-8.3,6.4-11.4c2.9-2.6,6.2-4.2,10-5.2c1.9-0.5,3.8-0.7,5.7-0.6C34.6,3.6,34.7,3.6,34.8,3.6z"
			/>
		<path class="st6" d="M34.8,3.6c-0.2,0-0.2,0-0.3,0c-1.9-0.2-3.8,0.1-5.7,0.6c-3.7,0.9-7.1,2.6-10,5.2c-3.4,3.1-5.6,6.9-6.4,11.4
			c-0.6,3.6-0.2,7.1,1.6,10.3c1.9,3.4,4.7,5.7,8.5,6.6c5.2,1.3,11.2-0.8,14.1-6.4c1.2-2.3,1.7-4.8,1.4-7.5c-0.2-2-0.8-3.8-2-5.4
			c-1-1.4-2.4-2.5-3.9-3.4c-1.2-0.7-2.6-1.2-3.9-1.5c-0.1,0-0.1,0-0.2,0c-0.3-0.1-0.3-0.1-0.3-0.5c0-1.9,0.5-3.6,1.6-5.1
			c1.4-2.1,3.3-3.5,5.8-4.2c0.2-0.1,0.4,0,0.6,0.1c2.2,1.1,4.3,2.5,6,4.3c3.4,3.3,5.5,7.2,6.6,11.8c0.5,2.5,0.7,5,0.4,7.5
			c-0.6,5.4-2.8,10-6.6,13.9c-3.2,3.3-7.1,5.4-11.6,6.4c-2,0.5-4.1,0.6-6.1,0.5c-6-0.3-11.1-2.5-15.4-6.7C5.3,38.3,3,34.1,2.2,29.2
			C-0.1,16.4,8.1,5,19.7,2.2c2.3-0.6,4.7-0.8,7.1-0.6c2.7,0.2,5.4,0.8,7.9,1.9C34.7,3.5,34.7,3.6,34.8,3.6z"/>
	</g>
</g>
</svg>
