<?xml version="1.0" encoding="utf-8"?>
<!-- Generator: Adobe Illustrator 21.0.0, SVG Export Plug-In . SVG Version: 6.00 Build 0)  -->
<svg version="1.1" id="Слой_1" xmlns="http://www.w3.org/2000/svg" xmlns:xlink="http://www.w3.org/1999/xlink" x="0px" y="0px"
	 viewBox="0 0 50 50" style="enable-background:new 0 0 50 50;" xml:space="preserve">
<style type="text/css">
	.st0{fill:#C3D846;}
	.st1{fill:#E93F49;}
	.st2{fill:#FFFFFF;}
	.st3{fill:#009EFE;}
	.st4{fill:#009DFE;}
	.st5{fill:#FFCA05;}
	.st6{fill:#E90000;}
	.st7{fill:#191B73;}
	.st8{fill:#231F20;}
	.st9{fill:#FF5F00;}
	.st10{fill:#EB001B;}
	.st11{fill:#F79E1B;}
	.st12{fill:#A1B925;}
	.st13{fill:#A2B925;}
</style>
<g>
	<path d="M24.7,9.6c6.5,0,10.9,0.1,12.9,0.3c3,0.3,5.1,0.9,6.3,1.8c1.1,0.9,1.8,2.3,2.2,4.3c0.2,1.4,0.3,4.2,0.3,8.3
		c0,0.1,0,0.4,0,0.6c0,4.2-0.1,7.1-0.3,8.5c-0.3,2.1-1,3.7-2,4.6c-1.1,1-3.1,1.6-5.9,1.9c-2.1,0.2-6.3,0.3-12.6,0.3h0h0h0h0h0h0h0h0
		h0h0h0h0h0h0h0h0h0h0h0h0h0h0h0h0h0h0h0h0h0h0h0h0h0h-0.2c-6.5,0-10.9-0.1-12.9-0.3c-3-0.3-5.1-0.9-6.3-1.8
		c-1.1-0.9-1.8-2.3-2.2-4.3C3.1,32.4,3,29.6,3,25.5c0-0.1,0-0.4,0-0.6c0-4.2,0.1-7.1,0.3-8.5c0.3-2.1,1-3.7,2-4.6
		c1.1-1,3.1-1.6,5.9-1.9c2.1-0.2,6.3-0.3,12.6-0.3h0h0h0h0h0h0h0h0h0h0h0h0h0h0h0h0h0h0h0h0h0h0h0h0h0h0h0h0h0h0h0h0h0H24.7z
		 M19.2,33l13.6-8.1l-13.6-8.1V33z" fill="#ef4b4a"/>
</g>
</svg>
