<svg xmlns="http://www.w3.org/2000/svg" xmlns:xlink="http://www.w3.org/1999/xlink" width="0" height="0" style="position:absolute">
	
		<symbol id="arrow" viewBox="0 0 12 8">
			<defs><style>.cls-1{fill:#00365a;fill-rule:evenodd}</style></defs><path id="arrow" class="cls-1" d="M949.01 937.007L945 941l-2 2-2-2-4.007-4 2-2 4.007 4 4.006-4z" transform="translate(-937 -935)"></path>
		</symbol>
	
		<symbol id="arrow-right" viewBox="0 0 9 3">
			<defs><style>.cls-1{fill-rule:evenodd}</style></defs><path id="arrow" class="cls-1" d="M411 344.236h6.663a2.3 2.3 0 0 1-.5-1.238A6.513 6.513 0 0 0 420 344.5a6.829 6.829 0 0 0-2.827 1.5 2.667 2.667 0 0 1 .508-1.274H411v-.492z" transform="translate(-411 -343)"></path>
		</symbol>
	
		<symbol id="search" viewBox="0 0 56.966 56.966">
			<path d="M55.146 51.887L41.588 37.786A22.926 22.926 0 0 0 46.984 23c0-12.682-10.318-23-23-23s-23 10.318-23 23 10.318 23 23 23c4.761 0 9.298-1.436 13.177-4.162l13.661 14.208c.571.593 1.339.92 2.162.92.779 0 1.518-.297 2.079-.837a3.004 3.004 0 0 0 .083-4.242zM23.984 6c9.374 0 17 7.626 17 17s-7.626 17-17 17-17-7.626-17-17 7.626-17 17-17z" fill="#92a4b3"></path>
		</symbol>
	
		<symbol id="slick-next" viewBox="0 0 17 26">
			<defs><style>.cls-1{fill:#fff;fill-rule:evenodd}</style></defs><path id="arrow" class="cls-1" d="M753.25 608l8.5 8.667L766 621l-4.251 4.333L753.25 634l-4.25-4.334 8.5-8.666-8.5-8.666z" transform="translate(-749 -608)"></path>
		</symbol>
	
</svg>
