<svg xmlns="http://www.w3.org/2000/svg" xmlns:xlink="http://www.w3.org/1999/xlink" width="0" height="0" style="position:absolute">
	
		<symbol id="menu-button" viewBox="0 0 459 459">
			<path fill="#acacac" d="M0 382.5h459v-51H0v51zM0 255h459v-51H0v51zM0 76.5v51h459v-51H0z"></path>
		</symbol>
	
		<symbol id="right-arrow" viewBox="0 0 297.5 297.5">
			<path fill="#acacac" d="M297.5 148.25L148 33.25v67H0v99h148v65z"></path>
		</symbol>
	
		<symbol id="search" viewBox="0 0 56.966 56.966">
			<path fill="#acacac" d="M55.146 51.887L41.588 37.786A22.926 22.926 0 0 0 46.984 23c0-12.682-10.318-23-23-23s-23 10.318-23 23 10.318 23 23 23c4.761 0 9.298-1.436 13.177-4.162l13.661 14.208c.571.593 1.339.92 2.162.92.779 0 1.518-.297 2.079-.837a3.004 3.004 0 0 0 .083-4.242zM23.984 6c9.374 0 17 7.626 17 17s-7.626 17-17 17-17-7.626-17-17 7.626-17 17-17z"></path>
		</symbol>
	
</svg>
