<svg xmlns="http://www.w3.org/2000/svg" xmlns:xlink="http://www.w3.org/1999/xlink" width="0" height="0" style="position:absolute">
	
		<symbol id="arrow-up" viewBox="0 0 284.929 284.929">
			<path d="M282.082 195.285L149.028 62.24c-1.901-1.903-4.088-2.856-6.562-2.856s-4.665.953-6.567 2.856L2.856 195.285C.95 197.191 0 199.378 0 201.853c0 2.474.953 4.664 2.856 6.566l14.272 14.271c1.903 1.903 4.093 2.854 6.567 2.854s4.664-.951 6.567-2.854l112.204-112.202 112.208 112.209c1.902 1.903 4.093 2.848 6.563 2.848 2.478 0 4.668-.951 6.57-2.848l14.274-14.277c1.902-1.902 2.847-4.093 2.847-6.566.001-2.476-.944-4.666-2.846-6.569z" fill="#FFF"></path>
		</symbol>
	
		<symbol id="handshake" viewBox="0 0 512.004 512.004">
			<g fill="#006fff"><path d="M136.425 235.442c0 4.565 1.783 8.849 5.009 12.066l6.033 6.033c8.064 8.055 18.765 12.493 30.165 12.493 11.401 0 22.11-4.437 30.174-12.493l42.505-42.505c16.836 14.063 37.854 21.717 60.041 21.717h.043c25.079-.017 48.683-9.805 66.441-27.571 3.337-3.336 3.337-8.738 0-12.066a8.523 8.523 0 0 0-12.066 0c-14.541 14.541-33.86 22.562-54.383 22.571h-.026c-20.506 0-39.782-7.987-54.281-22.485-3.337-3.328-8.738-3.328-12.066 0l-48.282 48.273c-9.66 9.668-26.53 9.668-36.198 0l-6.033-6.033L256.08 132.863c9.566-9.566 18.654-9.566 30.165-9.566 12.322 0 27.674 0 42.24-14.566l24.132-24.141c3.336-3.336 3.336-8.738 0-12.066-3.328-3.337-8.73-3.337-12.066 0l-24.132 24.141c-9.574 9.566-18.662 9.566-30.174 9.566-12.322 0-27.665 0-42.231 14.566l-102.572 102.57a16.939 16.939 0 0 0-5.017 12.075zM76.802 93.891c9.412 0 17.067-7.654 17.067-17.067 0-9.412-7.654-17.067-17.067-17.067-9.412 0-17.067 7.654-17.067 17.067s7.655 17.067 17.067 17.067zM159.533 120.797l24.132 24.132a8.5 8.5 0 0 0 6.033 2.5 8.475 8.475 0 0 0 6.033-2.5c3.337-3.328 3.337-8.73 0-12.066l-24.132-24.132c-3.328-3.336-8.73-3.336-12.066 0-3.328 3.328-3.328 8.729 0 12.066zM435.202 59.758c9.404 0 17.067-7.654 17.067-17.067 0-9.412-7.663-17.067-17.067-17.067s-17.067 7.654-17.067 17.067c0 9.412 7.663 17.067 17.067 17.067zM454.769 181.725c-13.867 13.867-18.628 36.454-23.228 58.3-4.079 19.388-8.303 39.45-18.577 49.724l-12.075 12.066c-3.328 3.337-3.328 8.738 0 12.066a8.505 8.505 0 0 0 6.042 2.5 8.504 8.504 0 0 0 6.033-2.5l12.066-12.066c13.858-13.858 18.611-36.437 23.211-58.274 4.087-19.405 8.32-39.467 18.594-49.749 3.337-3.328 3.337-8.73 0-12.066a8.522 8.522 0 0 0-12.066-.001z"></path><path d="M509.502 181.725L370.468 42.691l28.1-28.1a8.523 8.523 0 0 0 0-12.066 8.525 8.525 0 0 0-12.066 0l-34.133 34.133a8.523 8.523 0 0 0 0 12.066l145.067 145.067c1.664 1.664 3.849 2.5 6.033 2.5s4.369-.836 6.033-2.5a8.525 8.525 0 0 0 0-12.066zM316.418 253.541a8.535 8.535 0 0 0-12.066 12.075l90.505 90.505c6.656 6.656 6.656 17.485 0 24.141-6.639 6.639-17.476 6.647-24.141 0l-90.505-90.513c-3.337-3.337-8.738-3.337-12.066 0-3.337 3.337-3.337 8.738 0 12.066L382.79 416.46c6.656 6.656 6.656 17.485 0 24.132s-17.476 6.665-24.141.008L250.046 331.988c-3.337-3.337-8.738-3.337-12.066 0-3.337 3.328-3.337 8.73 0 12.066l96.538 96.538c6.656 6.656 6.656 17.485 0 24.141-6.451 6.451-17.681 6.451-24.132-.008l-12.075-12.066h-.009l-78.43-78.43c-3.337-3.336-8.738-3.336-12.066 0-3.336 3.328-3.336 8.73 0 12.066l78.438 78.438a16.955 16.955 0 0 1 5.001 12.075c0 4.557-1.775 8.841-5.001 12.066-6.639 6.639-17.476 6.656-24.132-.009L116.969 343.858c-22.127-22.127-26.931-50.022-31.172-74.641-3.567-20.71-6.938-40.269-20.028-53.359-3.337-3.337-8.73-3.337-12.066 0s-3.337 8.73 0 12.066c9.259 9.259 12.049 25.446 15.275 44.194 4.437 25.771 9.967 57.847 35.925 83.806L250.046 500.94c6.647 6.647 15.386 9.984 24.132 9.984 8.738-.009 17.485-3.337 24.132-9.984 4.847-4.855 8.064-10.906 9.361-17.493 12.51 6.033 28.8 3.482 38.912-6.647 4.855-4.855 8.064-10.914 9.361-17.502 12.689 6.093 28.407 3.866 38.912-6.639 13.312-13.303 13.312-34.953 0-48.265l-3.234-3.243a34.024 34.024 0 0 0 15.309-8.823c13.303-13.312 13.303-34.97 0-48.273l-90.513-90.514zM159.635 70.791l-51.2-51.2a8.523 8.523 0 0 0-12.066 0 8.523 8.523 0 0 0 0 12.066l45.167 45.167L2.502 215.858a8.525 8.525 0 0 0 0 12.066c1.664 1.664 3.849 2.5 6.033 2.5s4.369-.836 6.033-2.5L159.635 82.858a8.524 8.524 0 0 0 0-12.067zM209.879 493.379c-4.753 2.492-12.868 2.79-20.181-4.506-7.313-7.322-7.253-15.829-4.881-19.533a8.523 8.523 0 0 0-1.835-11.255 8.508 8.508 0 0 0-11.383.614c-6.665 6.656-17.502 6.647-24.141 0-6.647-6.656-6.647-17.485 0-24.141 1.673-1.664 2.5-3.849 2.5-6.033s-.828-4.361-2.5-6.033c-3.328-3.328-8.73-3.328-12.066 0l-6.033 6.033c-6.647 6.656-17.485 6.656-24.132 0s-6.647-17.485 0-24.132l6.033-6.033a8.53 8.53 0 0 0 .734-11.238 8.543 8.543 0 0 0-11.042-2.185c-4.642 2.679-12.809 2.364-19.857-4.676-7.492-7.492-7.458-15.795-5.043-19.294 2.679-3.874 1.698-9.19-2.176-11.87-3.883-2.688-9.19-1.707-11.87 2.176-6.903 10.001-6.716 27.315 7.023 41.054 5.41 5.402 11.298 8.627 17.101 10.172a34.014 34.014 0 0 0-2.97 13.961c0 9.114 3.55 17.69 10.001 24.132 8.755 8.764 21.137 11.759 32.375 8.986.666 7.731 3.951 15.283 9.856 21.188 8.491 8.482 20.352 11.554 31.292 9.233 1.058 7.066 4.48 14.464 10.948 20.941 7.893 7.885 17.109 11.042 25.523 11.042 5.402 0 10.47-1.306 14.643-3.49a8.527 8.527 0 0 0 3.593-11.52c-2.185-4.165-7.356-5.786-11.512-3.593z"></path></g>
		</symbol>
	
		<symbol id="instagram-logo" viewBox="0 0 169.063 169.063">
			<g fill="#313131"><path d="M122.406 0H46.654C20.929 0 0 20.93 0 46.655v75.752c0 25.726 20.929 46.655 46.654 46.655h75.752c25.727 0 46.656-20.93 46.656-46.655V46.655C169.063 20.93 148.133 0 122.406 0zm31.657 122.407c0 17.455-14.201 31.655-31.656 31.655H46.654C29.2 154.063 15 139.862 15 122.407V46.655C15 29.201 29.2 15 46.654 15h75.752c17.455 0 31.656 14.201 31.656 31.655v75.752z"></path><path d="M84.531 40.97c-24.021 0-43.563 19.542-43.563 43.563 0 24.02 19.542 43.561 43.563 43.561s43.563-19.541 43.563-43.561c0-24.021-19.542-43.563-43.563-43.563zm0 72.123c-15.749 0-28.563-12.812-28.563-28.561 0-15.75 12.813-28.563 28.563-28.563s28.563 12.813 28.563 28.563c0 15.749-12.814 28.561-28.563 28.561zM129.921 28.251c-2.89 0-5.729 1.17-7.77 3.22a11.053 11.053 0 0 0-3.23 7.78c0 2.891 1.18 5.73 3.23 7.78 2.04 2.04 4.88 3.22 7.77 3.22 2.9 0 5.73-1.18 7.78-3.22 2.05-2.05 3.22-4.89 3.22-7.78 0-2.9-1.17-5.74-3.22-7.78-2.04-2.05-4.88-3.22-7.78-3.22z"></path></g>
		</symbol>
	
		<symbol id="package" viewBox="0 0 496 496">
			<g fill="#fdc312"><path d="M264 160c-57.344 0-104 46.656-104 104s46.656 104 104 104 104-46.656 104-104-46.656-104-104-104zm0 192c-48.52 0-88-39.48-88-88s39.48-88 88-88 88 39.48 88 88-39.48 88-88 88z"></path><path d="M483.712 424.4l-68.4-68.4 14.344-14.344-11.312-11.312L404 344.688l-12.984-12.984C401.832 311.504 408 288.464 408 264c0-46.248-22.008-87.368-56-113.728V0H0v352h150.272c26.368 33.992 67.48 56 113.728 56 24.464 0 47.504-6.168 67.704-16.984L344.688 404l-14.344 14.344 11.312 11.312L356 415.312l68.4 68.4c7.92 7.92 18.456 12.288 29.656 12.288C477.184 496 496 477.184 496 454.056c0-11.2-4.36-21.728-12.288-29.656zM304 16h32v123.48c-9.984-5.792-20.688-10.432-32-13.712V16zM64 16h224v32H64V16zm0 48h224v32H64V64zm0 48h224v10.168c-7.824-1.32-15.808-2.168-24-2.168-29.584 0-57.104 8.992-80 24.352V144H64v-32zm0 48h100.672a144.883 144.883 0 0 0-25.192 32H64v-32zm0 48h67.336c-4.288 10.112-7.288 20.872-9.168 32H64v-32zm0 48h56.408c-.152 2.664-.408 5.296-.408 8 0 8.192.848 16.176 2.168 24H64v-32zm-16 80H16V16h32v320zm16 0v-32h61.768c3.28 11.312 7.92 22.016 13.712 32H64zm200 56c-70.576 0-128-57.424-128-128s57.424-128 128-128 128 57.424 128 128-57.424 128-128 128zm92 .688l-10.272-10.272a145.115 145.115 0 0 0 36.688-36.688L392.688 356 356 392.688zM454.056 480c-6.928 0-13.44-2.696-18.344-7.6l-68.4-68.4L404 367.312l68.4 68.4c4.896 4.904 7.6 11.416 7.6 18.344C480 468.36 468.36 480 454.056 480z"></path><path d="M256 224h16v32h-16zM256 272h16v32h-16zM272 256h32v16h-32zM224 256h32v16h-32z"></path></g>
		</symbol>
	
		<symbol id="telephone-symbol-button" viewBox="0 0 438.536 438.536">
			<path d="M414.41 24.123C398.333 8.042 378.963 0 356.315 0H82.228C59.58 0 40.21 8.042 24.126 24.123 8.045 40.207.003 59.576.003 82.225v274.084c0 22.647 8.042 42.018 24.123 58.102 16.084 16.084 35.454 24.126 58.102 24.126h274.084c22.648 0 42.018-8.042 58.095-24.126 16.084-16.084 24.126-35.454 24.126-58.102V82.225c-.001-22.649-8.043-42.021-24.123-58.102zm-55.251 308.751c-3.997 8.754-12.99 16.371-26.977 22.846-13.99 6.475-26.413 9.712-37.265 9.712-3.046 0-6.283-.235-9.708-.711-3.426-.479-6.324-.952-8.703-1.428-2.378-.476-5.523-1.331-9.421-2.57-3.905-1.234-6.715-2.189-8.422-2.854-1.718-.664-4.856-1.854-9.421-3.566-4.569-1.718-7.427-2.765-8.562-3.138-31.215-11.427-61.721-32.028-91.507-61.814-29.786-29.793-50.391-60.292-61.812-91.502-.378-1.143-1.425-3.999-3.14-8.565a952.564 952.564 0 0 0-3.571-9.419c-.662-1.713-1.615-4.521-2.853-8.42-1.237-3.903-2.091-7.041-2.568-9.423-.478-2.376-.95-5.277-1.427-8.704-.476-3.427-.713-6.667-.713-9.71 0-10.85 3.237-23.269 9.71-37.259 6.472-13.988 14.084-22.981 22.841-26.979 10.088-4.189 19.7-6.283 28.837-6.283 2.091 0 3.616.192 4.565.572.953.385 2.524 2.094 4.714 5.14 2.19 3.046 4.568 6.899 7.137 11.563 2.57 4.665 5.092 9.186 7.566 13.562a601.267 601.267 0 0 1 7.139 12.991c2.284 4.279 3.711 6.995 4.281 8.133.571.957 1.809 2.762 3.711 5.429 1.902 2.663 3.333 5.039 4.283 7.135.95 2.094 1.427 4.093 1.427 5.996 0 2.859-1.953 6.331-5.854 10.42-3.903 4.093-8.186 7.854-12.85 11.281s-8.945 7.092-12.847 10.994c-3.899 3.899-5.852 7.087-5.852 9.562 0 1.333.333 2.902 1 4.71.666 1.812 1.285 3.287 1.856 4.427.571 1.141 1.477 2.76 2.712 4.856 1.237 2.096 2.048 3.427 2.426 3.999 10.467 18.843 22.508 35.07 36.114 48.681 13.612 13.613 29.836 25.648 48.682 36.117.567.384 1.902 1.191 4.004 2.43 2.091 1.232 3.713 2.136 4.853 2.707 1.143.571 2.614 1.191 4.425 1.852 1.811.664 3.381.999 4.719.999 3.036 0 7.225-3.138 12.56-9.418a976.681 976.681 0 0 1 16.276-18.705c5.516-6.181 9.985-9.274 13.418-9.274 1.902 0 3.897.473 5.999 1.424 2.095.951 4.469 2.382 7.132 4.284 2.669 1.91 4.476 3.142 5.428 3.721l15.125 8.271c10.089 5.332 18.511 10.041 25.27 14.134s10.424 6.899 10.996 8.419c.379.951.564 2.478.564 4.572-.007 9.128-2.102 18.741-6.297 28.803z" fill="#ffd630"></path>
		</symbol>
	
		<symbol id="youtube-play-button" viewBox="0 0 90 90">
			<path d="M90 26.958C90 19.525 83.979 13.5 76.55 13.5h-63.1C6.021 13.5 0 19.525 0 26.958v36.084C0 70.475 6.021 76.5 13.45 76.5h63.1C83.979 76.5 90 70.475 90 63.042V26.958zM36 60.225V26.33l25.702 16.947L36 60.225z" fill="#333"></path>
		</symbol>
	
</svg>
