<svg xmlns="http://www.w3.org/2000/svg" xmlns:xlink="http://www.w3.org/1999/xlink" width="0" height="0" style="position:absolute">
	
		<symbol id="arrow-up" viewBox="0 0 284.929 284.929">
			<path d="M282.082 195.285L149.028 62.24c-1.901-1.903-4.088-2.856-6.562-2.856s-4.665.953-6.567 2.856L2.856 195.285C.95 197.191 0 199.378 0 201.853c0 2.474.953 4.664 2.856 6.566l14.272 14.271c1.903 1.903 4.093 2.854 6.567 2.854s4.664-.951 6.567-2.854l112.204-112.202 112.208 112.209c1.902 1.903 4.093 2.848 6.563 2.848 2.478 0 4.668-.951 6.57-2.848l14.274-14.277c1.902-1.902 2.847-4.093 2.847-6.566.001-2.476-.944-4.666-2.846-6.569z" fill="#FFF"></path>
		</symbol>
	
		<symbol id="instagram-logo" viewBox="0 0 169.063 169.063">
			<g fill="#313131"><path d="M122.406 0H46.654C20.929 0 0 20.93 0 46.655v75.752c0 25.726 20.929 46.655 46.654 46.655h75.752c25.727 0 46.656-20.93 46.656-46.655V46.655C169.063 20.93 148.133 0 122.406 0zm31.657 122.407c0 17.455-14.201 31.655-31.656 31.655H46.654C29.2 154.063 15 139.862 15 122.407V46.655C15 29.201 29.2 15 46.654 15h75.752c17.455 0 31.656 14.201 31.656 31.655v75.752z"></path><path d="M84.531 40.97c-24.021 0-43.563 19.542-43.563 43.563 0 24.02 19.542 43.561 43.563 43.561s43.563-19.541 43.563-43.561c0-24.021-19.542-43.563-43.563-43.563zm0 72.123c-15.749 0-28.563-12.812-28.563-28.561 0-15.75 12.813-28.563 28.563-28.563s28.563 12.813 28.563 28.563c0 15.749-12.814 28.561-28.563 28.561zM129.921 28.251c-2.89 0-5.729 1.17-7.77 3.22a11.053 11.053 0 0 0-3.23 7.78c0 2.891 1.18 5.73 3.23 7.78 2.04 2.04 4.88 3.22 7.77 3.22 2.9 0 5.73-1.18 7.78-3.22 2.05-2.05 3.22-4.89 3.22-7.78 0-2.9-1.17-5.74-3.22-7.78-2.04-2.05-4.88-3.22-7.78-3.22z"></path></g>
		</symbol>
	
		<symbol id="telephone-symbol-button" viewBox="0 0 438.536 438.536">
			<path d="M414.41 24.123C398.333 8.042 378.963 0 356.315 0H82.228C59.58 0 40.21 8.042 24.126 24.123 8.045 40.207.003 59.576.003 82.225v274.084c0 22.647 8.042 42.018 24.123 58.102 16.084 16.084 35.454 24.126 58.102 24.126h274.084c22.648 0 42.018-8.042 58.095-24.126 16.084-16.084 24.126-35.454 24.126-58.102V82.225c-.001-22.649-8.043-42.021-24.123-58.102zm-55.251 308.751c-3.997 8.754-12.99 16.371-26.977 22.846-13.99 6.475-26.413 9.712-37.265 9.712-3.046 0-6.283-.235-9.708-.711-3.426-.479-6.324-.952-8.703-1.428-2.378-.476-5.523-1.331-9.421-2.57-3.905-1.234-6.715-2.189-8.422-2.854-1.718-.664-4.856-1.854-9.421-3.566-4.569-1.718-7.427-2.765-8.562-3.138-31.215-11.427-61.721-32.028-91.507-61.814-29.786-29.793-50.391-60.292-61.812-91.502-.378-1.143-1.425-3.999-3.14-8.565a952.564 952.564 0 0 0-3.571-9.419c-.662-1.713-1.615-4.521-2.853-8.42-1.237-3.903-2.091-7.041-2.568-9.423-.478-2.376-.95-5.277-1.427-8.704-.476-3.427-.713-6.667-.713-9.71 0-10.85 3.237-23.269 9.71-37.259 6.472-13.988 14.084-22.981 22.841-26.979 10.088-4.189 19.7-6.283 28.837-6.283 2.091 0 3.616.192 4.565.572.953.385 2.524 2.094 4.714 5.14 2.19 3.046 4.568 6.899 7.137 11.563 2.57 4.665 5.092 9.186 7.566 13.562a601.267 601.267 0 0 1 7.139 12.991c2.284 4.279 3.711 6.995 4.281 8.133.571.957 1.809 2.762 3.711 5.429 1.902 2.663 3.333 5.039 4.283 7.135.95 2.094 1.427 4.093 1.427 5.996 0 2.859-1.953 6.331-5.854 10.42-3.903 4.093-8.186 7.854-12.85 11.281s-8.945 7.092-12.847 10.994c-3.899 3.899-5.852 7.087-5.852 9.562 0 1.333.333 2.902 1 4.71.666 1.812 1.285 3.287 1.856 4.427.571 1.141 1.477 2.76 2.712 4.856 1.237 2.096 2.048 3.427 2.426 3.999 10.467 18.843 22.508 35.07 36.114 48.681 13.612 13.613 29.836 25.648 48.682 36.117.567.384 1.902 1.191 4.004 2.43 2.091 1.232 3.713 2.136 4.853 2.707 1.143.571 2.614 1.191 4.425 1.852 1.811.664 3.381.999 4.719.999 3.036 0 7.225-3.138 12.56-9.418a976.681 976.681 0 0 1 16.276-18.705c5.516-6.181 9.985-9.274 13.418-9.274 1.902 0 3.897.473 5.999 1.424 2.095.951 4.469 2.382 7.132 4.284 2.669 1.91 4.476 3.142 5.428 3.721l15.125 8.271c10.089 5.332 18.511 10.041 25.27 14.134s10.424 6.899 10.996 8.419c.379.951.564 2.478.564 4.572-.007 9.128-2.102 18.741-6.297 28.803z" fill="#ffd630"></path>
		</symbol>
	
		<symbol id="youtube-play-button" viewBox="0 0 90 90">
			<path d="M90 26.958C90 19.525 83.979 13.5 76.55 13.5h-63.1C6.021 13.5 0 19.525 0 26.958v36.084C0 70.475 6.021 76.5 13.45 76.5h63.1C83.979 76.5 90 70.475 90 63.042V26.958zM36 60.225V26.33l25.702 16.947L36 60.225z" fill="#333"></path>
		</symbol>
	
</svg>
