<svg xmlns="http://www.w3.org/2000/svg" xmlns:xlink="http://www.w3.org/1999/xlink" width="0" height="0" style="position:absolute">
	
		<symbol id="about-school-1" viewBox="0 0 63 80">
			<defs><style>.cls-1{fill:#e05745;fill-rule:evenodd}</style></defs><path id="Заливка_цветом_1" data-name="Заливка цветом 1" class="cls-1" d="M136.127 950.824a6.849 6.849 0 0 0-3.614 1.032 7.426 7.426 0 0 0-5.894-5.422 7.617 7.617 0 0 0-1.3-.114 7.4 7.4 0 0 0-4.478 1.507 7.988 7.988 0 0 0-13.787-2.429c-.049-.074-.091-.153-.142-.226a7.444 7.444 0 0 0-13.434 2.983s-2.7 15.374-2.715 15.551l-8.2 8.214a8.867 8.867 0 0 0 0 12.506s11.727 11.743 11.847 11.849v24.235a1.5 1.5 0 0 0 1.5 1.5h35.406a1.5 1.5 0 0 0 1.5-1.5v-23.065l.76-.761a22.492 22.492 0 0 0 5.853-21.476 6.905 6.905 0 0 0 1.092-2.686l2.394-13.6a6.891 6.891 0 0 0-6.788-8.098zm-10.81-1.5a4.479 4.479 0 0 1 .78.07 4.45 4.45 0 0 1 3.6 5.156l-2.646 15.023a4.433 4.433 0 0 1-4.364 3.675 4.482 4.482 0 0 1-.781-.07 4.45 4.45 0 0 1-3.6-5.155l2.644-15.02a4.433 4.433 0 0 1 4.367-3.675zm-11.174-3.824a5.014 5.014 0 0 1 4.058 5.8l-2.893 16.428a5 5 0 0 1-2.513 3.508l-7.019-7.032 2.576-14.642a5 5 0 0 1 5.791-4.062zm-15.882.3a4.445 4.445 0 0 1 6.924 4.416l-2.031 11.54a8.827 8.827 0 0 0-8.878-.817l2.159-12.267a4.423 4.423 0 0 1 1.826-2.867zm31.991 49.954a1.5 1.5 0 0 0-.438 1.064V1019h-32.4v-23.441a1.5 1.5 0 0 0-.6-1.2c-.258-.2-12.131-12.06-12.131-12.06a5.848 5.848 0 0 1 0-8.251l9.216-9.233a5.825 5.825 0 0 1 8.235 0s12.152 12.164 12.462 12.466c1.244 1.206 2.528 2.456 2.535 3.275a2.126 2.126 0 0 1-.777 1.326c-4.17 4.177-9.143.776-17.576-5.594a1.5 1.5 0 1 0-1.809 2.4c5.426 4.1 10.645 8.044 15.4 8.043.243 0 .483-.014.723-.034a15.235 15.235 0 0 1-1.282 12.903 1.506 1.506 0 0 0 .516 2.066 1.537 1.537 0 0 0 .771.21 1.5 1.5 0 0 0 1.288-.73 18.249 18.249 0 0 0 1.6-15.291 9.92 9.92 0 0 0 2.5-1.848 4.849 4.849 0 0 0 1.656-3.478c-.017-2.078-1.682-3.7-3.446-5.411-.3-.291-1.718-1.7-1.718-1.7a8.011 8.011 0 0 0 1.183-1.03 7.387 7.387 0 0 0 5.231 3.757 7.5 7.5 0 0 0 1.3.115 7.407 7.407 0 0 0 4.9-1.85 7 7 0 0 0 .51.869 6.844 6.844 0 0 0 4.444 2.837 6.979 6.979 0 0 0 1.2.106 6.838 6.838 0 0 0 3.1-.746 19.472 19.472 0 0 1-5.4 17.078zM137.563 972a3.873 3.873 0 0 1-3.816 3.213 4.006 4.006 0 0 1-.681-.058 3.889 3.889 0 0 1-3.15-4.5l2.4-13.606a3.876 3.876 0 0 1 3.816-3.211 4.006 4.006 0 0 1 .68.06 3.9 3.9 0 0 1 3.15 4.5z" transform="translate(-80 -942)"></path>
		</symbol>
	
		<symbol id="about-school-2" viewBox="0 0 67 80">
			<defs><style>.cls-1{fill:#e05745;fill-rule:evenodd}</style></defs><path id="Заливка_цветом_1" data-name="Заливка цветом 1" class="cls-1" d="M423.609 943.481a1.47 1.47 0 0 0-1.457-1.481h-23.3a1.471 1.471 0 0 0-1.457 1.482c0 8.972-6.193 13.333-18.935 13.333A1.47 1.47 0 0 0 377 958.3v26.666c0 15.368 31.379 35.938 32.715 36.808a1.455 1.455 0 0 0 1.57 0c1.336-.87 32.715-21.44 32.715-36.808V958.3a1.469 1.469 0 0 0-1.457-1.482c-12.743-.004-18.934-4.365-18.934-13.337zM410.5 1018.75c-4.859-3.29-30.587-21.274-30.587-33.788v-25.2c12.879-.344 19.713-5.314 20.343-14.8h20.488c.632 9.482 7.464 14.452 20.343 14.8v25.2c0 12.514-25.728 30.498-30.587 33.788z" transform="translate(-377 -942)"></path><path id="Заливка_цветом_2" data-name="Заливка цветом 2" class="cls-1" d="M426 979.8a1.229 1.229 0 0 0-1.1.7l-3.6 6.9-1.9-23.1a1.11 1.11 0 0 0-1.1-1.1 1 1 0 0 0-1.3.8l-4 14.6h-8.4a1.4 1.4 0 0 0-1.2.9l-1.7 5.7-3.7-15.8a1.41 1.41 0 0 0-1.2-1 1.107 1.107 0 0 0-1.2.9l-3.4 10.5H387a1.217 1.217 0 0 0-1.2 1.2 1.291 1.291 0 0 0 1.2 1.2h6.2a1.258 1.258 0 0 0 1.2-.9l2.3-7 3.7 15.9a1.285 1.285 0 0 0 1.2 1 1.107 1.107 0 0 0 1.2-.9l2.8-9.3h8.4a1.2 1.2 0 0 0 1.2-.9l2.3-8.6 1.7 20.3a1.174 1.174 0 0 0 1 1.1h.2a1.228 1.228 0 0 0 1.1-.7l5.2-10.2h8.3a1.217 1.217 0 0 0 1.2-1.2 1.062 1.062 0 0 0-1.2-1h-9z" transform="translate(-377 -942)"></path>
		</symbol>
	
		<symbol id="about-school-3" viewBox="0 0 93 80">
			<defs><style>.cls-1{fill:#e05745;fill-rule:evenodd}</style></defs><path id="Заливка_цветом_1" data-name="Заливка цветом 1" class="cls-1" d="M707.752 1023.01a1.073 1.073 0 0 1-1.133-1.13v-40.353a1.069 1.069 0 0 1 1.133-1.13h26.169a1.069 1.069 0 0 1 1.133 1.13v40.463a1.123 1.123 0 0 1-1.133 1.02h-26.169zm25.036-2.26v-38.093h-23.9v38.093h23.9z" transform="translate(-674 -943)"></path><path id="Заливка_цветом_2" data-name="Заливка цветом 2" class="cls-1" d="M739.7 1023.01a1.074 1.074 0 0 1-1.133-1.13v-16.05a1.068 1.068 0 0 1 1.133-1.13h26.169a1.068 1.068 0 0 1 1.133 1.13v16.05a1.139 1.139 0 0 1-1.133 1.13H739.7zm25.036-2.26v-13.79h-23.9v13.79h23.9z" transform="translate(-674 -943)"></path><path id="Заливка_цветом_3" data-name="Заливка цветом 3" class="cls-1" d="M675.126 1023.01a1.073 1.073 0 0 1-1.133-1.13v-28.26a1.069 1.069 0 0 1 1.133-1.13H701.3a1.069 1.069 0 0 1 1.132 1.13v28.26a1.139 1.139 0 0 1-1.132 1.13h-26.174zm25.036-2.26v-26h-23.9v26h23.9z" transform="translate(-674 -943)"></path><path id="Заливка_цветом_4" data-name="Заливка цветом 4" class="cls-1" d="M720.78 945.246l3.511 9.946 10.536.226-8.383 6.33 3.059 10.058-8.61-5.99-8.61 5.99 3.059-10.058-8.383-6.33 10.535-.226 3.286-9.946m-2.153-.792l-2.945 8.364-8.95.227a2.433 2.433 0 0 0-2.152 1.581 2.142 2.142 0 0 0 .793 2.487l7.137 5.426-2.606 8.589a2.534 2.534 0 0 0 .793 2.487 2.182 2.182 0 0 0 1.36.452 1.706 1.706 0 0 0 1.246-.452l7.363-5.086 7.364 5.086a2.38 2.38 0 0 0 1.246.452 2.18 2.18 0 0 0 1.359-.452 2.143 2.143 0 0 0 .793-2.487l-2.605-8.589 7.137-5.426a2.142 2.142 0 0 0 .793-2.487 2.315 2.315 0 0 0-2.153-1.581l-8.723-.227-2.945-8.476a2.28 2.28 0 0 0-2.152-1.357 2.323 2.323 0 0 0-2.153 1.469z" transform="translate(-674 -943)"></path>
		</symbol>
	
		<symbol id="about-school-4" viewBox="0 0 65.03 80">
			<defs><style>.cls-1{fill:#e05745;fill-rule:evenodd}</style></defs><path id="Заливка_цветом_1" data-name="Заливка цветом 1" class="cls-1" d="M1020.23 1002.24a16.752 16.752 0 0 0 1.98-2.06 15.75 15.75 0 0 0 2.99-13.343l-2.95-12.826a15.562 15.562 0 0 0-14.17-12.13 11.042 11.042 0 0 0 3.94-12.3 10.9 10.9 0 0 0-20.77 0 11.051 11.051 0 0 0 3.943 12.3 15.572 15.572 0 0 0-14.173 12.13l-2.945 12.816a15.735 15.735 0 0 0 2.978 13.343 15.909 15.909 0 0 0 1.992 2.07c-3.194-.2-6.984.14-9.843 2.18-2.609 1.88-4.006 4.87-4.168 8.81a7.3 7.3 0 0 0 2.858 6.47c2.242 1.69 5.642 2.3 9.345 2.3 8.25 0 18.028-2.98 20.263-3.7 2.23.72 12 3.7 20.25 3.7 3.71 0 7.11-.61 9.35-2.3a7.317 7.317 0 0 0 2.9-6.47c-.16-3.94-1.56-6.93-4.18-8.81-2.78-2-6.5-2.37-9.59-2.18zm-18.62-58.051a8.824 8.824 0 1 1-8.755 8.824 8.791 8.791 0 0 1 8.755-8.824zm-1.32 72.2c-4.241 1.3-21.111 6.08-27.066 1.57a5.179 5.179 0 0 1-2.025-4.65c.119-3.27 1.2-5.65 3.249-7.11 4.98-3.58 14.076-.83 14.184-.8h.1a15.521 15.521 0 0 0 4.537.7h7.034v10.29h-.01zm-7.035-12.47a13.426 13.426 0 0 1-10.531-5.121 13.622 13.622 0 0 1-2.57-11.492l2.956-12.8a13.415 13.415 0 0 1 13.1-10.493h10.829a13.408 13.408 0 0 1 13.1 10.493l2.95 12.805a13.569 13.569 0 0 1-6.18 14.673c-4.01-.34-9.17-4.364-13.53-8.662 2.48-1.538 8.1-5.258 10.38-8.726a1.086 1.086 0 0 0-1.81-1.2c-2.16 3.272-8.12 7.123-10.15 8.366a109.358 109.358 0 0 1-7.386-8.432 1.08 1.08 0 0 0-1.906.219 1.1 1.1 0 0 0 .195 1.112c.531.622 11.727 15.107 20.927 18.713h-.08a13.363 13.363 0 0 1-3.56.5h-16.712zm9.225 12.44V1006.1h7.51a15.674 15.674 0 0 0 5.42-.96c2.49-.6 9.18-1.83 13.2 1.09 2.03 1.46 3.13 3.85 3.25 7.11a5.182 5.182 0 0 1-2.04 4.67c-6.12 4.6-23.53-.46-27.34-1.65z" transform="translate(-969 -942)"></path>
		</symbol>
	
		<symbol id="about-school-5" viewBox="0 0 67 80">
			<defs><style>.cls-1{fill:#e05745;fill-rule:evenodd}</style></defs><path id="Заливка_цветом_1" data-name="Заливка цветом 1" class="cls-1" d="M138.062 1270.06a4.2 4.2 0 0 0 2.428-1.58c1.821-2.42.971-6.06.849-6.42-4.249-17.33-14.689-26.06-30.593-26.06h-1.579c-4.37 0-17.725 0-26.709 17.45-8.741 16.73 8.62 43.03 10.926 46.43v14.91A1.148 1.148 0 0 0 94.6 1316h29.015a1.149 1.149 0 0 0 1.215-1.21v-11.76a10 10 0 0 0 6.92 3.03c4.127 0 7.527-3.03 7.405-6.79l-1.092-12.72 7.769-.13a1.279 1.279 0 0 0 1.093-.6 1.429 1.429 0 0 0-.121-1.21zm-2.186 14.42a1.394 1.394 0 0 0-.364.97l1.214 14.06c.122 2.07-2.064 4.25-4.977 4.25-2.55 0-5.1-1.7-7.042-4.61a1.146 1.146 0 0 0-1.335-.48 1.2 1.2 0 0 0-.85 1.21v13.7H95.813v-14.07a1.691 1.691 0 0 0-.243-.72c-.243-.25-19.425-28-11.048-44.24 8.5-16.13 20.639-16.13 24.645-16.13h1.579c5.463 0 22.1 0 28.408 24.12.243.85.486 3.16-.485 4.37a2.724 2.724 0 0 1-2.307.85h-.243a1.279 1.279 0 0 0-1.093.6 1.116 1.116 0 0 0 0 1.22l8.62 14.3-6.92.24a1.109 1.109 0 0 0-.85.36z" transform="translate(-80 -1236)"></path><path id="Заливка_цветом_2" data-name="Заливка цветом 2" class="cls-1" d="M127.5 1275.27v-17.09a4.039 4.039 0 0 0 2.793-3.76 3.922 3.922 0 0 0-2.793-3.75v-1.34a1.214 1.214 0 0 0-2.428 0v1.34a4.037 4.037 0 0 0-2.792 3.75 3.925 3.925 0 0 0 2.792 3.76v17.09h-7.892v-11.03a4.04 4.04 0 0 0 2.792-3.76 3.922 3.922 0 0 0-2.792-3.75v-7.4a1.214 1.214 0 0 0-2.428 0v7.4a4.037 4.037 0 0 0-2.792 3.75 3.925 3.925 0 0 0 2.792 3.76v11.03h-7.891v-4.48a4.05 4.05 0 0 0 2.792-3.76 3.934 3.934 0 0 0-2.792-3.76v-13.94a1.214 1.214 0 0 0-2.428 0v13.94a4.049 4.049 0 0 0-2.793 3.76 3.934 3.934 0 0 0 2.793 3.76v4.48h-7.892v-16.85a4.037 4.037 0 0 0 2.792-3.75 3.925 3.925 0 0 0-2.792-3.76v-1.58a1.214 1.214 0 0 0-2.428 0v1.58a4.04 4.04 0 0 0-2.792 3.76 3.922 3.922 0 0 0 2.792 3.75v16.85h-1.578a1.215 1.215 0 0 0 0 2.43h37.028a1.151 1.151 0 0 0 1.214-1.22 1.417 1.417 0 0 0-1.335-1.21H127.5zm.243-20.85a1.578 1.578 0 1 1-3.156 0 1.7 1.7 0 0 1 1.578-1.57 1.606 1.606 0 0 1 1.577 1.57zm-10.319 6.06a1.579 1.579 0 1 1-1.578-1.57 1.609 1.609 0 0 1 1.577 1.57zm-11.9 4.97a1.58 1.58 0 1 1-1.578 1.58 1.608 1.608 0 0 1 1.578-1.58zm-8.741-10.78a1.578 1.578 0 1 1-1.578-1.58 1.607 1.607 0 0 1 1.579 1.58z" transform="translate(-80 -1236)"></path><path id="Заливка_цветом_3" data-name="Заливка цветом 3" class="cls-1" d="M92.414 1281.58a1.21 1.21 0 1 0 0 2.42h37.028a1.148 1.148 0 0 0 1.214-1.21 1.212 1.212 0 0 0-1.214-1.21H92.414z" transform="translate(-80 -1236)"></path>
		</symbol>
	
		<symbol id="about-school-6" viewBox="0 0 84 70">
			<defs><style>.cls-1{fill:#e05745;fill-rule:evenodd}</style></defs><path id="Заливка_цветом_3" data-name="Заливка цветом 3" class="cls-1" d="M420 1316a1.373 1.373 0 0 1-1-.43c-.241-.24-24.142-24.88-29.28-29.97-10.893-10.79-8.326-25.22-2.283-31.49 5.257-5.46 10.661-8.11 16.52-8.11 6.559 0 12.5 3.96 16.048 10.53 3.553-6.57 9.51-10.53 16.094-10.53 5.89 0 11.451 2.73 16.53 8.12 5.971 6.33 8.5 20.8-2.293 31.48-5.138 5.09-29.085 29.73-29.326 29.98a1.4 1.4 0 0 1-1 .42zm-30.551-59.95c-5.239 5.44-7.376 18.04 2.237 27.56 4.55 4.51 23.7 24.22 28.315 28.98 4.626-4.75 23.81-24.47 28.36-28.98 9.522-9.43 7.41-22.07 2.226-27.57-4.593-4.87-9.334-7.24-14.493-7.24-6.3 0-11.967 4.43-14.792 11.56a1.4 1.4 0 0 1-2.6 0c-2.825-7.13-8.476-11.56-14.746-11.56-5.062 0-9.806 2.37-14.507 7.25z" transform="translate(-378 -1246)"></path><path id="Заливка_цветом_4" data-name="Заливка цветом 4" class="cls-1" d="M414.529 1295.59l-7.451-16.15-4.185 5.23a1.379 1.379 0 0 1-1.093.53h-22.4a1.4 1.4 0 1 1 0-2.8h21.728l5.18-6.48a1.386 1.386 0 0 1 1.263-.51 1.4 1.4 0 0 1 1.1.8l6.661 14.44 4.7-21.15a1.4 1.4 0 0 1 2.674-.2l6.028 15.67 4.1-6.15a1.453 1.453 0 0 1 2.33 0l2.384 3.58H460.6a1.4 1.4 0 1 1 0 2.8h-23.8a1.4 1.4 0 0 1-1.165-.62l-1.635-2.46-4.435 6.66a1.4 1.4 0 0 1-2.471-.28l-5.334-13.86-4.594 20.66a1.392 1.392 0 0 1-1.218 1.09.737.737 0 0 1-.148.01 1.416 1.416 0 0 1-1.271-.81z" transform="translate(-378 -1246)"></path>
		</symbol>
	
		<symbol id="about-school-7" viewBox="0 0 89 70">
			<defs><style>.cls-1{fill:#e05745;fill-rule:evenodd}</style></defs><path id="Заливка_цветом_1" data-name="Заливка цветом 1" class="cls-1" d="M732.857 1269.37a7.785 7.785 0 0 0 1.614-4.76 7.9 7.9 0 0 0-15.807 0 7.779 7.779 0 0 0 1.614 4.76h-.109a3.879 3.879 0 0 0-3.884 3.71l-.956 3.9v.14a3.877 3.877 0 0 0 3.887 3.86h14.7a3.877 3.877 0 0 0 3.888-3.86v-.14l-.957-3.9a3.877 3.877 0 0 0-3.883-3.71h-.109zm-.761-4.76a5.475 5.475 0 0 1-3.014 4.89l-2.513 1.28-2.518-1.28a5.505 5.505 0 1 1 8.049-4.89zm-12.88 14.01a1.506 1.506 0 0 1-1.508-1.38l.949-3.87v-.14a1.505 1.505 0 0 1 1.512-1.5h12.8a1.506 1.506 0 0 1 1.512 1.5v.14l.949 3.87a1.505 1.505 0 0 1-1.509 1.38h-14.7z" transform="translate(-675 -1244)"></path><path id="Заливка_цветом_2" data-name="Заливка цветом 2" class="cls-1" d="M759.31 1260.71a8.87 8.87 0 0 0 3.616-12.05 8.939 8.939 0 0 0-16.388 6.93l-4.136 2.22a19.4 19.4 0 0 0-34.165 4.87l-10.01-3.18a11.676 11.676 0 1 0-1.017 3.15l10.227 3.24a19.236 19.236 0 0 0 19.13 22.22 19.373 19.373 0 0 0 9.99-2.76l4.759 7.87a11.669 11.669 0 0 0-2.667 15.1 11.812 11.812 0 0 0 16.151 4.01 11.669 11.669 0 0 0 4.03-16.05 11.807 11.807 0 0 0-14.662-4.76l-4.914-8.13a19.112 19.112 0 0 0 4.824-22.72l4.039-2.17a8.984 8.984 0 0 0 11.193 2.21zm-4.261-14.35a6.529 6.529 0 0 1 3.131 12.28 6.651 6.651 0 0 1-3.116.78 6.567 6.567 0 0 1-4.807-2.07 6.374 6.374 0 0 1-.98-1.35 6.679 6.679 0 0 1-.6-1.56 6.55 6.55 0 0 1 6.372-8.08zm-59.475 14.03a9.527 9.527 0 0 1-.65 1.53 9.3 9.3 0 0 1-8.228 4.92 9.477 9.477 0 0 1-2.841-.44 9.264 9.264 0 0 1 2.838-18.1 9.475 9.475 0 0 1 2.84.44 9.292 9.292 0 0 1 6.041 11.65zm48.329 33.9a10.47 10.47 0 0 1 1.5-.72 9.333 9.333 0 1 1-4.721 13.54 9.307 9.307 0 0 1 1.873-11.83 10.037 10.037 0 0 1 1.345-.99zm-34.323-25.42a16.987 16.987 0 1 1 16.988 16.88 16.961 16.961 0 0 1-16.988-16.88z" transform="translate(-675 -1244)"></path>
		</symbol>
	
		<symbol id="about-school-8" viewBox="0 0 80 80.03">
			<defs><style>.cls-1{fill:#e05745;fill-rule:evenodd}</style></defs><path id="Заливка_цветом_1" data-name="Заливка цветом 1" class="cls-1" d="M984.8 1311.14l-12.874-12.77a4.759 4.759 0 0 1 0-6.74l2.741-2.72c-.632-1.92-2.214-7.43 1.413-10.99l6.326-6.29a3.286 3.286 0 0 1 4.6 0c1.213 1.22 2.657 5.52.38 7.8l-1.5-1.49c1.286-1.28.168-4.28-.38-4.83a1.138 1.138 0 0 0-1.6 0l-6.326 6.29c-3.332 3.31-.717 9.26-.685 9.32l.3.66-3.764 3.74a2.648 2.648 0 0 0 0 3.76l12.874 12.79a2.686 2.686 0 0 0 3.785 0l19.453-19.32 1.49 1.48-19.446 19.31a4.8 4.8 0 0 1-6.787 0z" transform="translate(-968 -1234.97)"></path><path id="Заливка_цветом_2" data-name="Заливка цветом 2" class="cls-1" d="M980.514 1313.95l-10.849-10.72a3.549 3.549 0 0 1 .261-4.78 3.6 3.6 0 0 1 4.81-.21l10.892 10.73a3.534 3.534 0 0 1 .718 3.86 3.588 3.588 0 0 1-5.832 1.12zm-9.691-13.76a1.452 1.452 0 0 0 .318 1.6L982 1312.52a1.494 1.494 0 0 0 2.108 0 1.479 1.479 0 0 0 0-2.1l-10.87-10.76a1.553 1.553 0 0 0-2.415.53z" transform="translate(-968 -1234.97)"></path><path id="Заливка_цветом_3" data-name="Заливка цветом 3" class="cls-1" d="M981.357 1283.92a1.048 1.048 0 0 1 0-1.48l9.912-9.84a1.051 1.051 0 0 1 1.486 1.48l-9.911 9.84a1.063 1.063 0 0 1-.738.3 1.006 1.006 0 0 1-.749-.3z" transform="translate(-968 -1234.97)"></path><path id="Заливка_цветом_4" data-name="Заливка цветом 4" class="cls-1" d="M1001.79 1283.05l-1.5-1.48a2.116 2.116 0 0 0-.02-3.02 2.163 2.163 0 0 0-3.044.02l-1.445-1.49a4.266 4.266 0 0 1 6.009 0 4.2 4.2 0 0 1 0 5.97z" transform="translate(-968 -1234.97)"></path><path id="Заливка_цветом_5" data-name="Заливка цветом 5" class="cls-1" d="M997.226 1278.57l-1.445-1.49a2.108 2.108 0 0 0 0-3 2.15 2.15 0 0 0-3.026 0l-1.486-1.48a4.253 4.253 0 0 1 5.983.02 4.191 4.191 0 0 1-.026 5.95z" transform="translate(-968 -1234.97)"></path><path id="Заливка_цветом_6" data-name="Заливка цветом 6" class="cls-1" d="M1009.33 1290.54a2.1 2.1 0 0 0 0-3 2.155 2.155 0 0 0-3.03 0l-1.48-1.48a4.255 4.255 0 0 1 6 0 4.2 4.2 0 0 1 0 5.97z" transform="translate(-968 -1234.97)"></path><path id="Заливка_цветом_7" data-name="Заливка цветом 7" class="cls-1" d="M1004.82 1286.06a2.131 2.131 0 0 0 0-3.01 2.155 2.155 0 0 0-3.03 0l-1.5-1.48a4.276 4.276 0 0 1 6.01 0 4.2 4.2 0 0 1 0 5.97z" transform="translate(-968 -1234.97)"></path><path id="Заливка_цветом_8" data-name="Заливка цветом 8" class="cls-1" d="M993.336 1280.49a1.036 1.036 0 0 1 .178-1.1l2.267-2.26a1.059 1.059 0 0 1 1.094-.49 1.036 1.036 0 0 1 .851.84 1.047 1.047 0 0 1-.5 1.09l-2.215 2.24a1.02 1.02 0 0 1-1.675-.32z" transform="translate(-968 -1234.97)"></path><path id="Заливка_цветом_9" data-name="Заливка цветом 9" class="cls-1" d="M997.8 1284.96a1.044 1.044 0 0 1 .234-1.14l2.252-2.25a1.068 1.068 0 0 1 1.5 0 1.044 1.044 0 0 1 0 1.48l-2.266 2.25a1.054 1.054 0 0 1-1.72-.34z" transform="translate(-968 -1234.97)"></path><path id="Заливка_цветом_10" data-name="Заливка цветом 10" class="cls-1" d="M1002.55 1289.79a1.06 1.06 0 0 1-.31-.75 1.037 1.037 0 0 1 .31-.74l2.27-2.24a1.049 1.049 0 0 1 1.48 1.48l-2.26 2.25a1.07 1.07 0 0 1-.74.3 1.094 1.094 0 0 1-.75-.3z" transform="translate(-968 -1234.97)"></path><path id="Заливка_цветом_11" data-name="Заливка цветом 11" class="cls-1" d="M1024.64 1278.82l-1.5-1.53 19.42-19.27a2.65 2.65 0 0 0 0-3.77l-12.84-12.78a2.68 2.68 0 0 0-3.78 0l-3.76 3.73-.7-.3c-.07 0-6.06-2.63-9.4.68l-6.32 6.29a1.1 1.1 0 0 0-.34.79 1.11 1.11 0 0 0 .34.81c.54.55 3.57 1.66 4.86.38l1.55 1.44c-2.29 2.28-6.64.84-7.85-.37a3.187 3.187 0 0 1 0-4.56l6.33-6.28c3.62-3.61 9.13-2.1 11.06-1.4l2.74-2.73a4.8 4.8 0 0 1 6.77 0l12.86 12.82a4.726 4.726 0 0 1 0 6.72z" transform="translate(-968 -1234.97)"></path><path id="Заливка_цветом_12" data-name="Заливка цветом 12" class="cls-1" d="M1044.42 1253.59a3.5 3.5 0 0 1-2.53-1.05l-10.85-10.76a3.59 3.59 0 0 1-1.06-2.53 3.5 3.5 0 0 1 1.06-2.51 3.68 3.68 0 0 1 5.07 0l10.85 10.77a3.557 3.557 0 0 1 1.05 2.52 3.516 3.516 0 0 1-1.05 2.52 3.571 3.571 0 0 1-2.53 1.04h-.01zm-11.9-15.37a1.423 1.423 0 0 0-.45 1.04 1.445 1.445 0 0 0 .45 1.05l10.86 10.76a1.449 1.449 0 0 0 1.05.43 1.485 1.485 0 0 0 1.49-1.48 1.413 1.413 0 0 0-.44-1.05l-10.87-10.75a1.443 1.443 0 0 0-1.04-.43 1.483 1.483 0 0 0-1.05.43z" transform="translate(-968 -1234.97)"></path><path id="Заливка_цветом_13" data-name="Заливка цветом 13" class="cls-1" d="M1005.05 1260.33a1.05 1.05 0 0 1 .23-1.14l9.87-9.83a1.045 1.045 0 0 1 1.02-.28 1.075 1.075 0 0 1 .75.74 1.045 1.045 0 0 1-.27 1.01l-9.91 9.85a1.035 1.035 0 0 1-1.69-.35z" transform="translate(-968 -1234.97)"></path><path id="Заливка_цветом_14" data-name="Заливка цветом 14" class="cls-1" d="M1009.79 1269.64a4.177 4.177 0 0 1 0-5.96l1.49 1.48a2.09 2.09 0 0 0 0 3.01 2.193 2.193 0 0 0 3.03 0l1.49 1.47a4.261 4.261 0 0 1-6.01 0z" transform="translate(-968 -1234.97)"></path><path id="Заливка_цветом_15" data-name="Заливка цветом 15" class="cls-1" d="M1005.28 1265.16a4.166 4.166 0 0 1 0-5.97l1.49 1.49a2.11 2.11 0 0 0 0 3 2.143 2.143 0 0 0 3.02-.01l1.49 1.48a4.237 4.237 0 0 1-6 .01z" transform="translate(-968 -1234.97)"></path><path id="Заливка_цветом_16" data-name="Заливка цветом 16" class="cls-1" d="M1017.86 1277.27a4.176 4.176 0 0 1 .97-4.62l1.49 1.5a2.094 2.094 0 0 0-.63 1.5 2.129 2.129 0 0 0 .63 1.5 2.2 2.2 0 0 0 3.02 0l1.49 1.48a4.313 4.313 0 0 1-6.97-1.36z" transform="translate(-968 -1234.97)"></path><path id="Заливка_цветом_17" data-name="Заливка цветом 17" class="cls-1" d="M1013.34 1272.79a4.155 4.155 0 0 1 .97-4.62l1.49 1.47a2.152 2.152 0 0 0-.63 1.51 2.094 2.094 0 0 0 .63 1.5 2.193 2.193 0 0 0 3.03 0l1.49 1.5a4.336 4.336 0 0 1-6.98-1.36z" transform="translate(-968 -1234.97)"></path><path id="Заливка_цветом_18" data-name="Заливка цветом 18" class="cls-1" d="M1009.79 1265.16a1.044 1.044 0 0 1 0-1.48l2.27-2.25a1.039 1.039 0 0 1 1.05-.33 1.069 1.069 0 0 1 .78.77 1.055 1.055 0 0 1-.34 1.04l-2.27 2.25a1.07 1.07 0 0 1-.74.3 1.01 1.01 0 0 1-.75-.3z" transform="translate(-968 -1234.97)"></path><path id="Заливка_цветом_19" data-name="Заливка цветом 19" class="cls-1" d="M1014.08 1269.31a1.015 1.015 0 0 1 .23-1.14l2.26-2.25a1.056 1.056 0 0 1 1.49 0 1.038 1.038 0 0 1 0 1.48l-2.26 2.24a1.029 1.029 0 0 1-.74.32 1.046 1.046 0 0 1-.98-.65z" transform="translate(-968 -1234.97)"></path><path id="Заливка_цветом_20" data-name="Заливка цветом 20" class="cls-1" d="M1018.6 1273.79a1.032 1.032 0 0 1 .23-1.14l2.26-2.24a1.05 1.05 0 0 1 1.49 0 1.044 1.044 0 0 1 0 1.48l-2.26 2.26a1.073 1.073 0 0 1-1.72-.36z" transform="translate(-968 -1234.97)"></path><path id="Заливка_цветом_21" data-name="Заливка цветом 21" class="cls-1" d="M1008.93 1312.3l-5.11-6.36a1.055 1.055 0 0 1-.19-1.05 1.074 1.074 0 0 1 .84-.67 1.054 1.054 0 0 1 .99.41l3.72 4.62 5-4.49 5.76 3.49 3.16-5.93 6.61 1.33.92-6.65 6.67-1.04-1.41-6.56 5.92-3.21-3.59-5.66 4.46-5.04-4.7-3.64a1.04 1.04 0 0 1-.19-1.47 1.061 1.061 0 0 1 1.48-.18l6.46 5.06-4.91 5.53 3.95 6.23-6.51 3.52 1.55 7.21-7.33 1.05-1.05 7.33-7.27-1.45-3.46 6.51-6.33-3.85z" transform="translate(-968 -1234.97)"></path><path id="Заливка_цветом_22" data-name="Заливка цветом 22" class="cls-1" d="M974.441 1277.07l-6.432-5.02 4.9-5.55-3.954-6.28 6.516-3.52-1.55-7.16 7.381-1.1 1.054-7.33 7.17 1.49 3.479-6.52 6.326 3.85 5.486-4.95 5.12 6.37a1.046 1.046 0 0 1-1.64 1.3l-3.69-4.62-5.012 4.51-5.788-3.5-3.164 5.92-6.6-1.32-.917 6.64-6.674 1.04 1.413 6.55-5.947 3.16 3.585 5.68-4.429 5.03 4.7 3.63a1.082 1.082 0 0 1-1.333 1.7z" transform="translate(-968 -1234.97)"></path><path id="Заливка_цветом_23" data-name="Заливка цветом 23" class="cls-1" d="M981.438 1265.65a1.048 1.048 0 0 1 .52-1.18l3.575-1.93-1.055-5.04 5.125-.76.706-5.1 5.082 1.05 1.9-3.57a1.067 1.067 0 0 1 1.423-.44 1.053 1.053 0 0 1 .422 1.38L996.5 1255l-4.428-.88-.612 4.44-4.47.67.949 4.39-4.956 2.68a1.04 1.04 0 0 1-.516.14 1.052 1.052 0 0 1-1.029-.79z" transform="translate(-968 -1234.97)"></path><path id="Заливка_цветом_24" data-name="Заливка цветом 24" class="cls-1" d="M1014.9 1300.46a1.032 1.032 0 0 1-.52-.62 1.056 1.056 0 0 1 .08-.8l2.64-4.99 4.43.89.61-4.45 4.47-.63-.92-4.39 4.96-2.67a1.064 1.064 0 0 1 1.16-.09 1.041 1.041 0 0 1-.19 1.91l-3.56 1.93 1.05 5.04-5.12.76-.71 5.11-5.08-1.04-1.91 3.56a1.058 1.058 0 0 1-.9.6 1.044 1.044 0 0 1-.49-.12z" transform="translate(-968 -1234.97)"></path><path id="Заливка_цветом_25" data-name="Заливка цветом 25" class="cls-1" d="M992.745 1266.44a1.053 1.053 0 1 1-.159-2.1l4.018-.6.548-3.99a1.064 1.064 0 0 1 2.109.28l-.77 5.55-5.578.84z" transform="translate(-968 -1234.97)"></path><path id="Заливка_цветом_26" data-name="Заливка цветом 26" class="cls-1" d="M1015.76 1291.02a1.035 1.035 0 0 1-.89-1.16l.76-5.55 5.57-.84a1.062 1.062 0 1 1 .32 2.1l-4.02.59-.55 4a1.043 1.043 0 0 1-1.04.86h-.15z" transform="translate(-968 -1234.97)"></path>
		</symbol>
	
		<symbol id="arrow" viewBox="0 0 10 6">
			<defs><style>.cls-1{fill:#e05745;fill-rule:evenodd}</style></defs><path id="arrow" class="cls-1" d="M384.1 743l-1.1 1.086 5 4.914 5-4.918-1.1-1.082-3.9 3.847z" transform="translate(-383 -743)"></path>
		</symbol>
	
		<symbol id="ic_metro" viewBox="0 0 16 11">
			<defs><style>.cls-1{fill:#ff4b33;fill-rule:evenodd}</style></defs><path id="ic_metro" class="cls-1" d="M109 1801.15h-1l-4.182-10.15-2.818 5.74-2.806-5.74-4.185 10.15H93v.85h5.762v-.85h-1.143l1.333-3.22L101 1802l2.056-4.07 1.326 3.22h-1.144v.85H109v-.85z" transform="translate(-93 -1791)"></path>
		</symbol>
	
</svg>
