<?xml version="1.0" encoding="iso-8859-1"?>
<!-- Generator: Adobe Illustrator 19.1.1, SVG Export Plug-In . SVG Version: 6.00 Build 0)  -->
<svg version="1.1" id="&#x421;&#x43B;&#x43E;&#x439;_1"
	 xmlns="http://www.w3.org/2000/svg" xmlns:xlink="http://www.w3.org/1999/xlink" x="0px" y="0px" viewBox="0 0 12.801 12.801"
	 style="enable-background:new 0 0 12.801 12.801;" xml:space="preserve">
<g>
	<defs>
		<rect id="SVGID_1_" y="0" width="12.801" height="12.801"/>
	</defs>
	<clipPath id="SVGID_2_">
		<use xlink:href="#SVGID_1_"  style="overflow:visible;"/>
	</clipPath>
	<path style="clip-path:url(#SVGID_2_);" d="M6.398,0C2.867,0,0,2.867,0,6.398c0,3.536,2.867,6.403,6.398,6.403
		c3.536,0,6.403-2.867,6.403-6.403C12.801,2.863,9.934,0,6.398,0 M8.055,6.398H7.004v3.84H5.566v-3.84H4.605v-1.32l0.961-0.004
		L5.562,4.297c0-1.078,0.293-1.738,1.567-1.738h1.059v1.324H7.523c-0.492,0-0.519,0.187-0.519,0.531v0.66h1.191L8.055,6.398z"/>
</g>
</svg>
