<?xml version="1.0" encoding="iso-8859-1"?>
<!-- Generator: Adobe Illustrator 19.1.1, SVG Export Plug-In . SVG Version: 6.00 Build 0)  -->
<svg version="1.1" id="&#x421;&#x43B;&#x43E;&#x439;_1"
	 xmlns="http://www.w3.org/2000/svg" xmlns:xlink="http://www.w3.org/1999/xlink" x="0px" y="0px" viewBox="0 0 11.801 11.801"
	 style="enable-background:new 0 0 11.801 11.801;" xml:space="preserve">
<g>
	<defs>
		<rect id="SVGID_1_" y="0" width="11.801" height="11.801"/>
	</defs>
	<clipPath id="SVGID_2_">
		<use xlink:href="#SVGID_1_"  style="overflow:visible;"/>
	</clipPath>
	<path style="clip-path:url(#SVGID_2_);" d="M5.898,0C2.641,0,0,2.641,0,5.898c0,3.262,2.641,5.903,5.898,5.903
		c3.262,0,5.903-2.641,5.903-5.903C11.801,2.641,9.16,0,5.898,0 M9.586,9.32c0,0.149-0.117,0.27-0.266,0.27H2.477
		c-0.145,0-0.266-0.121-0.266-0.27V2.477c0-0.145,0.121-0.266,0.266-0.266H9.32c0.149,0,0.266,0.121,0.266,0.266V9.32z M4.426,5.898
		c0-0.812,0.66-1.472,1.472-1.472c0.817,0,1.477,0.66,1.477,1.472c0,0.817-0.66,1.477-1.477,1.477
		C5.086,7.375,4.426,6.715,4.426,5.898 M7.375,2.949h1.477v1.477H7.375V2.949z M8.043,5.531h0.809v3.317H2.949V5.531h0.805
		C3.723,5.68,3.707,5.742,3.707,5.898c0,1.211,0.984,2.196,2.191,2.196c1.211,0,2.196-0.985,2.196-2.196
		C8.094,5.742,8.074,5.68,8.043,5.531"/>
</g>
</svg>
