<?xml version="1.0" encoding="iso-8859-1"?>
<!-- Generator: Adobe Illustrator 19.1.1, SVG Export Plug-In . SVG Version: 6.00 Build 0)  -->
<svg version="1.1" id="&#x421;&#x43B;&#x43E;&#x439;_1"
	 xmlns="http://www.w3.org/2000/svg" xmlns:xlink="http://www.w3.org/1999/xlink" x="0px" y="0px" viewBox="0 0 224.674 33.58"
	 style="enable-background:new 0 0 224.674 33.58;" xml:space="preserve">
<g>
	<defs>
		<rect id="SVGID_1_" y="0" width="224.674" height="33.58"/>
	</defs>
	<clipPath id="SVGID_2_">
		<use xlink:href="#SVGID_1_"  style="overflow:visible;"/>
	</clipPath>
	<path style="clip-path:url(#SVGID_2_);fill:#444EA1;" d="M13.071,4.365h-0.783l-0.112-1.791c-1.119-1.007-2.015-1.343-3.582-1.343
		c-3.245,0-5.147,2.127-5.147,5.596c0,3.805,2.35,6.267,5.819,6.267c1.343,0,2.574-0.336,3.917-1.007l0.224,0.224l-0.448,1.007
		c-1.455,0.783-2.686,1.119-4.588,1.119c-5.036,0-8.058-2.798-8.058-7.386C0.313,2.686,3.447,0,8.594,0
		c1.791,0,2.91,0.224,4.701,0.896l0.112,0.224C13.407,2.015,13.295,2.462,13.071,4.365"/>
	<path style="clip-path:url(#SVGID_2_);fill:#444EA1;" d="M28.851,14.101c-1.007,0-2.015,0-3.022,0.112v-0.784l1.119-0.112
		c0.56,0,0.448-0.783,0.336-1.119L26.165,9.96h-5.036l-0.895,2.238c-0.112,0.448-0.112,1.119,0.447,1.119l1.007,0.112v0.784
		c-0.783,0-1.566-0.112-2.238-0.112c-0.783,0-1.567,0-2.238,0.112v-0.784l0.56-0.112c0.447,0,0.783-0.447,1.119-1.231l3.693-8.841
		l1.119-3.021h1.455l5.26,12.198c0.223,0.56,0.559,0.784,1.119,0.895l0.447,0.112v0.784C30.977,14.101,29.858,14.101,28.851,14.101
		 M23.591,3.693l-2.014,5.148h4.14L23.591,3.693z"/>
	<path style="clip-path:url(#SVGID_2_);fill:#444EA1;" d="M51.233,14.101c-1.007,0-2.126,0-3.134,0.112V13.43l0.784-0.112
		c0.895-0.112,1.007-0.112,1.007-1.903V3.022l-4.141,8.617c-0.783,1.567-0.783,1.791-1.231,2.686h-0.671
		c-0.336-0.895-0.56-1.343-0.672-1.679l-4.588-9.624v8.393c0,1.791,0.112,1.903,1.007,2.015l0.784,0.111v0.784
		c-0.784,0-1.567-0.112-2.351-0.112c-0.783,0-1.566,0-2.35,0.112V13.43l0.784-0.112c0.895-0.112,1.007-0.224,1.007-2.015V3.134
		c0-1.791-0.112-1.903-1.007-2.015h-1.008V0.336c0.784,0,1.567,0.112,2.462,0.112c0.784,0,1.567,0,2.462-0.112l1.567,3.245
		l3.134,6.603l3.693-7.61l1.007-2.238c0.784,0,1.567,0.112,2.35,0.112c0.784,0,1.567,0,2.35-0.112v0.783l-0.783,0.112
		c-0.895,0.112-1.007,0.224-1.007,2.015v8.281c0,1.791,0,1.791,1.007,1.903l0.783,0.111v0.784
		C53.359,14.101,52.24,14.101,51.233,14.101"/>
	<path style="clip-path:url(#SVGID_2_);fill:#444EA1;" d="M68.915,13.989l-0.112,0.112c-1.119,0.112-1.679,0.112-2.798,0.112
		c-1.567,0-3.021-0.112-4.588-0.112c-0.784,0-1.679,0-2.462,0.112v-0.448l0.671-0.336c0.336-0.111,0.448-0.447,0.448-1.119V3.134
		c0-1.791-0.112-1.903-1.007-2.015h-0.784V0.336c1.231,0,2.574,0.112,3.805,0.112c1.567,0,3.134-0.112,4.813-0.112
		c0.783,0,1.119,0,1.902,0.112l0.112,0.112l-0.336,2.909h-0.671l-0.112-1.567c0-0.223-0.895-0.335-2.015-0.335l-2.909,0.112v4.812
		h1.343h1.343c0.895,0,1.119-0.112,1.119-0.448l0.112-1.119h0.783c0,0.672-0.112,1.455-0.112,2.126c0,0.672,0,1.455,0.112,2.127
		h-0.783L66.677,8.17c-0.112-0.56-0.336-0.784-1.119-0.784h-1.343c-0.448,0-0.784,0-1.343,0.112v5.372l3.021,0.112
		c0.896,0,2.015-0.224,2.015-0.336l0.447-1.902h0.784L68.915,13.989z"/>
	<path style="clip-path:url(#SVGID_2_);fill:#444EA1;" d="M84.583,14.101c-0.56,0-1.231,0-1.791,0.112L78.54,7.274V6.827
		c0.783,0,1.231-0.112,1.79-0.336c0.784-0.448,1.343-1.343,1.343-2.462c0-1.679-1.007-2.574-2.798-2.574
		c-0.559,0-0.895,0.112-1.231,0.224v9.848c0,1.791,0,1.791,1.008,1.903l0.783,0.111v0.784c-1.007,0-2.126-0.112-3.134-0.112
		c-1.007,0-2.126,0-3.133,0.112v-0.784l0.783-0.111c0.896-0.112,1.008-0.112,1.008-1.903V3.134c0-1.791-0.112-1.903-1.008-2.015
		h-0.895V0.336c1.231,0,2.35,0.112,3.581,0.112c1.343,0,2.686-0.112,4.029-0.112c2.574,0,3.805,1.007,3.805,2.91
		c0,0.895-0.336,1.566-0.895,2.238c-0.56,0.559-1.007,0.895-2.127,1.343l3.694,5.483c0.447,0.672,0.671,0.784,1.454,0.896v0.783
		C85.814,14.101,85.143,14.101,84.583,14.101"/>
	<path style="clip-path:url(#SVGID_2_);fill:#444EA1;" d="M101.258,14.101c-1.007,0-2.014,0-3.022,0.112v-0.784l1.119-0.112
		c0.56,0,0.448-0.783,0.336-1.119l-0.895-2.35H93.76l-0.895,2.238c-0.112,0.448-0.112,1.12,0.447,1.12l1.007,0.111v0.784
		c-0.783,0-1.566-0.112-2.238-0.112c-0.783,0-1.567,0-2.238,0.112v-0.672l0.559-0.112c0.448,0,0.784-0.447,1.12-1.231l3.693-8.841
		l1.119-3.021h1.455l5.26,12.198c0.223,0.56,0.559,0.784,1.119,0.895l0.335,0.112v0.784
		C103.384,14.101,102.377,14.101,101.258,14.101 M96.11,3.693l-2.014,5.148h4.14L96.11,3.693z"/>
	<path style="clip-path:url(#SVGID_2_);fill:#444EA1;" d="M119.052,3.693h-0.783l-0.112-1.343c-0.336-0.783-0.448-0.671-1.455-0.671
		h-2.35v9.736c0,1.791,0,1.791,1.007,1.902l0.783,0.112v0.784c-1.007,0-2.126-0.112-3.133-0.112c-1.007,0-2.127,0-3.134,0.112
		v-0.784l0.784-0.112c0.895-0.111,1.007-0.111,1.007-1.902V1.679h-2.35c-0.672,0-1.343-0.112-1.455,0.671l-0.112,1.343h-0.784
		c-0.111-1.567-0.111-2.238-0.223-3.245V0.336c2.126,0,4.14,0.112,6.267,0.112c2.126,0,4.14,0,6.267-0.112l0.112,0.112
		C119.164,1.455,119.164,2.126,119.052,3.693"/>
	<path style="clip-path:url(#SVGID_2_);fill:#444EA1;" d="M133.041,14.101c-1.007,0-2.014,0-3.022,0.112v-0.784l1.119-0.112
		c0.56,0,0.448-0.783,0.336-1.119l-0.895-2.35h-5.036l-0.895,2.238c-0.112,0.448-0.112,1.12,0.447,1.12l1.007,0.111v0.784
		c-0.783,0-1.566-0.112-2.238-0.112c-0.783,0-1.567,0-2.238,0.112v-0.672l0.559-0.112c0.448,0,0.784-0.447,1.12-1.231l3.581-8.729
		l1.119-3.021h1.455l5.26,12.198c0.223,0.56,0.559,0.783,1.119,0.895l0.447,0.112v0.784
		C135.167,14.101,134.16,14.101,133.041,14.101 M127.893,3.693l-2.014,5.148h4.14L127.893,3.693z"/>
	<path style="clip-path:url(#SVGID_2_);fill:#444EA1;" d="M161.355,1.231c-0.448,0-0.671,0.336-0.895,0.895l-4.141,10.072
		c-0.336,0.672-0.56,1.343-0.783,2.015h-1.567l-4.812-11.527c-0.448-1.007-0.784-1.455-1.232-1.455l-0.895-0.112V0.336
		c1.119,0,2.127,0.112,3.134,0.112c1.119,0,2.126,0,3.245-0.112v0.783l-1.007,0.112c-0.336,0-0.56,0.224-0.56,0.336
		c0,0.335,0,0.447,0.448,1.455l3.134,7.833l2.909-7.162c0.448-1.119,0.672-1.679,0.672-2.014c0-0.336-0.336-0.448-0.784-0.56h-0.895
		V0.336c0.784,0,1.567,0.112,2.35,0.112c0.784,0,1.567,0,2.35-0.112v0.783L161.355,1.231z"/>
	<path style="clip-path:url(#SVGID_2_);fill:#444EA1;" d="M176.127,13.989l-0.112,0.112c-1.119,0.112-1.679,0.112-2.798,0.112
		c-1.567,0-3.021-0.112-4.588-0.112c-0.784,0-1.679,0-2.462,0.112v-0.448l0.671-0.336c0.336-0.111,0.448-0.447,0.448-1.119V3.134
		c0-1.791-0.112-1.903-1.007-2.015h-0.784V0.336c1.231,0,2.574,0.112,3.805,0.112c1.567,0,3.134-0.112,4.813-0.112
		c0.783,0,1.119,0,1.902,0.112l0.112,0.112l-0.336,2.909h-0.671l-0.112-1.567c0-0.223-0.895-0.335-2.015-0.335l-2.909,0.112v4.812
		h1.343h1.343c0.895,0,1.119-0.112,1.119-0.448l0.112-1.119h0.783c0,0.672-0.112,1.455-0.112,2.126c0,0.672,0,1.455,0.112,2.127
		h-0.783l-0.112-1.007c-0.112-0.56-0.336-0.784-1.119-0.784h-1.343c-0.448,0-0.784,0-1.343,0.112v5.372l3.021,0.112
		c0.896,0,2.015-0.224,2.015-0.336l0.447-1.902h0.784L176.127,13.989z"/>
	<path style="clip-path:url(#SVGID_2_);fill:#444EA1;" d="M194.817,1.231c-0.895,0.112-1.007,0.224-1.007,2.014v9.065l0.112,2.015
		l-0.112,0.112l-1.679-0.224l-2.462-2.798l-6.603-7.946v7.946c0,1.791,0.112,1.903,1.007,2.014l0.784,0.112v0.784
		c-0.784,0-1.567-0.112-2.35-0.112c-0.784,0-1.567,0-2.351,0.112v-0.896l0.784-0.111c0.895-0.112,1.007-0.224,1.007-2.015V3.134
		c0-1.791-0.112-1.903-1.007-2.015h-0.784V0.336c0.784,0,1.567,0.112,2.463,0.112c0.559,0,1.119,0,1.678-0.112
		c1.343,1.678,1.679,2.238,2.127,2.686l6.267,7.386V3.134c0-1.791-0.112-1.903-1.008-2.015H190.9V0.336
		c0.783,0,1.567,0.112,2.35,0.112c0.784,0,1.567,0,2.35-0.112v0.783L194.817,1.231z"/>
	<path style="clip-path:url(#SVGID_2_);fill:#444EA1;" d="M202.651,14.101c-1.007,0-2.126,0-3.134,0.112V13.43l0.784-0.112
		c0.895-0.112,1.007-0.112,1.007-1.903V3.134c0-1.791,0-1.791-1.007-1.903l-0.784-0.112V0.336c1.008,0,2.127,0.112,3.134,0.112
		c1.007,0,2.126,0,3.134-0.112v0.783l-0.784,0.112c-0.895,0.112-0.895,0.112-0.895,1.903v8.281c0,1.791,0,1.791,1.007,1.903
		l0.783,0.112v0.783C204.665,14.101,203.658,14.101,202.651,14.101"/>
	<path style="clip-path:url(#SVGID_2_);fill:#444EA1;" d="M221.116,14.101c-1.007,0-2.015,0-3.022,0.112v-0.784l1.119-0.112
		c0.56,0,0.448-0.783,0.336-1.119l-0.895-2.35h-5.036l-0.896,2.238c-0.111,0.448-0.111,1.12,0.448,1.12l1.007,0.111v0.784
		c-0.783,0-1.566-0.112-2.238-0.112c-0.783,0-1.567,0-2.238,0.112v-0.672l0.559-0.112c0.448,0,0.784-0.447,1.119-1.231l3.694-8.841
		l1.119-3.021h1.455l5.259,12.198c0.224,0.56,0.56,0.784,1.12,0.895l0.223,0.112v0.784C223.13,14.101,222.123,14.101,221.116,14.101
		 M215.856,3.693l-2.014,5.148h4.14L215.856,3.693z"/>
	<path style="clip-path:url(#SVGID_2_);fill:#444EA1;" d="M4.852,24.699H0.101v0.944h0.731c0.436,0,0.436,0,0.436,0.825v5.575
		c0,0.175-0.081,0.359-0.167,0.465l-0.482,0.16v0.625h3.584c1.607,0,2.836-0.414,3.651-1.229c1.004-1.004,1.487-2.262,1.359-3.522
		C9.213,26.243,7.461,24.699,4.852,24.699 M6.534,31.618c-0.649,0.52-1.4,0.732-2.59,0.732c-0.401,0-0.732,0-0.954-0.063v-6.711
		c0.224-0.063,0.568-0.063,1.084-0.063c1.336,0,2.262,0.277,2.832,0.846c0.468,0.468,0.716,1.313,0.716,2.443
		C7.622,30.052,7.244,31.026,6.534,31.618"/>
	<path style="clip-path:url(#SVGID_2_);fill:#444EA1;" d="M11.771,25.513h0.731c0.436,0,0.436,0,0.436,0.825v5.316
		c0,0.825-0.075,0.825-0.436,0.825h-0.731v0.814h3.796v-0.814h-0.731c-0.436,0-0.436,0-0.436-0.825v-5.316
		c0-0.825,0.075-0.825,0.436-0.825h0.731v-0.814h-3.796V25.513z"/>
	<path style="clip-path:url(#SVGID_2_);fill:#444EA1;" d="M25.377,32.302l-2.509-3.226c0.565-0.12,0.82-0.258,1.172-0.493
		c0.603-0.453,0.993-1.182,0.993-1.856c0-0.758-0.331-2.028-2.547-2.028h-4.361v0.814h0.731c0.435,0,0.435,0,0.435,0.825v5.316
		c0,0.825-0.075,0.825-0.435,0.825h-0.731v0.944h3.796v-0.814H21.19c-0.436,0-0.436,0-0.436-0.825v-6.065
		c0.309-0.076,0.624-0.076,0.954-0.076c1.553,0,1.733,0.766,1.733,1.343c0,1.325-1.083,1.603-1.992,1.603h-0.602l0.003,0.433
		l0.062,0.062c0.249,0.249,0.363,0.363,0.495,0.62l2.08,2.861l0.583,0.728h2v-0.814h-0.212
		C25.47,32.479,25.468,32.474,25.377,32.302"/>
	<path style="clip-path:url(#SVGID_2_);fill:#444EA1;" d="M34.339,31.732c-0.133,0.533-0.215,0.702-0.25,0.755l-0.028,0.014
		c-0.215,0.107-1.221,0.107-2.109,0.107c-0.548,0-0.702,0-0.955-0.073v-3.003h1.733c0.472,0,0.494,0,0.565,0.212v0.826h0.814v-3.148
		h-0.814v0.861c0,0.153,0,0.176-0.565,0.176h-1.733v-2.741c0.288-0.076,0.552-0.076,1.214-0.076c0.62,0,1.262,0,1.591,0.108
		c0.068,0.034,0.136,0.067,0.137,0.057c0.005,0.018,0.005,0.084,0.005,0.141v0.991h0.814v-0.212c0-0.766,0-1.271,0.123-1.764
		l0.066-0.264h-6.709v0.814h0.731c0.436,0,0.436,0,0.436,0.825v5.316c0,0.825-0.075,0.825-0.436,0.825h-0.601v0.814h6.519V33.08
		c0-0.643,0.134-1.274,0.249-1.618l0.093-0.28h-0.896L34.339,31.732z"/>
	<path style="clip-path:url(#SVGID_2_);fill:#444EA1;" d="M45.472,31.983c-0.866,0.433-1.597,0.626-2.369,0.626
		c-2.2,0-3.678-1.478-3.678-3.678c0-2.108,1.211-3.418,3.159-3.418c1.231,0,2.122,0.415,2.122,0.695v1.121h0.684v-0.213
		c0-0.435,0.06-0.741,0.143-1.166c0.036-0.182,0.075-0.38,0.114-0.614l0.028-0.173l-0.163-0.061
		c-1.008-0.378-1.818-0.532-2.798-0.532c-1.327,0-2.271,0.217-2.954,0.674c-1.43,0.78-2.186,2.099-2.186,3.817
		c0,2.728,1.916,4.491,4.881,4.491c0.979,0,1.927-0.225,2.818-0.67l0.747-0.557l-0.411-0.41L45.472,31.983z"/>
	<path style="clip-path:url(#SVGID_2_);fill:#444EA1;" d="M48.341,24.823c0.125,0.628,0.125,1.135,0.125,1.903v0.213h0.814v-1.12
		c0-0.107,0-0.177,0.307-0.177h1.603v6.012c0,0.825-0.076,0.825-0.437,0.825h-0.731v0.813h3.797v-0.813h-0.731
		c-0.436,0-0.436,0-0.436-0.825v-6.012h1.603c0.306,0,0.306,0.07,0.306,0.177v1.12h0.814v-0.213c0-0.377,0.03-0.654,0.063-0.949
		c0.033-0.292,0.067-0.595,0.067-0.995v-0.213H48.29L48.341,24.823z"/>
	<path style="clip-path:url(#SVGID_2_);fill:#444EA1;" d="M57.803,25.513h0.731c0.436,0,0.436,0,0.436,0.825v5.316
		c0,0.825-0.075,0.825-0.436,0.825h-0.731v0.814h3.796v-0.814h-0.731c-0.436,0-0.436,0-0.436-0.825v-5.316
		c0-0.825,0.075-0.825,0.436-0.825h0.731v-0.814h-3.796V25.513z"/>
	<path style="clip-path:url(#SVGID_2_);fill:#444EA1;" d="M68.778,24.439c-2.797,0-4.751,1.901-4.751,4.622
		c0,2.56,1.876,4.491,4.362,4.491c2.782,0,4.88-2.098,4.88-4.88C73.269,26.101,71.506,24.439,68.778,24.439 M65.749,28.542
		c0-2.008,1.01-3.159,2.77-3.159c1.912,0,3.033,1.31,3.159,3.678c0,2.188-1.062,3.547-2.77,3.547
		C66.959,32.608,65.749,31.05,65.749,28.542"/>
	<path style="clip-path:url(#SVGID_2_);fill:#444EA1;" d="M82.18,25.513h0.731c0.436,0,0.436,0,0.436,0.825v4.978l-5.392-6.617
		h-2.388v0.814h0.731c0.436,0,0.436,0,0.436,0.825v5.316c0,0.825-0.075,0.825-0.436,0.825h-0.731v0.814h3.277v-0.814h-0.731
		c-0.436,0-0.436,0-0.436-0.825v-4.838l5.251,6.594l1.362,0.17v-7.242c0-0.825,0.076-0.825,0.437-0.825h0.731v-0.814H82.18V25.513z"
		/>
	<path style="clip-path:url(#SVGID_2_);fill:#444EA1;" d="M97.611,30.415l1.25,0.154c0.142,0,0.177,0.035,0.177,0.177v1.167
		c0,0.109-0.032,0.186-0.066,0.267c-0.022,0.055-0.046,0.111-0.057,0.175c-0.104,0.095-0.606,0.253-1.48,0.253
		c-2.234,0-3.678-1.494-3.678-3.807c0-2.204,1.168-3.418,3.289-3.418c0.487,0,1.118,0.124,1.521,0.256
		c0.392,0.066,0.859,0.24,0.859,0.698v0.861h0.815v-0.213c0-0.532,0.092-0.98,0.199-1.498l0.094-0.465l-0.186-0.055
		c-1.365-0.41-2.018-0.528-2.913-0.528c-3.103,0-5.27,1.9-5.27,4.621c0,1.245,0.425,2.328,1.241,3.144
		c1.044,0.894,2.268,1.348,3.64,1.348c0.702,0,1.501-0.203,2.711-0.508l0.743-0.187v-2.241c0-0.066,0-0.143,0.004-0.194l0.385-0.193
		v-0.603h-3.278V30.415z"/>
	<path style="clip-path:url(#SVGID_2_);fill:#444EA1;" d="M109.547,31.603c-0.039,0.155-0.066,0.288-0.089,0.398
		c-0.016,0.078-0.034,0.164-0.05,0.219l-0.048,0.049c-0.124,0.073-0.973,0.21-2.46,0.21c-0.41,0-0.637,0-0.824-0.059v-6.082
		c0-0.825,0.075-0.825,0.436-0.825h0.731v-0.814h-3.797v0.944h0.732c0.435,0,0.435,0,0.435,0.825v5.575
		c0,0.175-0.081,0.36-0.167,0.465l-0.481,0.16v0.625h6.214l0.075-0.302c0.119-0.462,0.23-0.899,0.23-1.985v-0.213h-0.776
		L109.547,31.603z"/>
	<path style="clip-path:url(#SVGID_2_);fill:#444EA1;" d="M119.012,31.732c-0.134,0.533-0.214,0.703-0.25,0.755l-0.027,0.014
		c-0.215,0.107-1.222,0.107-2.11,0.107c-0.548,0-0.702,0-0.955-0.073v-3.003h1.733c0.472,0,0.494,0,0.565,0.212v0.826h0.814v-3.148
		h-0.814v0.861c0,0.153,0,0.176-0.565,0.176h-1.733v-2.741c0.288-0.076,0.552-0.076,1.214-0.076c0.62,0,1.262,0,1.591,0.108
		c0.068,0.034,0.139,0.067,0.137,0.057c0.005,0.018,0.005,0.084,0.005,0.141v0.991h0.944v-0.212c0-0.766,0-1.271,0.122-1.764
		l0.067-0.264h-6.709v0.814h0.731c0.436,0,0.436,0,0.436,0.825v5.316c0,0.825-0.075,0.825-0.436,0.825h-0.601v0.814h6.519V33.08
		c0-0.621,0-1.262,0.119-1.618l0.093-0.28h-0.897L119.012,31.732z"/>
	<path style="clip-path:url(#SVGID_2_);fill:#444EA1;" d="M128.423,28.761c-0.306-0.23-0.579-0.337-0.903-0.407
		c0.076-0.044,0.154-0.094,0.237-0.149c0.679-0.408,1.01-0.976,1.01-1.738c0-1.173-0.77-1.768-2.287-1.768h-4.103v0.943h0.602
		c0.436,0,0.436,0,0.436,0.825v5.576c0,0.271-0.069,0.498-0.116,0.574l-0.403,0.202v0.603h2.935c0.908,0,1.734-0.244,2.327-0.687
		c0.856-0.573,1.263-1.56,0.998-2.412C129.147,29.644,128.871,29.06,128.423,28.761 M127.694,30.746
		c0,1.101-0.726,1.733-1.992,1.733c-0.306,0-0.513,0-0.695-0.06v-3.405h0.566c0.926,0,1.527,0.165,1.837,0.505
		C127.651,29.783,127.744,30.178,127.694,30.746 M125.702,28.07h-0.566v-2.498c0.183-0.059,0.389-0.059,0.695-0.059
		c1.107,0,1.61,0.36,1.733,1.213C127.564,27.837,126.552,28.07,125.702,28.07"/>
	<path style="clip-path:url(#SVGID_2_);fill:#444EA1;" d="M141.931,29.17c-0.415-0.415-0.95-0.701-2.316-0.837
		c-1.497-0.272-1.77-0.667-1.77-1.347c0-0.881,0.644-1.473,1.602-1.473c0.359,0,0.844,0.122,1.049,0.224
		c0.373,0.248,0.424,0.321,0.428,0.642l0.164,0.82h0.776v-0.213c0-0.633,0-1.016,0.125-1.644l0.034-0.169l-0.158-0.068
		c-0.934-0.4-1.479-0.536-2.159-0.536c-1.926,0-3.324,1.235-3.324,2.936c0,0.697,0.213,1.206,0.614,1.473
		c0.412,0.275,0.96,0.549,2.161,0.682c0.776,0.111,1.338,0.231,1.566,0.459c0.208,0.207,0.327,0.531,0.327,0.887
		c0,0.974-0.731,1.603-1.863,1.603c-0.916,0-1.732-0.389-1.734-0.73l-0.159-0.956h-0.782v0.731c0,0.516,0,0.752-0.123,1.246
		l-0.045,0.179l0.172,0.069c0.632,0.253,1.436,0.404,2.153,0.404c2.323,0,3.713-1.502,3.843-2.935
		C142.512,29.86,142.334,29.433,141.931,29.17"/>
	<path style="clip-path:url(#SVGID_2_);fill:#444EA1;" d="M152.431,32.15l-3.728-3.603l2.953-2.707
		c0.214-0.215,0.543-0.327,0.758-0.327h0.731v-0.814h-2.37l0.002,0.451c-0.012,0.04-0.08,0.139-0.329,0.389l-2.879,2.88v-2.081
		c0-0.825,0.074-0.825,0.435-0.825h0.731v-0.814h-3.795v0.814h0.731c0.435,0,0.435,0,0.435,0.825v5.317
		c0,0.824-0.074,0.824-0.435,0.824h-0.731v0.814h3.795v-0.814h-0.731c-0.435,0-0.435,0-0.435-0.824v-2.217l3.98,3.855h0.994
		c0.241,0,0.468,0,0.682,0.108l0.308,0.154v-0.946h-0.471C152.902,32.609,152.827,32.546,152.431,32.15"/>
	<path style="clip-path:url(#SVGID_2_);fill:#444EA1;" d="M161.149,25.513h0.861c0.051,0,0.084,0.01,0.098,0.029
		c0.029,0.041,0.053,0.186-0.037,0.459l-2.006,5.073l-2.116-5.41c0.017-0.051,0.07-0.151,0.17-0.151h0.861v-0.814h-3.537v0.943
		h0.602c0.107,0,0.192,0,0.322,0.386l2.206,5.45c0.384,0.899,0.509,1.272,0.635,1.903l0.034,0.171h0.822l0.156-0.009l0.049-0.145
		c0.256-0.768,0.385-1.153,0.77-2.053l2.076-5.058c0.213-0.535,0.329-0.774,0.451-0.774h0.601v-0.814h-3.018V25.513z"/>
	<path style="clip-path:url(#SVGID_2_);fill:#444EA1;" d="M170.308,24.439c-2.798,0-4.752,1.901-4.752,4.622
		c0,2.56,1.876,4.491,4.362,4.491c2.783,0,4.881-2.098,4.881-4.88C174.799,26.101,173.036,24.439,170.308,24.439 M167.408,28.542
		c0-2.008,1.009-3.159,2.769-3.159c1.858,0,3.039,1.379,3.16,3.678c0,2.188-1.062,3.547-2.77,3.547
		C168.618,32.608,167.408,31.05,167.408,28.542"/>
	<path style="clip-path:url(#SVGID_2_);fill:#444EA1;" d="M184.479,32.302l-2.509-3.226c0.565-0.12,0.82-0.258,1.173-0.493
		c0.602-0.453,0.992-1.182,0.992-1.856c0-0.758-0.331-2.028-2.547-2.028h-4.361v0.814h0.731c0.435,0,0.435,0,0.435,0.825v5.316
		c0,0.825-0.074,0.825-0.435,0.825h-0.731v0.814h3.796v-0.814h-0.731c-0.436,0-0.436,0-0.436-0.825V25.59
		c0.309-0.077,0.624-0.077,0.955-0.077c1.553,0,1.732,0.767,1.732,1.344c0,1.325-1.083,1.603-1.992,1.603h-0.602v0.429l0.063,0.063
		c0.249,0.25,0.364,0.363,0.498,0.624l2.21,2.989l0.582,0.728h2v-0.814h-0.212C184.677,32.479,184.564,32.463,184.479,32.302"/>
	<path style="clip-path:url(#SVGID_2_);fill:#444EA1;" d="M187.086,24.823c0.125,0.628,0.125,1.135,0.125,1.903v0.213h0.814v-1.12
		c0-0.107,0-0.177,0.307-0.177h1.602v6.012c0,0.825-0.075,0.825-0.436,0.825h-0.731v0.813h3.797v-0.813h-0.731
		c-0.437,0-0.437,0-0.437-0.825v-6.012H193c0.306,0,0.306,0.07,0.306,0.177v1.12h0.814v-0.213c0-0.777,0-1.132,0.248-1.877
		l0.093-0.28h-7.426L187.086,24.823z"/>
	<path style="clip-path:url(#SVGID_2_);fill:#444EA1;" d="M202.097,29.17c-0.416-0.415-0.951-0.701-2.316-0.837
		c-1.497-0.272-1.771-0.667-1.771-1.347c0-0.881,0.644-1.473,1.602-1.473c0.359,0,0.844,0.122,1.05,0.224
		c0.373,0.248,0.424,0.322,0.428,0.642l0.164,0.82h0.776v-0.213c0-0.633,0-1.016,0.125-1.644l0.034-0.169l-0.158-0.068
		c-0.935-0.4-1.48-0.536-2.159-0.536c-1.926,0-3.324,1.235-3.324,2.936c0,0.697,0.212,1.206,0.613,1.473
		c0.413,0.275,0.962,0.549,2.163,0.682c0.775,0.111,1.337,0.231,1.565,0.459c0.207,0.207,0.327,0.531,0.327,0.887
		c0,0.974-0.731,1.603-1.863,1.603c-0.917,0-1.732-0.389-1.735-0.73l-0.159-0.956h-0.782v0.731c0,0.516,0,0.752-0.123,1.246
		l-0.045,0.179l0.172,0.069c0.633,0.253,1.437,0.404,2.154,0.404c2.323,0,3.713-1.502,3.843-2.935
		C202.678,29.86,202.5,29.433,202.097,29.17"/>
	<path style="clip-path:url(#SVGID_2_);fill:#444EA1;" d="M209.727,24.439c-2.797,0-4.751,1.901-4.751,4.622
		c0,2.56,1.876,4.491,4.362,4.491c2.691,0,4.88-2.189,4.88-4.88C214.218,26.101,212.456,24.439,209.727,24.439 M206.698,28.542
		c0-2.008,1.009-3.159,2.769-3.159c1.912,0,3.034,1.31,3.16,3.678c0,2.188-1.062,3.547-2.77,3.547
		C207.908,32.608,206.698,31.05,206.698,28.542"/>
	<path style="clip-path:url(#SVGID_2_);fill:#444EA1;" d="M221.444,24.699v0.814h0.861c0.051,0,0.084,0.01,0.098,0.029
		c0.029,0.041,0.054,0.186-0.036,0.459l-2.006,5.073l-2.116-5.41c0.016-0.051,0.069-0.151,0.17-0.151h0.86v-0.814h-3.536v0.944
		h0.601c0.108,0,0.193,0,0.322,0.385l2.206,5.451c0.383,0.894,0.508,1.267,0.636,1.903l0.034,0.17h0.976l0.048-0.145
		c0.255-0.765,0.382-1.149,0.772-2.061l2.076-5.059c0.214-0.535,0.33-0.774,0.451-0.774h0.601v-0.814H221.444z"/>
	<rect y="19.159" style="clip-path:url(#SVGID_2_);fill:#444EA1;" width="224.674" height="1.186"/>
</g>
</svg>
