<?xml version="1.0" encoding="iso-8859-1"?>
<!-- Generator: Adobe Illustrator 19.1.1, SVG Export Plug-In . SVG Version: 6.00 Build 0)  -->
<svg version="1.1" id="&#x421;&#x43B;&#x43E;&#x439;_1"
	 xmlns="http://www.w3.org/2000/svg" xmlns:xlink="http://www.w3.org/1999/xlink" x="0px" y="0px" viewBox="0 0 12.96 10"
	 style="enable-background:new 0 0 12.96 10;" xml:space="preserve">
<g>
	<defs>
		<rect id="SVGID_1_" width="12.96" height="10"/>
	</defs>
	<clipPath id="SVGID_2_">
		<use xlink:href="#SVGID_1_"  style="overflow:visible;"/>
	</clipPath>
	<path style="clip-path:url(#SVGID_2_);" d="M12.691,2.133c-0.07-0.852-0.578-1.926-1.621-1.965c-2.918-0.196-6.371-0.25-9.34,0
		C0.809,0.269,0.18,1.39,0.109,2.246c-0.144,1.789-0.144,2.805,0,4.598C0.18,7.695,0.793,8.82,1.73,8.941
		c3.004,0.196,6.442,0.223,9.34,0c0.907-0.16,1.551-1.246,1.621-2.097C12.836,5.051,12.836,3.922,12.691,2.133 M4.801,6.812V2.226
		l4,2.293L4.801,6.812z"/>
</g>
</svg>
