<svg xmlns="http://www.w3.org/2000/svg" xmlns:xlink="http://www.w3.org/1999/xlink" width="35.12" height="17.156" viewBox="0 0 35.12 17.156">
  <metadata><?xpacket begin="﻿" id="W5M0MpCehiHzreSzNTczkc9d"?>
<x:xmpmeta xmlns:x="adobe:ns:meta/" x:xmptk="Adobe XMP Core 5.6-c142 79.160924, 2017/07/13-01:06:39        ">
   <rdf:RDF xmlns:rdf="http://www.w3.org/1999/02/22-rdf-syntax-ns#">
      <rdf:Description rdf:about=""/>
   </rdf:RDF>
</x:xmpmeta>
                                                                                                    
                                                                                                    
                                                                                                    
                                                                                                    
                                                                                                    
                                                                                                    
                                                                                                    
                                                                                                    
                                                                                                    
                                                                                                    
                                                                                                    
                                                                                                    
                                                                                                    
                                                                                                    
                                                                                                    
                                                                                                    
                                                                                                    
                                                                                                    
                                                                                                    
                                                                                                    
                           
<?xpacket end="w"?></metadata>
<defs>
    <style>
      .cls-1 {
        fill: #cfcdd2;
        fill-rule: evenodd;
        filter: url(#filter);
      }
    </style>
    <filter id="filter" x="1766.63" y="544" width="35.12" height="17.156" filterUnits="userSpaceOnUse">
      <feGaussianBlur result="blur" in="SourceAlpha"/>
      <feFlood result="flood" flood-opacity="0.15"/>
      <feComposite result="composite" operator="out" in2="blur"/>
      <feOffset result="offset" dy="2"/>
      <feComposite result="composite-2" operator="in" in2="SourceAlpha"/>
      <feBlend result="blend" mode="multiply" in2="SourceGraphic"/>
    </filter>
  </defs>
  <path class="cls-1" d="M1800.39,552.541l-3.86-.934-2.77-2.761c-0.46-.468-1.03-1.027-1.24-1.245a1.539,1.539,0,0,0-.92-0.395h-3.64a1.214,1.214,0,0,0-1.21,1.2v8.8a1.414,1.414,0,0,0,1.41,1.4h4.39a3.57,3.57,0,0,1,7.14,0h0.66a1.414,1.414,0,0,0,1.41-1.4v-2.932A1.881,1.881,0,0,0,1800.39,552.541Zm-11.22-3.413h2.19a0.5,0.5,0,0,1,.28.129c0.07,0.071.44,0.447,0.83,0.837l2.07,2.067c0.39,0.39.26,0.709-.29,0.709h-5.08a0.414,0.414,0,0,1-.41-0.41v-2.927a0.4,0.4,0,0,1,.16-0.322A0.426,0.426,0,0,1,1789.17,549.128ZM1784.25,544h-16.21a1.414,1.414,0,0,0-1.41,1.4v11.8a1.415,1.415,0,0,0,1.41,1.4h0.58a3.57,3.57,0,0,1,7.14,0h8.49a1.406,1.406,0,0,0,1.4-1.4V545.4A1.405,1.405,0,0,0,1784.25,544Zm11.87,12.047a2.563,2.563,0,1,0,2.56,2.563A2.566,2.566,0,0,0,1796.12,556.046Zm0,3.844a1.281,1.281,0,1,1,1.28-1.281A1.288,1.288,0,0,1,1796.12,559.89Zm-23.93-3.843a2.562,2.562,0,1,0,2.56,2.561A2.565,2.565,0,0,0,1772.19,556.047Zm0,3.843a1.281,1.281,0,1,1,1.28-1.281A1.288,1.288,0,0,1,1772.19,559.89Z" transform="translate(-1766.63 -544)"/>
</svg>
