<svg xmlns="http://www.w3.org/2000/svg" xmlns:xlink="http://www.w3.org/1999/xlink" width="0" height="0" style="position:absolute">
	
		<symbol id="facebook-logo" viewBox="0 0 90 90">
			<path d="M90 15.001C90 7.119 82.884 0 75 0H15C7.116 0 0 7.119 0 15.001v59.998C0 82.881 7.116 90 15.001 90H45V56H34V41h11v-5.844C45 25.077 52.568 16 61.875 16H74v15H61.875C60.548 31 59 32.611 59 35.024V41h15v15H59v34h16c7.884 0 15-7.119 15-15.001V15.001z"></path>
		</symbol>
	
		<symbol id="favorite-heart-button" viewBox="0 0 510 510">
			<path d="M255 489.6l-35.7-35.7C86.7 336.6 0 257.55 0 160.65 0 81.6 61.2 20.4 140.25 20.4c43.35 0 86.7 20.4 114.75 53.55C283.05 40.8 326.4 20.4 369.75 20.4 448.8 20.4 510 81.6 510 160.65c0 96.9-86.7 175.95-219.3 293.25L255 489.6z"></path>
		</symbol>
	
		<symbol id="google-plus" viewBox="0 0 512 512">
			<path d="M448 224v-64h-32v64h-64v32h64v64h32v-64h64v-32zM160 224v64h90.528c-13.216 37.248-48.8 64-90.528 64-52.928 0-96-43.072-96-96s43.072-96 96-96c22.944 0 45.024 8.224 62.176 23.168l42.048-48.256C235.424 109.824 198.432 96 160 96 71.776 96 0 167.776 0 256s71.776 160 160 160 160-71.776 160-160v-32H160z"></path>
		</symbol>
	
		<symbol id="instagram" viewBox="0 0 512 512">
			<path d="M352 0H160C71.648 0 0 71.648 0 160v192c0 88.352 71.648 160 160 160h192c88.352 0 160-71.648 160-160V160C512 71.648 440.352 0 352 0zm112 352c0 61.76-50.24 112-112 112H160c-61.76 0-112-50.24-112-112V160C48 98.24 98.24 48 160 48h192c61.76 0 112 50.24 112 112v192z"></path><path d="M256 128c-70.688 0-128 57.312-128 128s57.312 128 128 128 128-57.312 128-128-57.312-128-128-128zm0 208c-44.096 0-80-35.904-80-80 0-44.128 35.904-80 80-80s80 35.872 80 80c0 44.096-35.904 80-80 80z"></path><circle cx="393.6" cy="118.4" r="17.056"></circle>
		</symbol>
	
		<symbol id="pinterest-logo" viewBox="0 0 438.529 438.529">
			<path d="M409.141 109.203c-19.608-33.592-46.205-60.189-79.798-79.796C295.751 9.801 259.065 0 219.281 0 179.5 0 142.812 9.801 109.22 29.407c-33.597 19.604-60.194 46.201-79.8 79.796C9.809 142.8.008 179.485.008 219.267c0 44.35 12.085 84.611 36.258 120.767 24.172 36.172 55.863 62.912 95.073 80.232-.762-20.365.476-37.209 3.709-50.532l28.267-119.348c-4.76-9.329-7.139-20.93-7.139-34.831 0-16.175 4.089-29.689 12.275-40.541 8.186-10.85 18.177-16.274 29.979-16.274 9.514 0 16.841 3.14 21.982 9.42 5.142 6.283 7.705 14.181 7.705 23.7 0 5.896-1.099 13.084-3.289 21.554-2.188 8.471-5.041 18.273-8.562 29.409-3.521 11.132-6.045 20.036-7.566 26.692-2.663 11.608-.476 21.553 6.567 29.838 7.042 8.278 16.372 12.423 27.983 12.423 20.365 0 37.065-11.324 50.107-33.972 13.038-22.655 19.554-50.159 19.554-82.514 0-24.938-8.042-45.21-24.129-60.813-16.085-15.609-38.496-23.417-67.239-23.417-32.161 0-58.192 10.327-78.082 30.978-19.891 20.654-29.836 45.352-29.836 74.091 0 17.132 4.854 31.505 14.56 43.112 3.235 3.806 4.283 7.898 3.14 12.279-.381 1.143-1.141 3.997-2.284 8.562-1.138 4.565-1.903 7.522-2.281 8.851-1.521 6.091-5.14 7.994-10.85 5.708-14.654-6.085-25.791-16.652-33.402-31.689-7.614-15.037-11.422-32.456-11.422-52.246 0-12.753 2.047-25.505 6.14-38.256 4.089-12.756 10.468-25.078 19.126-36.975 8.663-11.9 19.036-22.417 31.123-31.549 12.082-9.135 26.787-16.462 44.108-21.982s35.972-8.28 55.959-8.28c27.032 0 51.295 5.995 72.8 17.986 21.512 11.992 37.925 27.502 49.252 46.537 11.327 19.036 16.987 39.403 16.987 61.101 0 28.549-4.948 54.243-14.842 77.086-9.896 22.839-23.887 40.778-41.973 53.813-18.083 13.042-38.637 19.561-61.675 19.561-11.607 0-22.456-2.714-32.548-8.135-10.085-5.427-17.034-11.847-20.839-19.273-8.566 33.685-13.706 53.77-15.42 60.24-3.616 13.508-11.038 29.119-22.27 46.819 20.367 6.091 41.112 9.13 62.24 9.13 39.781 0 76.47-9.801 110.062-29.41 33.595-19.602 60.192-46.199 79.794-79.791 19.606-33.599 29.407-70.287 29.407-110.065.01-39.778-9.777-76.468-29.376-110.06z"></path>
		</symbol>
	
		<symbol id="right-arrow-button" viewBox="0 0 306 306">
			<path d="M94.35 0l-35.7 35.7L175.95 153 58.65 270.3l35.7 35.7 153-153z"></path>
		</symbol>
	
		<symbol id="shopping-cart" viewBox="0 0 510 510">
			<path d="M153 408c-28.05 0-51 22.95-51 51s22.95 51 51 51 51-22.95 51-51-22.95-51-51-51zM0 0v51h51l91.8 193.8-35.7 61.2c-2.55 7.65-5.1 17.85-5.1 25.5 0 28.05 22.95 51 51 51h306v-51H163.2c-2.55 0-5.1-2.55-5.1-5.1v-2.551l22.95-43.35h188.7c20.4 0 35.7-10.2 43.35-25.5L504.9 89.25c5.1-5.1 5.1-7.65 5.1-12.75 0-15.3-10.2-25.5-25.5-25.5H107.1L84.15 0H0zm408 408c-28.05 0-51 22.95-51 51s22.95 51 51 51 51-22.95 51-51-22.95-51-51-51z"></path>
		</symbol>
	
		<symbol id="twitter" viewBox="0 0 612 612">
			<path d="M612 116.258a250.714 250.714 0 0 1-72.088 19.772c25.929-15.527 45.777-40.155 55.184-69.411-24.322 14.379-51.169 24.82-79.775 30.48-22.907-24.437-55.49-39.658-91.63-39.658-69.334 0-125.551 56.217-125.551 125.513 0 9.828 1.109 19.427 3.251 28.606-104.326-5.24-196.835-55.223-258.75-131.174-10.823 18.51-16.98 40.078-16.98 63.101 0 43.559 22.181 81.993 55.835 104.479a125.556 125.556 0 0 1-56.867-15.756v1.568c0 60.806 43.291 111.554 100.693 123.104-10.517 2.83-21.607 4.398-33.08 4.398-8.107 0-15.947-.803-23.634-2.333 15.985 49.907 62.336 86.199 117.253 87.194-42.947 33.654-97.099 53.655-155.916 53.655-10.134 0-20.116-.612-29.944-1.721 55.567 35.681 121.536 56.485 192.438 56.485 230.948 0 357.188-191.291 357.188-357.188l-.421-16.253c24.666-17.593 46.005-39.697 62.794-64.861z"></path>
		</symbol>
	
</svg>
