<svg id="ic_safety" xmlns="http://www.w3.org/2000/svg" width="67" height="80" viewBox="0 0 67 80">
  <metadata><?xpacket begin="﻿" id="W5M0MpCehiHzreSzNTczkc9d"?>
<x:xmpmeta xmlns:x="adobe:ns:meta/" x:xmptk="Adobe XMP Core 5.6-c142 79.160924, 2017/07/13-01:06:39        ">
   <rdf:RDF xmlns:rdf="http://www.w3.org/1999/02/22-rdf-syntax-ns#">
      <rdf:Description rdf:about=""/>
   </rdf:RDF>
</x:xmpmeta>
                                                                                                    
                                                                                                    
                                                                                                    
                                                                                                    
                                                                                                    
                                                                                                    
                                                                                                    
                                                                                                    
                                                                                                    
                                                                                                    
                                                                                                    
                                                                                                    
                                                                                                    
                                                                                                    
                                                                                                    
                                                                                                    
                                                                                                    
                                                                                                    
                                                                                                    
                                                                                                    
                           
<?xpacket end="w"?></metadata>
<defs>
    <style>
      .cls-1 {
        fill: #e05745;
        fill-rule: evenodd;
      }
    </style>
  </defs>
  <path id="Заливка_цветом_1" data-name="Заливка цветом 1" class="cls-1" d="M423.609,943.481A1.47,1.47,0,0,0,422.152,942h-23.3a1.471,1.471,0,0,0-1.457,1.482c0,8.972-6.193,13.333-18.935,13.333A1.47,1.47,0,0,0,377,958.3v26.666c0,15.368,31.379,35.938,32.715,36.808a1.455,1.455,0,0,0,1.57,0c1.336-.87,32.715-21.44,32.715-36.808V958.3a1.469,1.469,0,0,0-1.457-1.482C429.8,956.814,423.609,952.453,423.609,943.481ZM410.5,1018.75c-4.859-3.29-30.587-21.274-30.587-33.788v-25.2c12.879-.344,19.713-5.314,20.343-14.8h20.488c0.632,9.482,7.464,14.452,20.343,14.8v25.2C441.087,997.476,415.359,1015.46,410.5,1018.75Z" transform="translate(-377 -942)"/>
  <path id="Заливка_цветом_2" data-name="Заливка цветом 2" class="cls-1" d="M426,979.8a1.229,1.229,0,0,0-1.1.7l-3.6,6.9-1.9-23.1a1.11,1.11,0,0,0-1.1-1.1,1,1,0,0,0-1.3.8l-4,14.6h-8.4a1.4,1.4,0,0,0-1.2.9l-1.7,5.7L398,969.4a1.41,1.41,0,0,0-1.2-1,1.107,1.107,0,0,0-1.2.9l-3.4,10.5H387a1.217,1.217,0,0,0-1.2,1.2,1.291,1.291,0,0,0,1.2,1.2h6.2a1.258,1.258,0,0,0,1.2-.9l2.3-7,3.7,15.9a1.285,1.285,0,0,0,1.2,1,1.107,1.107,0,0,0,1.2-.9l2.8-9.3H414a1.2,1.2,0,0,0,1.2-.9l2.3-8.6,1.7,20.3a1.174,1.174,0,0,0,1,1.1h0.2a1.228,1.228,0,0,0,1.1-.7l5.2-10.2H435a1.217,1.217,0,0,0,1.2-1.2,1.062,1.062,0,0,0-1.2-1h-9Z" transform="translate(-377 -942)"/>
</svg>
