<svg id="ic_connect" xmlns="http://www.w3.org/2000/svg" width="89" height="70" viewBox="0 0 89 70">
  <metadata><?xpacket begin="﻿" id="W5M0MpCehiHzreSzNTczkc9d"?>
<x:xmpmeta xmlns:x="adobe:ns:meta/" x:xmptk="Adobe XMP Core 5.6-c142 79.160924, 2017/07/13-01:06:39        ">
   <rdf:RDF xmlns:rdf="http://www.w3.org/1999/02/22-rdf-syntax-ns#">
      <rdf:Description rdf:about=""/>
   </rdf:RDF>
</x:xmpmeta>
                                                                                                    
                                                                                                    
                                                                                                    
                                                                                                    
                                                                                                    
                                                                                                    
                                                                                                    
                                                                                                    
                                                                                                    
                                                                                                    
                                                                                                    
                                                                                                    
                                                                                                    
                                                                                                    
                                                                                                    
                                                                                                    
                                                                                                    
                                                                                                    
                                                                                                    
                                                                                                    
                           
<?xpacket end="w"?></metadata>
<defs>
    <style>
      .cls-1 {
        fill: #e05745;
        fill-rule: evenodd;
      }
    </style>
  </defs>
  <path id="Заливка_цветом_1" data-name="Заливка цветом 1" class="cls-1" d="M732.857,1269.37a7.785,7.785,0,0,0,1.614-4.76,7.9,7.9,0,0,0-15.807,0,7.779,7.779,0,0,0,1.614,4.76h-0.109a3.879,3.879,0,0,0-3.884,3.71l-0.956,3.9v0.14a3.877,3.877,0,0,0,3.887,3.86h14.7a3.877,3.877,0,0,0,3.888-3.86v-0.14l-0.957-3.9a3.877,3.877,0,0,0-3.883-3.71h-0.109Zm-0.761-4.76a5.475,5.475,0,0,1-3.014,4.89l-2.513,1.28-2.518-1.28A5.505,5.505,0,1,1,732.1,1264.61Zm-12.88,14.01a1.506,1.506,0,0,1-1.508-1.38l0.949-3.87v-0.14a1.505,1.505,0,0,1,1.512-1.5h12.8a1.506,1.506,0,0,1,1.512,1.5v0.14l0.949,3.87a1.505,1.505,0,0,1-1.509,1.38h-14.7Z" transform="translate(-675 -1244)"/>
  <path id="Заливка_цветом_2" data-name="Заливка цветом 2" class="cls-1" d="M759.31,1260.71a8.87,8.87,0,0,0,3.616-12.05,8.939,8.939,0,0,0-16.388,6.93l-4.136,2.22a19.4,19.4,0,0,0-34.165,4.87l-10.01-3.18a11.676,11.676,0,1,0-1.017,3.15l10.227,3.24a19.236,19.236,0,0,0,19.13,22.22,19.373,19.373,0,0,0,9.99-2.76l4.759,7.87a11.669,11.669,0,0,0-2.667,15.1,11.812,11.812,0,0,0,16.151,4.01,11.669,11.669,0,0,0,4.03-16.05,11.807,11.807,0,0,0-14.662-4.76l-4.914-8.13a19.112,19.112,0,0,0,4.824-22.72l4.039-2.17A8.984,8.984,0,0,0,759.31,1260.71Zm-4.261-14.35a6.529,6.529,0,0,1,3.131,12.28,6.651,6.651,0,0,1-3.116.78,6.567,6.567,0,0,1-4.807-2.07,6.374,6.374,0,0,1-.98-1.35,6.679,6.679,0,0,1-.6-1.56A6.55,6.55,0,0,1,755.049,1246.36Zm-59.475,14.03a9.527,9.527,0,0,1-.65,1.53,9.3,9.3,0,0,1-8.228,4.92,9.477,9.477,0,0,1-2.841-.44,9.264,9.264,0,0,1,2.838-18.1,9.475,9.475,0,0,1,2.84.44A9.292,9.292,0,0,1,695.574,1260.39Zm48.329,33.9a10.47,10.47,0,0,1,1.5-.72,9.333,9.333,0,1,1-4.721,13.54,9.307,9.307,0,0,1,1.873-11.83A10.037,10.037,0,0,1,743.9,1294.29Zm-34.323-25.42a16.987,16.987,0,1,1,16.988,16.88A16.961,16.961,0,0,1,709.58,1268.87Z" transform="translate(-675 -1244)"/>
</svg>
