<svg id="noun_1549562_cc" xmlns="http://www.w3.org/2000/svg" width="80" height="80.03" viewBox="0 0 80 80.03">
  <metadata><?xpacket begin="﻿" id="W5M0MpCehiHzreSzNTczkc9d"?>
<x:xmpmeta xmlns:x="adobe:ns:meta/" x:xmptk="Adobe XMP Core 5.6-c142 79.160924, 2017/07/13-01:06:39        ">
   <rdf:RDF xmlns:rdf="http://www.w3.org/1999/02/22-rdf-syntax-ns#">
      <rdf:Description rdf:about=""/>
   </rdf:RDF>
</x:xmpmeta>
                                                                                                    
                                                                                                    
                                                                                                    
                                                                                                    
                                                                                                    
                                                                                                    
                                                                                                    
                                                                                                    
                                                                                                    
                                                                                                    
                                                                                                    
                                                                                                    
                                                                                                    
                                                                                                    
                                                                                                    
                                                                                                    
                                                                                                    
                                                                                                    
                                                                                                    
                                                                                                    
                           
<?xpacket end="w"?></metadata>
<defs>
    <style>
      .cls-1 {
        fill: #e05745;
        fill-rule: evenodd;
      }
    </style>
  </defs>
  <path id="Заливка_цветом_1" data-name="Заливка цветом 1" class="cls-1" d="M984.8,1311.14l-12.874-12.77a4.759,4.759,0,0,1,0-6.74l2.741-2.72c-0.632-1.92-2.214-7.43,1.413-10.99l6.326-6.29a3.286,3.286,0,0,1,4.6,0c1.213,1.22,2.657,5.52.38,7.8l-1.5-1.49c1.286-1.28.168-4.28-.38-4.83a1.138,1.138,0,0,0-1.6,0l-6.326,6.29c-3.332,3.31-.717,9.26-0.685,9.32l0.3,0.66-3.764,3.74a2.648,2.648,0,0,0,0,3.76l12.874,12.79a2.686,2.686,0,0,0,3.785,0l19.453-19.32,1.49,1.48-19.446,19.31A4.8,4.8,0,0,1,984.8,1311.14Z" transform="translate(-968 -1234.97)"/>
  <path id="Заливка_цветом_2" data-name="Заливка цветом 2" class="cls-1" d="M980.514,1313.95l-10.849-10.72a3.549,3.549,0,0,1,.261-4.78,3.6,3.6,0,0,1,4.81-.21l10.892,10.73a3.534,3.534,0,0,1,.718,3.86A3.588,3.588,0,0,1,980.514,1313.95Zm-9.691-13.76a1.452,1.452,0,0,0,.318,1.6L982,1312.52a1.494,1.494,0,0,0,2.108,0,1.479,1.479,0,0,0,0-2.1l-10.87-10.76A1.553,1.553,0,0,0,970.823,1300.19Z" transform="translate(-968 -1234.97)"/>
  <path id="Заливка_цветом_3" data-name="Заливка цветом 3" class="cls-1" d="M981.357,1283.92a1.048,1.048,0,0,1,0-1.48l9.912-9.84a1.051,1.051,0,0,1,1.486,1.48l-9.911,9.84a1.063,1.063,0,0,1-.738.3A1.006,1.006,0,0,1,981.357,1283.92Z" transform="translate(-968 -1234.97)"/>
  <path id="Заливка_цветом_4" data-name="Заливка цветом 4" class="cls-1" d="M1001.79,1283.05l-1.5-1.48a2.116,2.116,0,0,0-.02-3.02,2.163,2.163,0,0,0-3.044.02l-1.445-1.49a4.266,4.266,0,0,1,6.009,0,4.2,4.2,0,0,1,0,5.97h0Z" transform="translate(-968 -1234.97)"/>
  <path id="Заливка_цветом_5" data-name="Заливка цветом 5" class="cls-1" d="M997.226,1278.57l-1.445-1.49a2.108,2.108,0,0,0,0-3,2.15,2.15,0,0,0-3.026,0l-1.486-1.48a4.253,4.253,0,0,1,5.983.02,4.191,4.191,0,0,1-.026,5.95h0Z" transform="translate(-968 -1234.97)"/>
  <path id="Заливка_цветом_6" data-name="Заливка цветом 6" class="cls-1" d="M1009.33,1290.54a2.1,2.1,0,0,0,0-3,2.155,2.155,0,0,0-3.03,0l-1.48-1.48a4.255,4.255,0,0,1,6,0,4.2,4.2,0,0,1,0,5.97Z" transform="translate(-968 -1234.97)"/>
  <path id="Заливка_цветом_7" data-name="Заливка цветом 7" class="cls-1" d="M1004.82,1286.06a2.131,2.131,0,0,0,0-3.01,2.155,2.155,0,0,0-3.03,0l-1.5-1.48a4.276,4.276,0,0,1,6.01,0,4.2,4.2,0,0,1,0,5.97Z" transform="translate(-968 -1234.97)"/>
  <path id="Заливка_цветом_8" data-name="Заливка цветом 8" class="cls-1" d="M993.336,1280.49a1.036,1.036,0,0,1,.178-1.1l2.267-2.26a1.059,1.059,0,0,1,1.094-.49,1.036,1.036,0,0,1,.851.84,1.047,1.047,0,0,1-.5,1.09l-2.215,2.24A1.02,1.02,0,0,1,993.336,1280.49Z" transform="translate(-968 -1234.97)"/>
  <path id="Заливка_цветом_9" data-name="Заливка цветом 9" class="cls-1" d="M997.8,1284.96a1.044,1.044,0,0,1,.234-1.14l2.252-2.25a1.068,1.068,0,0,1,1.5,0,1.044,1.044,0,0,1,0,1.48l-2.266,2.25A1.054,1.054,0,0,1,997.8,1284.96Z" transform="translate(-968 -1234.97)"/>
  <path id="Заливка_цветом_10" data-name="Заливка цветом 10" class="cls-1" d="M1002.55,1289.79a1.06,1.06,0,0,1-.31-0.75,1.037,1.037,0,0,1,.31-0.74l2.27-2.24a1.049,1.049,0,0,1,1.48,1.48l-2.26,2.25a1.07,1.07,0,0,1-.74.3A1.094,1.094,0,0,1,1002.55,1289.79Z" transform="translate(-968 -1234.97)"/>
  <path id="Заливка_цветом_11" data-name="Заливка цветом 11" class="cls-1" d="M1024.64,1278.82l-1.5-1.53,19.42-19.27a2.65,2.65,0,0,0,0-3.77l-12.84-12.78a2.68,2.68,0,0,0-3.78,0l-3.76,3.73-0.7-.3c-0.07,0-6.06-2.63-9.4.68l-6.32,6.29a1.1,1.1,0,0,0-.34.79,1.11,1.11,0,0,0,.34.81c0.54,0.55,3.57,1.66,4.86.38l1.55,1.44c-2.29,2.28-6.64.84-7.85-.37a3.187,3.187,0,0,1,0-4.56l6.33-6.28c3.62-3.61,9.13-2.1,11.06-1.4l2.74-2.73a4.8,4.8,0,0,1,6.77,0l12.86,12.82a4.726,4.726,0,0,1,0,6.72Z" transform="translate(-968 -1234.97)"/>
  <path id="Заливка_цветом_12" data-name="Заливка цветом 12" class="cls-1" d="M1044.42,1253.59a3.5,3.5,0,0,1-2.53-1.05l-10.85-10.76a3.59,3.59,0,0,1-1.06-2.53,3.5,3.5,0,0,1,1.06-2.51,3.68,3.68,0,0,1,5.07,0l10.85,10.77a3.557,3.557,0,0,1,1.05,2.52,3.516,3.516,0,0,1-1.05,2.52,3.571,3.571,0,0,1-2.53,1.04h-0.01Zm-11.9-15.37a1.423,1.423,0,0,0-.45,1.04,1.445,1.445,0,0,0,.45,1.05l10.86,10.76a1.449,1.449,0,0,0,1.05.43,1.485,1.485,0,0,0,1.49-1.48,1.413,1.413,0,0,0-.44-1.05l-10.87-10.75a1.443,1.443,0,0,0-1.04-.43A1.483,1.483,0,0,0,1032.52,1238.22Z" transform="translate(-968 -1234.97)"/>
  <path id="Заливка_цветом_13" data-name="Заливка цветом 13" class="cls-1" d="M1005.05,1260.33a1.05,1.05,0,0,1,.23-1.14l9.87-9.83a1.045,1.045,0,0,1,1.02-.28,1.075,1.075,0,0,1,.75.74,1.045,1.045,0,0,1-.27,1.01l-9.91,9.85A1.035,1.035,0,0,1,1005.05,1260.33Z" transform="translate(-968 -1234.97)"/>
  <path id="Заливка_цветом_14" data-name="Заливка цветом 14" class="cls-1" d="M1009.79,1269.64a4.177,4.177,0,0,1,0-5.96l1.49,1.48a2.09,2.09,0,0,0,0,3.01,2.193,2.193,0,0,0,3.03,0l1.49,1.47A4.261,4.261,0,0,1,1009.79,1269.64Z" transform="translate(-968 -1234.97)"/>
  <path id="Заливка_цветом_15" data-name="Заливка цветом 15" class="cls-1" d="M1005.28,1265.16a4.166,4.166,0,0,1,0-5.97l1.49,1.49a2.11,2.11,0,0,0,0,3,2.143,2.143,0,0,0,3.02-.01l1.49,1.48A4.237,4.237,0,0,1,1005.28,1265.16Z" transform="translate(-968 -1234.97)"/>
  <path id="Заливка_цветом_16" data-name="Заливка цветом 16" class="cls-1" d="M1017.86,1277.27a4.176,4.176,0,0,1,.97-4.62l1.49,1.5a2.094,2.094,0,0,0-.63,1.5,2.129,2.129,0,0,0,.63,1.5,2.2,2.2,0,0,0,3.02,0l1.49,1.48A4.313,4.313,0,0,1,1017.86,1277.27Z" transform="translate(-968 -1234.97)"/>
  <path id="Заливка_цветом_17" data-name="Заливка цветом 17" class="cls-1" d="M1013.34,1272.79a4.155,4.155,0,0,1,.97-4.62l1.49,1.47a2.152,2.152,0,0,0-.63,1.51,2.094,2.094,0,0,0,.63,1.5,2.193,2.193,0,0,0,3.03,0l1.49,1.5A4.336,4.336,0,0,1,1013.34,1272.79Z" transform="translate(-968 -1234.97)"/>
  <path id="Заливка_цветом_18" data-name="Заливка цветом 18" class="cls-1" d="M1009.79,1265.16a1.044,1.044,0,0,1,0-1.48l2.27-2.25a1.039,1.039,0,0,1,1.05-.33,1.069,1.069,0,0,1,.78.77,1.055,1.055,0,0,1-.34,1.04l-2.27,2.25a1.07,1.07,0,0,1-.74.3A1.01,1.01,0,0,1,1009.79,1265.16Z" transform="translate(-968 -1234.97)"/>
  <path id="Заливка_цветом_19" data-name="Заливка цветом 19" class="cls-1" d="M1014.08,1269.31a1.015,1.015,0,0,1,.23-1.14l2.26-2.25a1.056,1.056,0,0,1,1.49,0,1.038,1.038,0,0,1,0,1.48l-2.26,2.24a1.029,1.029,0,0,1-.74.32A1.046,1.046,0,0,1,1014.08,1269.31Z" transform="translate(-968 -1234.97)"/>
  <path id="Заливка_цветом_20" data-name="Заливка цветом 20" class="cls-1" d="M1018.6,1273.79a1.032,1.032,0,0,1,.23-1.14l2.26-2.24a1.05,1.05,0,0,1,1.49,0,1.044,1.044,0,0,1,0,1.48l-2.26,2.26A1.073,1.073,0,0,1,1018.6,1273.79Z" transform="translate(-968 -1234.97)"/>
  <path id="Заливка_цветом_21" data-name="Заливка цветом 21" class="cls-1" d="M1008.93,1312.3l-5.11-6.36a1.055,1.055,0,0,1-.19-1.05,1.074,1.074,0,0,1,.84-0.67,1.054,1.054,0,0,1,.99.41l3.72,4.62,5-4.49,5.76,3.49,3.16-5.93,6.61,1.33,0.92-6.65,6.67-1.04-1.41-6.56,5.92-3.21-3.59-5.66,4.46-5.04-4.7-3.64a1.04,1.04,0,0,1-.19-1.47,1.061,1.061,0,0,1,1.48-.18l6.46,5.06-4.91,5.53,3.95,6.23-6.51,3.52,1.55,7.21-7.33,1.05-1.05,7.33-7.27-1.45-3.46,6.51-6.33-3.85Z" transform="translate(-968 -1234.97)"/>
  <path id="Заливка_цветом_22" data-name="Заливка цветом 22" class="cls-1" d="M974.441,1277.07l-6.432-5.02,4.9-5.55-3.954-6.28,6.516-3.52-1.55-7.16,7.381-1.1,1.054-7.33,7.17,1.49,3.479-6.52,6.326,3.85,5.486-4.95,5.12,6.37a1.046,1.046,0,0,1-1.64,1.3l-3.69-4.62-5.012,4.51-5.788-3.5-3.164,5.92-6.6-1.32-0.917,6.64-6.674,1.04,1.413,6.55-5.947,3.16,3.585,5.68-4.429,5.03,4.7,3.63A1.082,1.082,0,0,1,974.441,1277.07Z" transform="translate(-968 -1234.97)"/>
  <path id="Заливка_цветом_23" data-name="Заливка цветом 23" class="cls-1" d="M981.438,1265.65a1.048,1.048,0,0,1,.52-1.18l3.575-1.93-1.055-5.04,5.125-.76,0.706-5.1,5.082,1.05,1.9-3.57a1.067,1.067,0,0,1,1.423-.44,1.053,1.053,0,0,1,.422,1.38L996.5,1255l-4.428-.88-0.612,4.44-4.47.67,0.949,4.39-4.956,2.68a1.04,1.04,0,0,1-.516.14A1.052,1.052,0,0,1,981.438,1265.65Z" transform="translate(-968 -1234.97)"/>
  <path id="Заливка_цветом_24" data-name="Заливка цветом 24" class="cls-1" d="M1014.9,1300.46a1.032,1.032,0,0,1-.52-0.62,1.056,1.056,0,0,1,.08-0.8l2.64-4.99,4.43,0.89,0.61-4.45,4.47-.63-0.92-4.39,4.96-2.67a1.064,1.064,0,0,1,1.16-.09,1.041,1.041,0,0,1-.19,1.91l-3.56,1.93,1.05,5.04-5.12.76-0.71,5.11-5.08-1.04-1.91,3.56a1.058,1.058,0,0,1-.9.6A1.044,1.044,0,0,1,1014.9,1300.46Z" transform="translate(-968 -1234.97)"/>
  <path id="Заливка_цветом_25" data-name="Заливка цветом 25" class="cls-1" d="M992.745,1266.44a1.053,1.053,0,1,1-.159-2.1l4.018-.6,0.548-3.99a1.064,1.064,0,0,1,2.109.28l-0.77,5.55-5.578.84Z" transform="translate(-968 -1234.97)"/>
  <path id="Заливка_цветом_26" data-name="Заливка цветом 26" class="cls-1" d="M1015.76,1291.02a1.035,1.035,0,0,1-.89-1.16l0.76-5.55,5.57-.84a1.062,1.062,0,1,1,.32,2.1l-4.02.59-0.55,4a1.043,1.043,0,0,1-1.04.86h-0.15Z" transform="translate(-968 -1234.97)"/>
</svg>
