<svg xmlns="http://www.w3.org/2000/svg" width="65.03" height="80" viewBox="0 0 65.03 80">
  <metadata><?xpacket begin="﻿" id="W5M0MpCehiHzreSzNTczkc9d"?>
<x:xmpmeta xmlns:x="adobe:ns:meta/" x:xmptk="Adobe XMP Core 5.6-c142 79.160924, 2017/07/13-01:06:39        ">
   <rdf:RDF xmlns:rdf="http://www.w3.org/1999/02/22-rdf-syntax-ns#">
      <rdf:Description rdf:about=""/>
   </rdf:RDF>
</x:xmpmeta>
                                                                                                    
                                                                                                    
                                                                                                    
                                                                                                    
                                                                                                    
                                                                                                    
                                                                                                    
                                                                                                    
                                                                                                    
                                                                                                    
                                                                                                    
                                                                                                    
                                                                                                    
                                                                                                    
                                                                                                    
                                                                                                    
                                                                                                    
                                                                                                    
                                                                                                    
                                                                                                    
                           
<?xpacket end="w"?></metadata>
<defs>
    <style>
      .cls-1 {
        fill: #e05745;
        fill-rule: evenodd;
      }
    </style>
  </defs>
  <path id="Заливка_цветом_1" data-name="Заливка цветом 1" class="cls-1" d="M1020.23,1002.24a16.752,16.752,0,0,0,1.98-2.06,15.75,15.75,0,0,0,2.99-13.343l-2.95-12.826a15.562,15.562,0,0,0-14.17-12.13,11.042,11.042,0,0,0,3.94-12.3,10.9,10.9,0,0,0-20.77,0,11.051,11.051,0,0,0,3.943,12.3,15.572,15.572,0,0,0-14.173,12.13l-2.945,12.816a15.735,15.735,0,0,0,2.978,13.343,15.909,15.909,0,0,0,1.992,2.07c-3.194-.2-6.984.14-9.843,2.18-2.609,1.88-4.006,4.87-4.168,8.81a7.3,7.3,0,0,0,2.858,6.47c2.242,1.69,5.642,2.3,9.345,2.3,8.25,0,18.028-2.98,20.263-3.7,2.23,0.72,12,3.7,20.25,3.7,3.71,0,7.11-.61,9.35-2.3a7.317,7.317,0,0,0,2.9-6.47c-0.16-3.94-1.56-6.93-4.18-8.81C1027.04,1002.42,1023.32,1002.05,1020.23,1002.24Zm-18.62-58.051a8.824,8.824,0,1,1-8.755,8.824A8.791,8.791,0,0,1,1001.61,944.189Zm-1.32,72.2c-4.241,1.3-21.111,6.08-27.066,1.57a5.179,5.179,0,0,1-2.025-4.65c0.119-3.27,1.2-5.65,3.249-7.11,4.98-3.58,14.076-.83,14.184-0.8h0.1a15.521,15.521,0,0,0,4.537.7h7.034v10.29h-0.01Zm-7.035-12.47a13.426,13.426,0,0,1-10.531-5.121,13.622,13.622,0,0,1-2.57-11.492l2.956-12.8a13.415,13.415,0,0,1,13.1-10.493h10.829a13.408,13.408,0,0,1,13.1,10.493l2.95,12.805a13.569,13.569,0,0,1-6.18,14.673c-4.01-.34-9.17-4.364-13.53-8.662,2.48-1.538,8.1-5.258,10.38-8.726a1.086,1.086,0,0,0-1.81-1.2c-2.16,3.272-8.12,7.123-10.15,8.366a109.358,109.358,0,0,1-7.386-8.432,1.08,1.08,0,0,0-1.906.219,1.1,1.1,0,0,0,.195,1.112c0.531,0.622,11.727,15.107,20.927,18.713h-0.08a13.363,13.363,0,0,1-3.56.5H993.277Zm9.225,12.44V1006.1h7.51a15.674,15.674,0,0,0,5.42-.96c2.49-.6,9.18-1.83,13.2,1.09,2.03,1.46,3.13,3.85,3.25,7.11a5.182,5.182,0,0,1-2.04,4.67C1023.7,1022.61,1006.29,1017.55,1002.48,1016.36Z" transform="translate(-969 -942)"/>
</svg>
