<svg id="group" xmlns="http://www.w3.org/2000/svg" width="93" height="80" viewBox="0 0 93 80">
  <metadata><?xpacket begin="﻿" id="W5M0MpCehiHzreSzNTczkc9d"?>
<x:xmpmeta xmlns:x="adobe:ns:meta/" x:xmptk="Adobe XMP Core 5.6-c142 79.160924, 2017/07/13-01:06:39        ">
   <rdf:RDF xmlns:rdf="http://www.w3.org/1999/02/22-rdf-syntax-ns#">
      <rdf:Description rdf:about=""/>
   </rdf:RDF>
</x:xmpmeta>
                                                                                                    
                                                                                                    
                                                                                                    
                                                                                                    
                                                                                                    
                                                                                                    
                                                                                                    
                                                                                                    
                                                                                                    
                                                                                                    
                                                                                                    
                                                                                                    
                                                                                                    
                                                                                                    
                                                                                                    
                                                                                                    
                                                                                                    
                                                                                                    
                                                                                                    
                                                                                                    
                           
<?xpacket end="w"?></metadata>
<defs>
    <style>
      .cls-1 {
        fill: #e05745;
        fill-rule: evenodd;
      }
    </style>
  </defs>
  <path id="Заливка_цветом_1" data-name="Заливка цветом 1" class="cls-1" d="M707.752,1023.01a1.073,1.073,0,0,1-1.133-1.13V981.527a1.069,1.069,0,0,1,1.133-1.13h26.169a1.069,1.069,0,0,1,1.133,1.13v40.463a1.123,1.123,0,0,1-1.133,1.02H707.752Zm25.036-2.26V982.657h-23.9v38.093h23.9Z" transform="translate(-674 -943)"/>
  <path id="Заливка_цветом_2" data-name="Заливка цветом 2" class="cls-1" d="M739.7,1023.01a1.074,1.074,0,0,1-1.133-1.13v-16.05a1.068,1.068,0,0,1,1.133-1.13h26.169a1.068,1.068,0,0,1,1.133,1.13v16.05a1.139,1.139,0,0,1-1.133,1.13H739.7Zm25.036-2.26v-13.79h-23.9v13.79h23.9Z" transform="translate(-674 -943)"/>
  <path id="Заливка_цветом_3" data-name="Заливка цветом 3" class="cls-1" d="M675.126,1023.01a1.073,1.073,0,0,1-1.133-1.13V993.62a1.069,1.069,0,0,1,1.133-1.13H701.3a1.069,1.069,0,0,1,1.132,1.13v28.26a1.139,1.139,0,0,1-1.132,1.13H675.126Zm25.036-2.26v-26h-23.9v26h23.9Z" transform="translate(-674 -943)"/>
  <path id="Заливка_цветом_4" data-name="Заливка цветом 4" class="cls-1" d="M720.78,945.246l3.511,9.946,10.536,0.226-8.383,6.33,3.059,10.058-8.61-5.99-8.61,5.99,3.059-10.058-8.383-6.33,10.535-.226,3.286-9.946m-2.153-.792-2.945,8.364-8.95.227a2.433,2.433,0,0,0-2.152,1.581,2.142,2.142,0,0,0,.793,2.487l7.137,5.426-2.606,8.589a2.534,2.534,0,0,0,.793,2.487,2.182,2.182,0,0,0,1.36.452,1.706,1.706,0,0,0,1.246-.452l7.363-5.086,7.364,5.086a2.38,2.38,0,0,0,1.246.452,2.18,2.18,0,0,0,1.359-.452,2.143,2.143,0,0,0,.793-2.487l-2.605-8.589,7.137-5.426a2.142,2.142,0,0,0,.793-2.487,2.315,2.315,0,0,0-2.153-1.581l-8.723-.227-2.945-8.476a2.28,2.28,0,0,0-2.152-1.357h0A2.323,2.323,0,0,0,718.627,944.454Z" transform="translate(-674 -943)"/>
</svg>
