<svg id="group" xmlns="http://www.w3.org/2000/svg" width="67" height="80" viewBox="0 0 67 80">
  <metadata><?xpacket begin="﻿" id="W5M0MpCehiHzreSzNTczkc9d"?>
<x:xmpmeta xmlns:x="adobe:ns:meta/" x:xmptk="Adobe XMP Core 5.6-c142 79.160924, 2017/07/13-01:06:39        ">
   <rdf:RDF xmlns:rdf="http://www.w3.org/1999/02/22-rdf-syntax-ns#">
      <rdf:Description rdf:about=""/>
   </rdf:RDF>
</x:xmpmeta>
                                                                                                    
                                                                                                    
                                                                                                    
                                                                                                    
                                                                                                    
                                                                                                    
                                                                                                    
                                                                                                    
                                                                                                    
                                                                                                    
                                                                                                    
                                                                                                    
                                                                                                    
                                                                                                    
                                                                                                    
                                                                                                    
                                                                                                    
                                                                                                    
                                                                                                    
                                                                                                    
                           
<?xpacket end="w"?></metadata>
<defs>
    <style>
      .cls-1 {
        fill: #e05745;
        fill-rule: evenodd;
      }
    </style>
  </defs>
  <path id="Заливка_цветом_1" data-name="Заливка цветом 1" class="cls-1" d="M138.062,1270.06a4.2,4.2,0,0,0,2.428-1.58c1.821-2.42.971-6.06,0.849-6.42-4.249-17.33-14.689-26.06-30.593-26.06h-1.579c-4.37,0-17.725,0-26.709,17.45-8.741,16.73,8.62,43.03,10.926,46.43v14.91A1.148,1.148,0,0,0,94.6,1316h29.015a1.149,1.149,0,0,0,1.215-1.21v-11.76a10,10,0,0,0,6.92,3.03h0c4.127,0,7.527-3.03,7.405-6.79l-1.092-12.72,7.769-.13a1.279,1.279,0,0,0,1.093-.6,1.429,1.429,0,0,0-.121-1.21Zm-2.186,14.42a1.394,1.394,0,0,0-.364.97l1.214,14.06c0.122,2.07-2.064,4.25-4.977,4.25-2.55,0-5.1-1.7-7.042-4.61a1.146,1.146,0,0,0-1.335-.48,1.2,1.2,0,0,0-.85,1.21v13.7H95.813v-14.07a1.691,1.691,0,0,0-.243-0.72c-0.243-.25-19.425-28-11.048-44.24,8.5-16.13,20.639-16.13,24.645-16.13h1.579c5.463,0,22.1,0,28.408,24.12,0.243,0.85.486,3.16-.485,4.37a2.724,2.724,0,0,1-2.307.85h-0.243a1.279,1.279,0,0,0-1.093.6,1.116,1.116,0,0,0,0,1.22l8.62,14.3-6.92.24A1.109,1.109,0,0,0,135.876,1284.48Z" transform="translate(-80 -1236)"/>
  <path id="Заливка_цветом_2" data-name="Заливка цветом 2" class="cls-1" d="M127.5,1275.27v-17.09a4.039,4.039,0,0,0,2.793-3.76,3.922,3.922,0,0,0-2.793-3.75v-1.34a1.214,1.214,0,0,0-2.428,0v1.34a4.037,4.037,0,0,0-2.792,3.75,3.925,3.925,0,0,0,2.792,3.76v17.09H117.18v-11.03a4.04,4.04,0,0,0,2.792-3.76,3.922,3.922,0,0,0-2.792-3.75v-7.4a1.214,1.214,0,0,0-2.428,0v7.4a4.037,4.037,0,0,0-2.792,3.75,3.925,3.925,0,0,0,2.792,3.76v11.03h-7.891v-4.48a4.05,4.05,0,0,0,2.792-3.76,3.934,3.934,0,0,0-2.792-3.76v-13.94a1.214,1.214,0,0,0-2.428,0v13.94a4.049,4.049,0,0,0-2.793,3.76,3.934,3.934,0,0,0,2.793,3.76v4.48H96.541v-16.85a4.037,4.037,0,0,0,2.792-3.75,3.925,3.925,0,0,0-2.792-3.76v-1.58a1.214,1.214,0,0,0-2.428,0v1.58a4.04,4.04,0,0,0-2.792,3.76,3.922,3.922,0,0,0,2.792,3.75v16.85H92.535a1.215,1.215,0,0,0,0,2.43h37.028a1.151,1.151,0,0,0,1.214-1.22,1.417,1.417,0,0,0-1.335-1.21H127.5Zm0.243-20.85a1.578,1.578,0,1,1-3.156,0,1.7,1.7,0,0,1,1.578-1.57A1.606,1.606,0,0,1,127.742,1254.42Zm-10.319,6.06a1.579,1.579,0,1,1-1.578-1.57A1.609,1.609,0,0,1,117.423,1260.48Zm-11.9,4.97h0a1.58,1.58,0,1,1-1.578,1.58,1.608,1.608,0,0,1,1.578-1.58h0Zm-8.741-10.78a1.578,1.578,0,1,1-1.578-1.58A1.607,1.607,0,0,1,96.784,1254.67Z" transform="translate(-80 -1236)"/>
  <path id="Заливка_цветом_3" data-name="Заливка цветом 3" class="cls-1" d="M92.414,1281.58a1.21,1.21,0,1,0,0,2.42h37.028a1.148,1.148,0,0,0,1.214-1.21,1.212,1.212,0,0,0-1.214-1.21H92.414Z" transform="translate(-80 -1236)"/>
</svg>
