<svg id="group" xmlns="http://www.w3.org/2000/svg" width="84" height="70" viewBox="0 0 84 70">
  <metadata><?xpacket begin="﻿" id="W5M0MpCehiHzreSzNTczkc9d"?>
<x:xmpmeta xmlns:x="adobe:ns:meta/" x:xmptk="Adobe XMP Core 5.6-c142 79.160924, 2017/07/13-01:06:39        ">
   <rdf:RDF xmlns:rdf="http://www.w3.org/1999/02/22-rdf-syntax-ns#">
      <rdf:Description rdf:about=""/>
   </rdf:RDF>
</x:xmpmeta>
                                                                                                    
                                                                                                    
                                                                                                    
                                                                                                    
                                                                                                    
                                                                                                    
                                                                                                    
                                                                                                    
                                                                                                    
                                                                                                    
                                                                                                    
                                                                                                    
                                                                                                    
                                                                                                    
                                                                                                    
                                                                                                    
                                                                                                    
                                                                                                    
                                                                                                    
                                                                                                    
                           
<?xpacket end="w"?></metadata>
<defs>
    <style>
      .cls-1 {
        fill: #e05745;
        fill-rule: evenodd;
      }
    </style>
  </defs>
  <path id="Заливка_цветом_3" data-name="Заливка цветом 3" class="cls-1" d="M420,1316a1.373,1.373,0,0,1-1-.43c-0.241-.24-24.142-24.88-29.28-29.97-10.893-10.79-8.326-25.22-2.283-31.49,5.257-5.46,10.661-8.11,16.52-8.11,6.559,0,12.5,3.96,16.048,10.53,3.553-6.57,9.51-10.53,16.094-10.53,5.89,0,11.451,2.73,16.53,8.12,5.971,6.33,8.5,20.8-2.293,31.48-5.138,5.09-29.085,29.73-29.326,29.98a1.4,1.4,0,0,1-1,.42h0Zm-30.551-59.95c-5.239,5.44-7.376,18.04,2.237,27.56,4.55,4.51,23.7,24.22,28.315,28.98,4.626-4.75,23.81-24.47,28.36-28.98,9.522-9.43,7.41-22.07,2.226-27.57-4.593-4.87-9.334-7.24-14.493-7.24-6.3,0-11.967,4.43-14.792,11.56a1.4,1.4,0,0,1-2.6,0c-2.825-7.13-8.476-11.56-14.746-11.56C398.894,1248.8,394.15,1251.17,389.449,1256.05Z" transform="translate(-378 -1246)"/>
  <path id="Заливка_цветом_4" data-name="Заливка цветом 4" class="cls-1" d="M414.529,1295.59l-7.451-16.15-4.185,5.23a1.379,1.379,0,0,1-1.093.53H379.4a1.4,1.4,0,1,1,0-2.8h21.728l5.18-6.48a1.386,1.386,0,0,1,1.263-.51,1.4,1.4,0,0,1,1.1.8l6.661,14.44,4.7-21.15a1.4,1.4,0,0,1,2.674-.2l6.028,15.67,4.1-6.15a1.453,1.453,0,0,1,2.33,0l2.384,3.58H460.6a1.4,1.4,0,1,1,0,2.8H436.8a1.4,1.4,0,0,1-1.165-.62L434,1282.12l-4.435,6.66a1.4,1.4,0,0,1-2.471-.28l-5.334-13.86-4.594,20.66a1.392,1.392,0,0,1-1.218,1.09,0.737,0.737,0,0,1-.148.01A1.416,1.416,0,0,1,414.529,1295.59Z" transform="translate(-378 -1246)"/>
</svg>
