<svg xmlns="http://www.w3.org/2000/svg" width="63" height="80" viewBox="0 0 63 80">
  <metadata><?xpacket begin="﻿" id="W5M0MpCehiHzreSzNTczkc9d"?>
<x:xmpmeta xmlns:x="adobe:ns:meta/" x:xmptk="Adobe XMP Core 5.6-c142 79.160924, 2017/07/13-01:06:39        ">
   <rdf:RDF xmlns:rdf="http://www.w3.org/1999/02/22-rdf-syntax-ns#">
      <rdf:Description rdf:about=""/>
   </rdf:RDF>
</x:xmpmeta>
                                                                                                    
                                                                                                    
                                                                                                    
                                                                                                    
                                                                                                    
                                                                                                    
                                                                                                    
                                                                                                    
                                                                                                    
                                                                                                    
                                                                                                    
                                                                                                    
                                                                                                    
                                                                                                    
                                                                                                    
                                                                                                    
                                                                                                    
                                                                                                    
                                                                                                    
                                                                                                    
                           
<?xpacket end="w"?></metadata>
<defs>
    <style>
      .cls-1 {
        fill: #e05745;
        fill-rule: evenodd;
      }
    </style>
  </defs>
  <path id="Заливка_цветом_1" data-name="Заливка цветом 1" class="cls-1" d="M136.127,950.824a6.849,6.849,0,0,0-3.614,1.032,7.426,7.426,0,0,0-5.894-5.422,7.617,7.617,0,0,0-1.3-.114,7.4,7.4,0,0,0-4.478,1.507,7.988,7.988,0,0,0-13.787-2.429c-0.049-.074-0.091-0.153-0.142-0.226a7.444,7.444,0,0,0-13.434,2.983s-2.7,15.374-2.715,15.551l-8.2,8.214a8.867,8.867,0,0,0,0,12.506s11.727,11.743,11.847,11.849v24.235a1.5,1.5,0,0,0,1.5,1.5h35.406a1.5,1.5,0,0,0,1.5-1.5V997.445l0.76-.761a22.492,22.492,0,0,0,5.853-21.476,6.905,6.905,0,0,0,1.092-2.686l2.394-13.6A6.891,6.891,0,0,0,136.127,950.824Zm-10.81-1.5a4.479,4.479,0,0,1,.78.07,4.45,4.45,0,0,1,3.6,5.156l-2.646,15.023a4.433,4.433,0,0,1-4.364,3.675,4.482,4.482,0,0,1-.781-0.07,4.45,4.45,0,0,1-3.6-5.155l2.644-15.02A4.433,4.433,0,0,1,125.317,949.328ZM114.143,945.5a5.014,5.014,0,0,1,4.058,5.8l-2.893,16.428a5,5,0,0,1-2.513,3.508l-7.019-7.032,2.576-14.642A5,5,0,0,1,114.143,945.5Zm-15.882.3a4.445,4.445,0,0,1,6.924,4.416l-2.031,11.54a8.827,8.827,0,0,0-8.878-.817l2.159-12.267A4.423,4.423,0,0,1,98.261,945.805Zm31.991,49.954a1.5,1.5,0,0,0-.438,1.064V1019h-32.4V995.559a1.5,1.5,0,0,0-.6-1.2c-0.258-.2-12.131-12.06-12.131-12.06a5.848,5.848,0,0,1,0-8.251l9.216-9.233a5.825,5.825,0,0,1,8.235,0s12.152,12.164,12.462,12.466c1.244,1.206,2.528,2.456,2.535,3.275a2.126,2.126,0,0,1-.777,1.326c-4.17,4.177-9.143.776-17.576-5.594a1.5,1.5,0,1,0-1.809,2.4c5.426,4.1,10.645,8.044,15.4,8.043,0.243,0,.483-0.014.723-0.034A15.235,15.235,0,0,1,111.81,999.6a1.506,1.506,0,0,0,.516,2.066,1.537,1.537,0,0,0,.771.21,1.5,1.5,0,0,0,1.288-.73,18.249,18.249,0,0,0,1.6-15.291,9.92,9.92,0,0,0,2.5-1.848,4.849,4.849,0,0,0,1.656-3.478c-0.017-2.078-1.682-3.7-3.446-5.411-0.3-.291-1.718-1.7-1.718-1.7a8.011,8.011,0,0,0,1.183-1.03,7.387,7.387,0,0,0,5.231,3.757,7.5,7.5,0,0,0,1.3.115,7.407,7.407,0,0,0,4.9-1.85,7,7,0,0,0,.51.869,6.844,6.844,0,0,0,4.444,2.837,6.979,6.979,0,0,0,1.2.106,6.838,6.838,0,0,0,3.1-.746,19.472,19.472,0,0,1-5.4,17.078ZM137.563,972a3.873,3.873,0,0,1-3.816,3.213,4.006,4.006,0,0,1-.681-0.058,3.889,3.889,0,0,1-3.15-4.5l2.4-13.606a3.876,3.876,0,0,1,3.816-3.211,4.006,4.006,0,0,1,.68.06,3.9,3.9,0,0,1,3.15,4.5Z" transform="translate(-80 -942)"/>
</svg>
