<?xml version="1.0" encoding="iso-8859-1"?>
<!-- Generator: Adobe Illustrator 19.1.1, SVG Export Plug-In . SVG Version: 6.00 Build 0)  -->
<svg version="1.1" id="&#x421;&#x43B;&#x43E;&#x439;_1"
	 xmlns="http://www.w3.org/2000/svg" xmlns:xlink="http://www.w3.org/1999/xlink" x="0px" y="0px" viewBox="0 0 433.335 489.218"
	 style="enable-background:new 0 0 433.335 489.218;" xml:space="preserve">
<g>
	<defs>
		<rect id="SVGID_1_" width="433.335" height="489.218"/>
	</defs>
	<clipPath id="SVGID_2_">
		<use xlink:href="#SVGID_1_"  style="overflow:visible;"/>
	</clipPath>
	<path style="clip-path:url(#SVGID_2_);fill:#666666;" d="M125.61,275.701c0.96,3.426,1.87,6.863,3.033,10.226
		c26.649,77.321,143.722,80.6,175.67,6.566c2.381-5.521,3.978-11.187,5.621-16.938c12.086-3.954,19.365-10.721,24.768-22.699
		c1.039-2.308,1.965-4.78,2.751-7.39c4.661-15.496,5.52-38.042-6.3-49.387c-5.813,1.578-6.621,13.164-10.62,15.584
		c-4.858,2.943-8.194-1.948-9.536-5.857c-2.291-6.683-2.79-20.47-4.284-24.542c-2.798-7.615-11.598-17.235-13.001-26.714
		c-1.493-10.121-1.786-11.199-5.667-16.775c-3.82-5.504-9.272-8.098-20.943-4.111c-13.713,4.678-31.538,7.025-49.369,7.025
		c-17.83,0-35.654-2.347-49.375-7.025c-11.669-3.987-17.122-1.393-20.94,4.111c-3.875,5.576-4.167,6.654-5.661,16.775
		c-1.405,9.479-10.21,19.099-13.007,26.714c-1.489,4.072-1.988,17.859-4.285,24.542c-1.337,3.909-4.673,8.8-9.536,5.857
		c-4.01-2.426-4.818-14.108-10.687-15.606c-7.886,7.244-9.412,21.705-9.03,32.245c0.554,15.018,5.823,31.242,17.521,41.076
		C116.749,272.742,120.832,274.033,125.61,275.701 M216.667,400.772c-38.935,0-72.395-17.953-87.063-43.635l-70.486,28.215
		C32.999,395.808,0,420.726,0,452.17v10.142v8.149c0,10.316,8.435,18.757,18.757,18.757h395.82c10.315,0,18.758-8.441,18.758-18.757
		v-8.149V452.17c0-31.444-32.995-56.362-59.125-66.818l-70.48-28.215C289.055,382.819,255.595,400.772,216.667,400.772
		 M228.657,34.156c10.957-6.188,19.875-13.327,24.087-23.615c7.054,11.322,9.159,22.722,7.614,33.28
		c62.849,13.68,83.318,59.803,90.449,120.388c0.18,1.539,0.198,16.421,0.265,24.884c11.069,17.662,11.631,42.136,5.628,62.106
		c-1.045,3.476-2.292,6.778-3.696,9.901c-6.413,14.208-16.354,24.58-26.592,29.731c-31.15,100.99-186.577,99.558-217.329,0.011
		c-3.32-1.651-6.396-3.769-9.233-6.15c-16.061-13.5-23.941-35.055-24.665-55.681c-0.499-13.608,1.944-27.991,9.21-39.693
		c0.298-37.678,4.751-77.517,28.624-108.522c6.751-8.766,15-16.607,24.222-22.682c30-19.774,73.214-29.315,85.788-58.114
		C228.723,11.743,230.252,23.379,228.657,34.156"/>
</g>
</svg>
