<?xml version="1.0" encoding="iso-8859-1"?>
<!-- Generator: Adobe Illustrator 19.1.1, SVG Export Plug-In . SVG Version: 6.00 Build 0)  -->
<svg version="1.1" id="&#x421;&#x43B;&#x43E;&#x439;_1"
	 xmlns="http://www.w3.org/2000/svg" xmlns:xlink="http://www.w3.org/1999/xlink" x="0px" y="0px" viewBox="0 0 472.472 458.01"
	 style="enable-background:new 0 0 472.472 458.01;" xml:space="preserve">
<g>
	<defs>
		<rect id="SVGID_1_" width="472.472" height="458.01"/>
	</defs>
	<clipPath id="SVGID_2_">
		<use xlink:href="#SVGID_1_"  style="overflow:visible;"/>
	</clipPath>
	<path style="clip-path:url(#SVGID_2_);fill:#666666;" d="M102.895,155.045c0.162-2.613,0.113-28.418,0.353-30.467
		c8.56-72.609,36.229-124.465,133.081-124.577c92.314,0.1,121.769,47.223,131.742,114.506c1.938,13.125,1.878,33.494,1.641,40.622
		c10.917,17.651,11.467,41.995,5.481,61.887c-4.807,16.017-14.989,31.944-30.277,39.637
		c-31.156,100.985-186.581,99.553-217.335,0.012c-3.317-1.658-6.389-3.77-9.226-6.156c-16.084-13.517-23.935-35.049-24.67-55.675
		C93.196,181.383,95.549,166.584,102.895,155.045 M214.594,350.943c-4.811,0-8.697,2.123-11.483,5.218
		c-3.595,3.992-4.414,8.672-3.41,13.893l4.645,24.21c0.797,4.162,3.285,7.531,6.862,9.093l-13.264,39.424l-51.296-115.925
		L44.551,363.388C22.312,373.188,0,394.882,0,420.962v10.143v8.154c0,10.311,8.441,18.751,18.752,18.751h434.962
		c10.316,0,18.758-8.44,18.758-18.751v-8.154v-10.143c0-26.08-22.318-47.774-44.558-57.574l-102.09-36.532l-51.295,115.925
		l-13.273-39.424c3.584-1.562,6.067-4.931,6.864-9.093l4.644-24.21c1.006-5.221,0.186-9.901-3.407-13.893
		c-2.782-3.095-6.667-5.218-11.482-5.218H214.594z M348.578,160.902c-2.807,4.061-4.015,10.911-6.974,12.709
		c-4.858,2.935-8.199-1.95-9.535-5.864c-2.297-6.677-5.274-22.048-6.762-26.12c-2.089-5.705-6.785-13.023-9.374-20.279
		c-2.868-8.063-0.695-15.353-6.458-23.732c-3.234-4.706-9.924-8.261-21.592-4.281c-19.18,6.549-83.817,6.578-102.996,0.036
		c-7.654-2.613-13.607-1.798-17.206,0.213c-7.993,4.469-8.739,15.218-9.931,23.25c-1.391,9.48-7.614,17.185-10.4,24.793
		c-1.494,4.072-4.465,19.443-6.762,26.12c-1.336,3.914-4.678,8.799-9.535,5.864c-2.814-1.702-4.633-8.194-7.492-12.434
		c-8.57,9.58-10.316,20.015-9.85,32.948c0.539,15.011,5.852,31.253,17.522,41.069c3.868,3.252,8.166,4.678,12.877,6.33
		c2.572,9.181,5.508,17.948,10.394,26.231c14.94,25.311,41.143,39.789,68.858,43.265v-18.432c0-16.897,25.608-16.897,25.608,0
		v18.521c40.989-4.846,68.524-31.397,79.465-69.733c14.96-4.907,22.973-14.976,27.518-30.088c4.424-14.675,4.767-33.426-3.69-46.208
		C351.212,163.49,349.966,162.181,348.578,160.902 M236.053,244.483c-17.629,0-27.029,2.628-32.645,11.023
		c-1.207,1.798-1.55,3.68-2.381,5.595c-3.757,8.658-15.382,8.193-18.421-0.809c-0.763-2.246-0.622-4.943-0.403-7.268
		c2.128-22.228,25.479-39.749,53.962-39.749c28.491,0,51.841,17.521,53.97,39.749c0.218,2.325,0.358,5.022-0.405,7.268
		c-3.044,9.002-14.668,9.467-18.421,0.809c-0.83-1.915-1.18-3.797-2.381-5.595C263.312,247.111,253.682,244.483,236.053,244.483"/>
</g>
</svg>
